# MagicaVoxel @ Ephtracy

# group
o 

# material
mtllib bymaga.mtl
usemtl palette

# normals
vn -1 0 0
vn 1 0 0
vn 0 0 1
vn 0 0 -1
vn 0 -1 0
vn 0 1 0

# texcoords
vt 0.396484 0.5
vt 0.958984 0.5
vt 0.986328 0.5

# verts
v -0.3 0.1 0.4
v -0.3 0.1 0.3
v -0.3 0.4 0.5
v -0.3 0.4 0.4
v -0.3 0.5 0.7
v -0.3 0.5 0.5
v -0.3 0.7 0.5
v -0.3 0.7 0.4
v -0.3 0.8 0.7
v -0.3 0.8 0.6
v -0.3 0.8 0.5
v -0.3 0.8 0.4
v -0.3 0.9 0.7
v -0.3 0.9 0.6
v -0.3 0.9 0.3
v -0.2 0.9 0.7
v -0.2 0.9 0.6
v -0.2 1 0.7
v -0.2 1 0.6
v -0.1 1 0.7
v -0.1 1 0.6
v -0.1 1.1 0.7
v -0.1 1.1 0.6
v 0.1 0.7 0.6
v 0.1 0.7 0.5
v 0.1 0.8 0.6
v 0.1 0.8 0.5
v 0.3 0.9 0.7
v 0.3 0.9 0.6
v 0.3 1 0.7
v 0.3 1 0.6
v -0.1 0.9 0.7
v -0.1 0.9 0.6
v -0.1 1 0.7
v -0.1 1 0.6
v 2.98023e-08 0.7 0.6
v 2.98023e-08 0.7 0.5
v 2.98023e-08 0.8 0.6
v 2.98023e-08 0.8 0.5
v 0.3 1 0.7
v 0.3 1 0.6
v 0.3 1.1 0.7
v 0.3 1.1 0.6
v 0.4 0.9 0.7
v 0.4 0.9 0.6
v 0.4 1 0.7
v 0.4 1 0.6
v 0.5 0.1 0.4
v 0.5 0.1 0.3
v 0.5 0.4 0.5
v 0.5 0.4 0.4
v 0.5 0.5 0.7
v 0.5 0.5 0.5
v 0.5 0.7 0.5
v 0.5 0.7 0.4
v 0.5 0.8 0.7
v 0.5 0.8 0.6
v 0.5 0.8 0.5
v 0.5 0.8 0.4
v 0.5 0.9 0.7
v 0.5 0.9 0.6
v 0.5 0.9 0.3
v -0.3 0.5 0.7
v -0.3 0.8 0.7
v -0.3 0.9 0.7
v -0.2 0.8 0.7
v -0.2 0.9 0.7
v -0.2 1 0.7
v -0.1 0.9 0.7
v -0.1 1 0.7
v -0.1 1.1 0.7
v 0.3 0.9 0.7
v 0.3 1 0.7
v 0.3 1.1 0.7
v 0.4 0.8 0.7
v 0.4 0.9 0.7
v 0.4 1 0.7
v 0.5 0.5 0.7
v 0.5 0.8 0.7
v 0.5 0.9 0.7
v -0.3 0.4 0.5
v -0.3 0.5 0.5
v 2.98023e-08 0.7 0.5
v 2.98023e-08 0.8 0.5
v 0.1 0.7 0.5
v 0.1 0.8 0.5
v 0.5 0.4 0.5
v 0.5 0.5 0.5
v -0.3 0.1 0.4
v -0.3 0.4 0.4
v 0.5 0.1 0.4
v 0.5 0.4 0.4
v -0.2 0.9 0.6
v -0.2 1 0.6
v -0.1 0.9 0.6
v -0.1 1 0.6
v -0.1 1.1 0.6
v 2.98023e-08 0.7 0.6
v 2.98023e-08 0.8 0.6
v 0.1 0.7 0.6
v 0.1 0.8 0.6
v 0.3 0.9 0.6
v 0.3 1 0.6
v 0.3 1.1 0.6
v 0.4 0.9 0.6
v 0.4 1 0.6
v -0.3 0.1 0.3
v -0.3 0.9 0.3
v 0.5 0.1 0.3
v 0.5 0.9 0.3
v -0.3 0.1 0.4
v 0.5 0.1 0.4
v -0.3 0.1 0.3
v 0.5 0.1 0.3
v -0.3 0.4 0.5
v 0.5 0.4 0.5
v -0.3 0.4 0.4
v 0.5 0.4 0.4
v -0.3 0.5 0.7
v 0.5 0.5 0.7
v -0.3 0.5 0.5
v 0.5 0.5 0.5
v 2.98023e-08 0.8 0.6
v 0.1 0.8 0.6
v 2.98023e-08 0.8 0.5
v 0.1 0.8 0.5
v -0.1 1 0.7
v 0.3 1 0.7
v -0.1 1 0.6
v 0.3 1 0.6
v 2.98023e-08 0.7 0.6
v 0.1 0.7 0.6
v 2.98023e-08 0.7 0.5
v 0.1 0.7 0.5
v -0.3 0.9 0.7
v -0.2 0.9 0.7
v -0.1 0.9 0.7
v 0.3 0.9 0.7
v 0.4 0.9 0.7
v 0.5 0.9 0.7
v -0.3 0.9 0.6
v -0.2 0.9 0.6
v -0.1 0.9 0.6
v 0.3 0.9 0.6
v 0.4 0.9 0.6
v 0.5 0.9 0.6
v -0.3 0.9 0.3
v 0.5 0.9 0.3
v -0.2 1 0.7
v -0.1 1 0.7
v 0.3 1 0.7
v 0.4 1 0.7
v -0.2 1 0.6
v -0.1 1 0.6
v 0.3 1 0.6
v 0.4 1 0.6
v -0.1 1.1 0.7
v 0.3 1.1 0.7
v -0.1 1.1 0.6
v 0.3 1.1 0.6

# faces
f 4/2/1 2/2/1 1/2/1
f 6/2/1 4/2/1 3/2/1
f 7/2/1 4/2/1 6/2/1
f 7/2/1 6/2/1 5/2/1
f 8/2/1 2/2/1 4/2/1
f 8/2/1 4/2/1 7/2/1
f 9/2/1 7/2/1 5/2/1
f 10/2/1 7/2/1 9/2/1
f 11/1/1 8/1/1 7/1/1
f 11/2/1 7/2/1 10/2/1
f 12/2/1 2/2/1 8/2/1
f 12/1/1 8/1/1 11/1/1
f 13/3/1 10/3/1 9/3/1
f 14/2/1 11/2/1 10/2/1
f 14/3/1 10/3/1 13/3/1
f 14/2/1 12/2/1 11/2/1
f 15/2/1 2/2/1 12/2/1
f 15/2/1 12/2/1 14/2/1
f 18/3/1 17/3/1 16/3/1
f 19/3/1 17/3/1 18/3/1
f 22/3/1 21/3/1 20/3/1
f 23/3/1 21/3/1 22/3/1
f 26/2/1 25/2/1 24/2/1
f 27/2/1 25/2/1 26/2/1
f 30/3/1 29/3/1 28/3/1
f 31/3/1 29/3/1 30/3/1
f 32/3/2 33/3/2 34/3/2
f 34/3/2 33/3/2 35/3/2
f 36/2/2 37/2/2 38/2/2
f 38/2/2 37/2/2 39/2/2
f 40/3/2 41/3/2 42/3/2
f 42/3/2 41/3/2 43/3/2
f 44/3/2 45/3/2 46/3/2
f 46/3/2 45/3/2 47/3/2
f 48/2/2 49/2/2 51/2/2
f 50/2/2 51/2/2 53/2/2
f 53/2/2 51/2/2 54/2/2
f 52/2/2 53/2/2 54/2/2
f 51/2/2 49/2/2 55/2/2
f 54/2/2 51/2/2 55/2/2
f 52/2/2 54/2/2 56/2/2
f 56/2/2 54/2/2 57/2/2
f 54/1/2 55/1/2 58/1/2
f 57/2/2 54/2/2 58/2/2
f 55/2/2 49/2/2 59/2/2
f 58/1/2 55/1/2 59/1/2
f 56/3/2 57/3/2 60/3/2
f 57/2/2 58/2/2 61/2/2
f 60/3/2 57/3/2 61/3/2
f 58/2/2 59/2/2 61/2/2
f 59/2/2 49/2/2 62/2/2
f 61/2/2 59/2/2 62/2/2
f 66/2/3 64/2/3 63/2/3
f 66/3/3 65/3/3 64/3/3
f 67/3/3 65/3/3 66/3/3
f 69/2/3 67/2/3 66/2/3
f 69/3/3 68/3/3 67/3/3
f 70/3/3 68/3/3 69/3/3
f 72/2/3 69/2/3 66/2/3
f 73/3/3 71/3/3 70/3/3
f 74/3/3 71/3/3 73/3/3
f 75/2/3 66/2/3 63/2/3
f 75/2/3 72/2/3 66/2/3
f 76/3/3 73/3/3 72/3/3
f 76/2/3 72/2/3 75/2/3
f 77/3/3 73/3/3 76/3/3
f 78/2/3 75/2/3 63/2/3
f 79/3/3 76/3/3 75/3/3
f 79/2/3 75/2/3 78/2/3
f 80/3/3 76/3/3 79/3/3
f 85/1/3 84/1/3 83/1/3
f 86/1/3 84/1/3 85/1/3
f 87/2/3 82/2/3 81/2/3
f 88/2/3 82/2/3 87/2/3
f 91/2/3 90/2/3 89/2/3
f 92/2/3 90/2/3 91/2/3
f 93/3/4 94/3/4 95/3/4
f 95/3/4 94/3/4 96/3/4
f 98/2/4 99/2/4 100/2/4
f 100/2/4 99/2/4 101/2/4
f 96/3/4 97/3/4 103/3/4
f 103/3/4 97/3/4 104/3/4
f 102/3/4 103/3/4 105/3/4
f 105/3/4 103/3/4 106/3/4
f 107/2/4 108/2/4 109/2/4
f 109/2/4 108/2/4 110/2/4
f 113/2/5 112/2/5 111/2/5
f 114/2/5 112/2/5 113/2/5
f 117/2/5 116/2/5 115/2/5
f 118/2/5 116/2/5 117/2/5
f 121/2/5 120/2/5 119/2/5
f 122/2/5 120/2/5 121/2/5
f 125/2/5 124/2/5 123/2/5
f 126/2/5 124/2/5 125/2/5
f 129/3/5 128/3/5 127/3/5
f 130/3/5 128/3/5 129/3/5
f 131/2/6 132/2/6 133/2/6
f 133/2/6 132/2/6 134/2/6
f 135/3/6 136/3/6 141/3/6
f 141/3/6 136/3/6 142/3/6
f 137/2/6 138/2/6 143/2/6
f 143/2/6 138/2/6 144/2/6
f 139/3/6 140/3/6 145/3/6
f 145/3/6 140/3/6 146/3/6
f 143/2/6 144/2/6 147/2/6
f 141/2/6 142/2/6 147/2/6
f 145/2/6 146/2/6 147/2/6
f 144/2/6 145/2/6 147/2/6
f 142/2/6 143/2/6 147/2/6
f 147/2/6 146/2/6 148/2/6
f 149/3/6 150/3/6 153/3/6
f 153/3/6 150/3/6 154/3/6
f 151/3/6 152/3/6 155/3/6
f 155/3/6 152/3/6 156/3/6
f 157/3/6 158/3/6 159/3/6
f 159/3/6 158/3/6 160/3/6
