# MagicaVoxel @ Ephtracy

# group
o 

# material
mtllib Kasharik.mtl
usemtl palette

# normals
vn -1 0 0
vn 1 0 0
vn 0 0 1
vn 0 0 -1
vn 0 -1 0
vn 0 1 0

# texcoords
vt 0.107422 0.5
vt 0.255859 0.5
vt 0.845703 0.5
vt 0.958984 0.5
vt 0.994141 0.5

# verts
v -0.5 -0.4 0.2
v -0.5 -0.4 -0.2
v -0.5 0 0.2
v -0.5 0 -0.2
v -0.4 -0.6 0.3
v -0.4 -0.6 -0.3
v -0.4 -0.4 0.2
v -0.4 -0.4 -0.2
v -0.4 0 0.2
v -0.4 0 -0.2
v -0.4 0.1 0.3
v -0.4 0.1 0.1
v -0.4 0.1 -0.1
v -0.4 0.1 -0.3
v -0.4 0.3 -5.96046e-08
v -0.4 0.3 -0.1
v -0.4 0.5 0.1
v -0.4 0.5 -5.96046e-08
v -0.3 -0.7 0.3
v -0.3 -0.7 -0.3
v -0.3 -0.6 0.4
v -0.3 -0.6 0.3
v -0.3 -0.6 -0.3
v -0.3 -0.6 -0.4
v -0.3 0.1 0.4
v -0.3 0.1 0.3
v -0.3 0.1 0.1
v -0.3 0.1 -0.1
v -0.3 0.1 -0.3
v -0.3 0.1 -0.4
v -0.3 0.2 0.3
v -0.3 0.2 0.1
v -0.3 0.2 -0.1
v -0.3 0.2 -0.3
v -0.3 0.3 -5.96046e-08
v -0.3 0.3 -0.1
v -0.3 0.5 0.1
v -0.3 0.5 -5.96046e-08
v -0.3 0.5 -0.1
v -0.3 0.6 0.1
v -0.3 0.6 -5.96046e-08
v -0.2 -0.5 0.5
v -0.2 -0.5 0.4
v -0.2 -0.4 -0.4
v -0.2 -0.4 -0.5
v -0.2 -0.2 0.5
v -0.2 -0.2 0.4
v -0.2 -0.1 0.5
v -0.2 -0.1 0.4
v -0.2 0 0.5
v -0.2 0 0.4
v -0.2 0 -0.4
v -0.2 0 -0.5
v 0.1 0.3 0.1
v 0.1 0.3 -5.96046e-08
v 0.1 0.5 0.1
v 0.1 0.5 -5.96046e-08
v 0.2 -0.5 0.2
v 0.2 -0.5 -0.2
v 0.2 0.1 0.2
v 0.2 0.1 -0.2
v 0.2 0.2 0.1
v 0.2 0.2 -0.1
v 0.2 0.3 0.1
v 0.2 0.3 -5.96046e-08
v 0.2 0.5 0.1
v 0.2 0.5 -5.96046e-08
v 0.2 0.5 -0.1
v 0.2 0.6 0.1
v 0.2 0.6 -5.96046e-08
v -0.2 -0.5 0.2
v -0.2 -0.5 -0.2
v -0.2 0 -5.96046e-08
v -0.2 0 -0.2
v -0.2 0.1 0.2
v -0.2 0.1 -5.96046e-08
v -0.2 0.2 0.1
v -0.2 0.2 -0.1
v -0.2 0.3 0.1
v -0.2 0.3 -5.96046e-08
v -0.2 0.5 0.1
v -0.2 0.5 -5.96046e-08
v -0.2 0.5 -0.1
v -0.2 0.6 0.1
v -0.2 0.6 -5.96046e-08
v -0.1 0 -5.96046e-08
v -0.1 0 -0.2
v -0.1 0.1 -5.96046e-08
v -0.1 0.1 -0.2
v -0.1 0.3 0.1
v -0.1 0.3 -5.96046e-08
v -0.1 0.5 0.1
v -0.1 0.5 -5.96046e-08
v 0.2 -0.5 0.5
v 0.2 -0.5 0.4
v 0.2 -0.4 -0.4
v 0.2 -0.4 -0.5
v 0.2 -0.2 0.5
v 0.2 -0.2 0.4
v 0.2 -0.1 0.5
v 0.2 -0.1 0.4
v 0.2 0 0.5
v 0.2 0 0.4
v 0.2 0 -0.4
v 0.2 0 -0.5
v 0.3 -0.7 0.3
v 0.3 -0.7 -0.3
v 0.3 -0.6 0.4
v 0.3 -0.6 0.3
v 0.3 -0.6 -0.3
v 0.3 -0.6 -0.4
v 0.3 0.1 0.4
v 0.3 0.1 0.3
v 0.3 0.1 0.1
v 0.3 0.1 -0.1
v 0.3 0.1 -0.3
v 0.3 0.1 -0.4
v 0.3 0.2 0.3
v 0.3 0.2 0.1
v 0.3 0.2 -0.1
v 0.3 0.2 -0.3
v 0.3 0.3 -5.96046e-08
v 0.3 0.3 -0.1
v 0.3 0.5 0.1
v 0.3 0.5 -5.96046e-08
v 0.3 0.5 -0.1
v 0.3 0.6 0.1
v 0.3 0.6 -5.96046e-08
v 0.4 -0.6 0.3
v 0.4 -0.6 -0.3
v 0.4 -0.5 0.2
v 0.4 -0.5 -0.2
v 0.4 0 0.2
v 0.4 0 -0.2
v 0.4 0.1 0.3
v 0.4 0.1 0.1
v 0.4 0.1 -0.1
v 0.4 0.1 -0.3
v 0.4 0.3 -5.96046e-08
v 0.4 0.3 -0.1
v 0.4 0.5 0.1
v 0.4 0.5 -5.96046e-08
v 0.5 -0.5 0.2
v 0.5 -0.5 -0.2
v 0.5 0 0.2
v 0.5 0 -0.2
v -0.2 -0.5 0.5
v -0.2 -0.2 0.5
v -0.2 -0.1 0.5
v -0.2 0 0.5
v -0.1 -0.4 0.5
v -0.1 -0.3 0.5
v -0.1 -0.2 0.5
v -0.1 -0.1 0.5
v 0.1 -0.4 0.5
v 0.1 -0.3 0.5
v 0.1 -0.2 0.5
v 0.1 -0.1 0.5
v 0.2 -0.5 0.5
v 0.2 -0.2 0.5
v 0.2 -0.1 0.5
v 0.2 0 0.5
v -0.3 -0.6 0.4
v -0.3 0.1 0.4
v -0.2 -0.5 0.4
v -0.2 -0.2 0.4
v -0.2 -0.1 0.4
v -0.2 0 0.4
v 0.2 -0.5 0.4
v 0.2 -0.2 0.4
v 0.2 -0.1 0.4
v 0.2 0 0.4
v 0.3 -0.6 0.4
v 0.3 0.1 0.4
v -0.4 -0.6 0.3
v -0.4 0.1 0.3
v -0.3 -0.7 0.3
v -0.3 -0.6 0.3
v -0.3 0.1 0.3
v -0.3 0.2 0.3
v 0.3 -0.7 0.3
v 0.3 -0.6 0.3
v 0.3 0.1 0.3
v 0.3 0.2 0.3
v 0.4 -0.6 0.3
v 0.4 0.1 0.3
v -0.5 -0.4 0.2
v -0.5 0 0.2
v -0.4 -0.4 0.2
v -0.4 0 0.2
v 0.4 -0.5 0.2
v 0.4 0 0.2
v 0.5 -0.5 0.2
v 0.5 0 0.2
v -0.4 0.1 0.1
v -0.4 0.5 0.1
v -0.3 0.1 0.1
v -0.3 0.2 0.1
v -0.3 0.3 0.1
v -0.3 0.5 0.1
v -0.3 0.6 0.1
v -0.2 0.2 0.1
v -0.2 0.3 0.1
v -0.2 0.5 0.1
v -0.2 0.6 0.1
v -0.1 0.3 0.1
v -0.1 0.5 0.1
v 0.1 0.3 0.1
v 0.1 0.5 0.1
v 0.2 0.2 0.1
v 0.2 0.3 0.1
v 0.2 0.5 0.1
v 0.2 0.6 0.1
v 0.3 0.1 0.1
v 0.3 0.2 0.1
v 0.3 0.3 0.1
v 0.3 0.5 0.1
v 0.3 0.6 0.1
v 0.4 0.1 0.1
v 0.4 0.5 0.1
v -0.2 0 -5.96046e-08
v -0.2 0.1 -5.96046e-08
v -0.1 0 -5.96046e-08
v -0.1 0.1 -5.96046e-08
v -0.2 -0.5 -0.2
v -0.2 0 -0.2
v -0.1 0 -0.2
v -0.1 0.1 -0.2
v 0.2 -0.5 -0.2
v 0.2 0.1 -0.2
v -0.2 -0.5 0.2
v -0.2 0.1 0.2
v 0.2 -0.5 0.2
v 0.2 0.1 0.2
v -0.4 0.3 -5.96046e-08
v -0.4 0.5 -5.96046e-08
v -0.3 0.3 -5.96046e-08
v -0.3 0.5 -5.96046e-08
v -0.3 0.6 -5.96046e-08
v -0.2 0.3 -5.96046e-08
v -0.2 0.5 -5.96046e-08
v -0.2 0.6 -5.96046e-08
v -0.1 0.3 -5.96046e-08
v -0.1 0.5 -5.96046e-08
v 0.1 0.3 -5.96046e-08
v 0.1 0.5 -5.96046e-08
v 0.2 0.3 -5.96046e-08
v 0.2 0.5 -5.96046e-08
v 0.2 0.6 -5.96046e-08
v 0.3 0.3 -5.96046e-08
v 0.3 0.5 -5.96046e-08
v 0.3 0.6 -5.96046e-08
v 0.4 0.3 -5.96046e-08
v 0.4 0.5 -5.96046e-08
v -0.4 0.1 -0.1
v -0.4 0.3 -0.1
v -0.3 0.1 -0.1
v -0.3 0.2 -0.1
v -0.3 0.3 -0.1
v -0.3 0.5 -0.1
v -0.2 0.2 -0.1
v -0.2 0.5 -0.1
v 0.2 0.2 -0.1
v 0.2 0.5 -0.1
v 0.3 0.1 -0.1
v 0.3 0.2 -0.1
v 0.3 0.3 -0.1
v 0.3 0.5 -0.1
v 0.4 0.1 -0.1
v 0.4 0.3 -0.1
v -0.5 -0.4 -0.2
v -0.5 0 -0.2
v -0.4 -0.4 -0.2
v -0.4 0 -0.2
v 0.4 -0.5 -0.2
v 0.4 0 -0.2
v 0.5 -0.5 -0.2
v 0.5 0 -0.2
v -0.4 -0.6 -0.3
v -0.4 0.1 -0.3
v -0.3 -0.7 -0.3
v -0.3 -0.6 -0.3
v -0.3 0.1 -0.3
v -0.3 0.2 -0.3
v 0.3 -0.7 -0.3
v 0.3 -0.6 -0.3
v 0.3 0.1 -0.3
v 0.3 0.2 -0.3
v 0.4 -0.6 -0.3
v 0.4 0.1 -0.3
v -0.3 -0.6 -0.4
v -0.3 0.1 -0.4
v -0.2 -0.4 -0.4
v -0.2 0 -0.4
v 0.2 -0.4 -0.4
v 0.2 0 -0.4
v 0.3 -0.6 -0.4
v 0.3 0.1 -0.4
v -0.2 -0.4 -0.5
v -0.2 0 -0.5
v 0.2 -0.4 -0.5
v 0.2 0 -0.5
v -0.3 -0.7 0.3
v 0.3 -0.7 0.3
v -0.3 -0.7 -0.3
v 0.3 -0.7 -0.3
v -0.3 -0.6 0.4
v 0.3 -0.6 0.4
v -0.4 -0.6 0.3
v -0.3 -0.6 0.3
v 0.3 -0.6 0.3
v 0.4 -0.6 0.3
v -0.4 -0.6 -0.3
v -0.3 -0.6 -0.3
v 0.3 -0.6 -0.3
v 0.4 -0.6 -0.3
v -0.3 -0.6 -0.4
v 0.3 -0.6 -0.4
v -0.2 -0.5 0.5
v 0.2 -0.5 0.5
v -0.2 -0.5 0.4
v 0.2 -0.5 0.4
v 0.4 -0.5 0.2
v 0.5 -0.5 0.2
v 0.4 -0.5 -0.2
v 0.5 -0.5 -0.2
v -0.5 -0.4 0.2
v -0.4 -0.4 0.2
v -0.5 -0.4 -0.2
v -0.4 -0.4 -0.2
v -0.2 -0.4 -0.4
v 0.2 -0.4 -0.4
v -0.2 -0.4 -0.5
v 0.2 -0.4 -0.5
v -0.2 0 -5.96046e-08
v -0.1 0 -5.96046e-08
v -0.2 0 -0.2
v -0.1 0 -0.2
v -0.2 0.1 0.2
v 0.2 0.1 0.2
v -0.2 0.1 -5.96046e-08
v -0.1 0.1 -5.96046e-08
v -0.1 0.1 -0.2
v 0.2 0.1 -0.2
v -0.2 0.3 0.1
v -0.1 0.3 0.1
v 0.1 0.3 0.1
v 0.2 0.3 0.1
v -0.2 0.3 -5.96046e-08
v -0.1 0.3 -5.96046e-08
v 0.1 0.3 -5.96046e-08
v 0.2 0.3 -5.96046e-08
v -0.2 -0.5 0.2
v 0.2 -0.5 0.2
v -0.2 -0.5 -0.2
v 0.2 -0.5 -0.2
v -0.2 0 0.5
v 0.2 0 0.5
v -0.2 0 0.4
v 0.2 0 0.4
v -0.5 0 0.2
v -0.4 0 0.2
v 0.4 0 0.2
v 0.5 0 0.2
v -0.5 0 -0.2
v -0.4 0 -0.2
v 0.4 0 -0.2
v 0.5 0 -0.2
v -0.2 0 -0.4
v 0.2 0 -0.4
v -0.2 0 -0.5
v 0.2 0 -0.5
v -0.3 0.1 0.4
v 0.3 0.1 0.4
v -0.4 0.1 0.3
v -0.3 0.1 0.3
v 0.3 0.1 0.3
v 0.4 0.1 0.3
v -0.4 0.1 0.1
v -0.3 0.1 0.1
v 0.3 0.1 0.1
v 0.4 0.1 0.1
v -0.4 0.1 -0.1
v -0.3 0.1 -0.1
v 0.3 0.1 -0.1
v 0.4 0.1 -0.1
v -0.4 0.1 -0.3
v -0.3 0.1 -0.3
v 0.3 0.1 -0.3
v 0.4 0.1 -0.3
v -0.3 0.1 -0.4
v 0.3 0.1 -0.4
v -0.3 0.2 0.3
v 0.3 0.2 0.3
v -0.3 0.2 0.1
v -0.2 0.2 0.1
v 0.2 0.2 0.1
v 0.3 0.2 0.1
v -0.3 0.2 -0.1
v -0.2 0.2 -0.1
v 0.2 0.2 -0.1
v 0.3 0.2 -0.1
v -0.3 0.2 -0.3
v 0.3 0.2 -0.3
v -0.4 0.3 -5.96046e-08
v -0.3 0.3 -5.96046e-08
v 0.3 0.3 -5.96046e-08
v 0.4 0.3 -5.96046e-08
v -0.4 0.3 -0.1
v -0.3 0.3 -0.1
v 0.3 0.3 -0.1
v 0.4 0.3 -0.1
v -0.4 0.5 0.1
v -0.3 0.5 0.1
v -0.2 0.5 0.1
v -0.1 0.5 0.1
v 0.1 0.5 0.1
v 0.2 0.5 0.1
v 0.3 0.5 0.1
v 0.4 0.5 0.1
v -0.4 0.5 -5.96046e-08
v -0.3 0.5 -5.96046e-08
v -0.2 0.5 -5.96046e-08
v -0.1 0.5 -5.96046e-08
v 0.1 0.5 -5.96046e-08
v 0.2 0.5 -5.96046e-08
v 0.3 0.5 -5.96046e-08
v 0.4 0.5 -5.96046e-08
v -0.3 0.5 -0.1
v -0.2 0.5 -0.1
v 0.2 0.5 -0.1
v 0.3 0.5 -0.1
v -0.3 0.6 0.1
v -0.2 0.6 0.1
v 0.2 0.6 0.1
v 0.3 0.6 0.1
v -0.3 0.6 -5.96046e-08
v -0.2 0.6 -5.96046e-08
v 0.2 0.6 -5.96046e-08
v 0.3 0.6 -5.96046e-08

# faces
f 3/2/1 2/2/1 1/2/1
f 4/2/1 2/2/1 3/2/1
f 7/2/1 6/2/1 5/2/1
f 8/2/1 6/2/1 7/2/1
f 9/2/1 7/2/1 5/2/1
f 10/2/1 6/2/1 8/2/1
f 11/2/1 9/2/1 5/2/1
f 11/2/1 10/2/1 9/2/1
f 12/2/1 10/2/1 11/2/1
f 13/2/1 10/2/1 12/2/1
f 14/2/1 6/2/1 10/2/1
f 14/2/1 10/2/1 13/2/1
f 15/5/1 13/5/1 12/5/1
f 16/5/1 13/5/1 15/5/1
f 17/5/1 15/5/1 12/5/1
f 18/5/1 15/5/1 17/5/1
f 22/2/1 20/2/1 19/2/1
f 23/2/1 20/2/1 22/2/1
f 25/2/1 22/2/1 21/2/1
f 26/2/1 22/2/1 25/2/1
f 29/2/1 24/2/1 23/2/1
f 30/2/1 24/2/1 29/2/1
f 31/2/1 27/2/1 26/2/1
f 32/2/1 27/2/1 31/2/1
f 33/2/1 29/2/1 28/2/1
f 34/2/1 29/2/1 33/2/1
f 38/5/1 36/5/1 35/5/1
f 39/5/1 36/5/1 38/5/1
f 40/5/1 38/5/1 37/5/1
f 41/5/1 38/5/1 40/5/1
f 46/2/1 43/2/1 42/2/1
f 47/2/1 43/2/1 46/2/1
f 48/4/1 47/4/1 46/4/1
f 49/4/1 47/4/1 48/4/1
f 50/2/1 49/2/1 48/2/1
f 51/2/1 49/2/1 50/2/1
f 52/2/1 45/2/1 44/2/1
f 53/2/1 45/2/1 52/2/1
f 56/5/1 55/5/1 54/5/1
f 57/5/1 55/5/1 56/5/1
f 60/2/1 59/2/1 58/2/1
f 61/2/1 59/2/1 60/2/1
f 64/5/1 63/5/1 62/5/1
f 65/5/1 63/5/1 64/5/1
f 67/5/1 63/5/1 65/5/1
f 68/5/1 63/5/1 67/5/1
f 69/5/1 67/5/1 66/5/1
f 70/5/1 67/5/1 69/5/1
f 71/2/2 72/2/2 73/2/2
f 73/2/2 72/2/2 74/2/2
f 71/2/2 73/2/2 75/2/2
f 75/2/2 73/2/2 76/2/2
f 77/5/2 78/5/2 79/5/2
f 79/5/2 78/5/2 80/5/2
f 80/5/2 78/5/2 82/5/2
f 82/5/2 78/5/2 83/5/2
f 81/5/2 82/5/2 84/5/2
f 84/5/2 82/5/2 85/5/2
f 86/2/2 87/2/2 88/2/2
f 88/2/2 87/2/2 89/2/2
f 90/5/2 91/5/2 92/5/2
f 92/5/2 91/5/2 93/5/2
f 94/2/2 95/2/2 98/2/2
f 98/2/2 95/2/2 99/2/2
f 98/4/2 99/4/2 100/4/2
f 100/4/2 99/4/2 101/4/2
f 100/2/2 101/2/2 102/2/2
f 102/2/2 101/2/2 103/2/2
f 96/2/2 97/2/2 104/2/2
f 104/2/2 97/2/2 105/2/2
f 106/2/2 107/2/2 109/2/2
f 109/2/2 107/2/2 110/2/2
f 108/2/2 109/2/2 112/2/2
f 112/2/2 109/2/2 113/2/2
f 110/2/2 111/2/2 116/2/2
f 116/2/2 111/2/2 117/2/2
f 113/2/2 114/2/2 118/2/2
f 118/2/2 114/2/2 119/2/2
f 115/2/2 116/2/2 120/2/2
f 120/2/2 116/2/2 121/2/2
f 122/5/2 123/5/2 125/5/2
f 125/5/2 123/5/2 126/5/2
f 124/5/2 125/5/2 127/5/2
f 127/5/2 125/5/2 128/5/2
f 129/2/2 130/2/2 131/2/2
f 131/2/2 130/2/2 132/2/2
f 129/2/2 131/2/2 133/2/2
f 132/2/2 130/2/2 134/2/2
f 129/2/2 133/2/2 135/2/2
f 133/2/2 134/2/2 135/2/2
f 135/2/2 134/2/2 136/2/2
f 136/2/2 134/2/2 137/2/2
f 134/2/2 130/2/2 138/2/2
f 137/2/2 134/2/2 138/2/2
f 136/5/2 137/5/2 139/5/2
f 139/5/2 137/5/2 140/5/2
f 136/5/2 139/5/2 141/5/2
f 141/5/2 139/5/2 142/5/2
f 143/2/2 144/2/2 145/2/2
f 145/2/2 144/2/2 146/2/2
f 151/2/3 148/2/3 147/2/3
f 152/2/3 148/2/3 151/2/3
f 153/4/3 149/4/3 148/4/3
f 153/2/3 148/2/3 152/2/3
f 154/2/3 150/2/3 149/2/3
f 154/4/3 149/4/3 153/4/3
f 155/1/3 152/1/3 151/1/3
f 155/2/3 151/2/3 147/2/3
f 156/2/3 153/2/3 152/2/3
f 156/1/3 152/1/3 155/1/3
f 156/2/3 154/2/3 153/2/3
f 157/2/3 154/2/3 156/2/3
f 158/2/3 150/2/3 154/2/3
f 158/2/3 154/2/3 157/2/3
f 159/2/3 155/2/3 147/2/3
f 159/2/3 157/2/3 156/2/3
f 159/2/3 156/2/3 155/2/3
f 160/4/3 158/4/3 157/4/3
f 160/2/3 157/2/3 159/2/3
f 161/2/3 150/2/3 158/2/3
f 161/4/3 158/4/3 160/4/3
f 162/2/3 150/2/3 161/2/3
f 165/2/3 164/2/3 163/2/3
f 166/2/3 164/2/3 165/2/3
f 167/2/3 164/2/3 166/2/3
f 168/2/3 164/2/3 167/2/3
f 169/2/3 165/2/3 163/2/3
f 172/2/3 164/2/3 168/2/3
f 173/2/3 171/2/3 170/2/3
f 173/2/3 172/2/3 171/2/3
f 173/2/3 169/2/3 163/2/3
f 173/2/3 170/2/3 169/2/3
f 174/2/3 164/2/3 172/2/3
f 174/2/3 172/2/3 173/2/3
f 178/2/3 176/2/3 175/2/3
f 179/2/3 176/2/3 178/2/3
f 181/2/3 178/2/3 177/2/3
f 182/2/3 178/2/3 181/2/3
f 183/2/3 180/2/3 179/2/3
f 184/2/3 180/2/3 183/2/3
f 185/2/3 183/2/3 182/2/3
f 186/2/3 183/2/3 185/2/3
f 189/2/3 188/2/3 187/2/3
f 190/2/3 188/2/3 189/2/3
f 193/2/3 192/2/3 191/2/3
f 194/2/3 192/2/3 193/2/3
f 197/5/3 196/5/3 195/5/3
f 198/5/3 196/5/3 197/5/3
f 199/5/3 196/5/3 198/5/3
f 200/5/3 196/5/3 199/5/3
f 202/5/3 199/5/3 198/5/3
f 203/3/3 200/3/3 199/3/3
f 203/5/3 199/5/3 202/5/3
f 204/5/3 201/5/3 200/5/3
f 204/3/3 200/3/3 203/3/3
f 205/5/3 201/5/3 204/5/3
f 206/5/3 204/5/3 203/5/3
f 207/5/3 204/5/3 206/5/3
f 211/5/3 209/5/3 208/5/3
f 212/5/3 209/5/3 211/5/3
f 215/5/3 211/5/3 210/5/3
f 216/3/3 212/3/3 211/3/3
f 216/5/3 211/5/3 215/5/3
f 217/5/3 213/5/3 212/5/3
f 217/3/3 212/3/3 216/3/3
f 218/5/3 213/5/3 217/5/3
f 219/5/3 215/5/3 214/5/3
f 219/5/3 216/5/3 215/5/3
f 219/5/3 217/5/3 216/5/3
f 220/5/3 217/5/3 219/5/3
f 223/2/3 222/2/3 221/2/3
f 224/2/3 222/2/3 223/2/3
f 227/2/3 226/2/3 225/2/3
f 229/2/3 227/2/3 225/2/3
f 229/2/3 228/2/3 227/2/3
f 230/2/3 228/2/3 229/2/3
f 231/2/4 232/2/4 233/2/4
f 233/2/4 232/2/4 234/2/4
f 235/5/4 236/5/4 237/5/4
f 237/5/4 236/5/4 238/5/4
f 238/5/4 239/5/4 241/5/4
f 241/5/4 239/5/4 242/5/4
f 240/5/4 241/5/4 243/5/4
f 243/5/4 241/5/4 244/5/4
f 245/5/4 246/5/4 247/5/4
f 247/5/4 246/5/4 248/5/4
f 248/5/4 249/5/4 251/5/4
f 251/5/4 249/5/4 252/5/4
f 250/5/4 251/5/4 253/5/4
f 253/5/4 251/5/4 254/5/4
f 255/5/4 256/5/4 257/5/4
f 257/5/4 256/5/4 258/5/4
f 258/5/4 256/5/4 259/5/4
f 259/5/4 260/5/4 261/5/4
f 258/5/4 259/5/4 261/5/4
f 261/5/4 260/5/4 262/5/4
f 263/5/4 264/5/4 266/5/4
f 266/5/4 264/5/4 267/5/4
f 267/5/4 264/5/4 268/5/4
f 265/5/4 266/5/4 269/5/4
f 266/5/4 267/5/4 269/5/4
f 269/5/4 267/5/4 270/5/4
f 271/2/4 272/2/4 273/2/4
f 273/2/4 272/2/4 274/2/4
f 275/2/4 276/2/4 277/2/4
f 277/2/4 276/2/4 278/2/4
f 279/2/4 280/2/4 282/2/4
f 282/2/4 280/2/4 283/2/4
f 281/2/4 282/2/4 285/2/4
f 285/2/4 282/2/4 286/2/4
f 283/2/4 284/2/4 287/2/4
f 287/2/4 284/2/4 288/2/4
f 286/2/4 287/2/4 289/2/4
f 289/2/4 287/2/4 290/2/4
f 291/2/4 292/2/4 293/2/4
f 293/2/4 292/2/4 294/2/4
f 291/2/4 293/2/4 295/2/4
f 294/2/4 292/2/4 296/2/4
f 291/2/4 295/2/4 297/2/4
f 295/2/4 296/2/4 297/2/4
f 296/2/4 292/2/4 298/2/4
f 297/2/4 296/2/4 298/2/4
f 299/2/4 300/2/4 301/2/4
f 301/2/4 300/2/4 302/2/4
f 305/2/5 304/2/5 303/2/5
f 306/2/5 304/2/5 305/2/5
f 310/2/5 308/2/5 307/2/5
f 311/2/5 308/2/5 310/2/5
f 313/2/5 310/2/5 309/2/5
f 314/2/5 310/2/5 313/2/5
f 315/2/5 312/2/5 311/2/5
f 316/2/5 312/2/5 315/2/5
f 317/2/5 315/2/5 314/2/5
f 318/2/5 315/2/5 317/2/5
f 321/2/5 320/2/5 319/2/5
f 322/2/5 320/2/5 321/2/5
f 325/2/5 324/2/5 323/2/5
f 326/2/5 324/2/5 325/2/5
f 329/2/5 328/2/5 327/2/5
f 330/2/5 328/2/5 329/2/5
f 333/2/5 332/2/5 331/2/5
f 334/2/5 332/2/5 333/2/5
f 337/2/5 336/2/5 335/2/5
f 338/2/5 336/2/5 337/2/5
f 341/2/5 340/2/5 339/2/5
f 342/2/5 340/2/5 341/2/5
f 343/2/5 340/2/5 342/2/5
f 344/2/5 340/2/5 343/2/5
f 349/5/5 346/5/5 345/5/5
f 350/5/5 346/5/5 349/5/5
f 351/5/5 348/5/5 347/5/5
f 352/5/5 348/5/5 351/5/5
f 353/2/6 354/2/6 355/2/6
f 355/2/6 354/2/6 356/2/6
f 357/2/6 358/2/6 359/2/6
f 359/2/6 358/2/6 360/2/6
f 361/2/6 362/2/6 365/2/6
f 365/2/6 362/2/6 366/2/6
f 363/2/6 364/2/6 367/2/6
f 367/2/6 364/2/6 368/2/6
f 369/2/6 370/2/6 371/2/6
f 371/2/6 370/2/6 372/2/6
f 373/2/6 374/2/6 376/2/6
f 376/2/6 374/2/6 377/2/6
f 375/2/6 376/2/6 379/2/6
f 379/2/6 376/2/6 380/2/6
f 377/2/6 378/2/6 381/2/6
f 381/2/6 378/2/6 382/2/6
f 383/2/6 384/2/6 387/2/6
f 387/2/6 384/2/6 388/2/6
f 385/2/6 386/2/6 389/2/6
f 389/2/6 386/2/6 390/2/6
f 388/2/6 389/2/6 391/2/6
f 391/2/6 389/2/6 392/2/6
f 393/2/6 394/2/6 395/2/6
f 395/2/6 394/2/6 396/2/6
f 396/2/6 394/2/6 397/2/6
f 397/2/6 394/2/6 398/2/6
f 396/2/6 397/2/6 400/2/6
f 400/2/6 397/2/6 401/2/6
f 399/2/6 400/2/6 403/2/6
f 401/2/6 402/2/6 403/2/6
f 400/2/6 401/2/6 403/2/6
f 403/2/6 402/2/6 404/2/6
f 405/5/6 406/5/6 409/5/6
f 409/5/6 406/5/6 410/5/6
f 407/5/6 408/5/6 411/5/6
f 411/5/6 408/5/6 412/5/6
f 413/5/6 414/5/6 421/5/6
f 421/5/6 414/5/6 422/5/6
f 415/5/6 416/5/6 423/5/6
f 423/5/6 416/5/6 424/5/6
f 417/5/6 418/5/6 425/5/6
f 425/5/6 418/5/6 426/5/6
f 419/5/6 420/5/6 427/5/6
f 427/5/6 420/5/6 428/5/6
f 422/5/6 423/5/6 429/5/6
f 429/5/6 423/5/6 430/5/6
f 426/5/6 427/5/6 431/5/6
f 431/5/6 427/5/6 432/5/6
f 433/5/6 434/5/6 437/5/6
f 437/5/6 434/5/6 438/5/6
f 435/5/6 436/5/6 439/5/6
f 439/5/6 436/5/6 440/5/6
