# MagicaVoxel @ Ephtracy

# group
o 

# material
mtllib Koskolet.mtl
usemtl palette

# normals
vn -1 0 0
vn 1 0 0
vn 0 0 1
vn 0 0 -1
vn 0 -1 0
vn 0 1 0

# texcoords
vt 0.0917969 0.5
vt 0.103516 0.5
vt 0.119141 0.5
vt 0.658203 0.5
vt 0.958984 0.5
vt 0.994141 0.5

# verts
v -2 -1 0.8
v -2 -1 -0.8
v -2 -0.2 0.8
v -2 -0.2 -0.8
v -1.9 -0.2 0.0999999
v -1.9 -0.2 -0.0999999
v -1.9 0.6 0.0999999
v -1.9 0.6 -0.0999999
v -1.2 -0.2 0.8
v -1.2 -0.2 -0.8
v -1.2 0.2 0.8
v -1.2 0.2 -0.8
v -0.8 -0.2 0
v -0.8 -0.2 -0.2
v -0.8 -1.19209e-07 0
v -0.8 -1.19209e-07 -0.2
v -0.6 -0.4 0
v -0.6 -0.4 -0.2
v -0.6 -0.2 0
v -0.6 -0.2 -0.2
v -0.4 -1 2
v -0.4 -1 0.8
v -0.4 -1 -0.8
v -0.4 -1 -2
v -0.4 -0.3 2
v -0.4 -0.3 1.9
v -0.4 -0.2 1.9
v -0.4 -0.2 0.8
v -0.4 -0.2 -0.8
v -0.4 -0.2 -1.9
v -0.4 -0.2 -2
v -0.4 -0.1 2
v -0.4 -0.1 1.9
v -0.4 -0.1 -1.9
v -0.4 -0.1 -2
v -0.3 -0.7 2.1
v -0.3 -0.7 2
v -0.3 -0.6 2.1
v -0.3 -0.6 2
v -0.3 -0.6 -2
v -0.3 -0.6 -2.1
v -0.3 -0.5 -2
v -0.3 -0.5 -2.1
v -0.2 -0.6 0.4
v -0.2 -0.6 0.2
v -0.2 -0.6 0
v -0.2 -0.6 -0.2
v -0.2 -0.4 0.4
v -0.2 -0.4 0.2
v -0.2 -0.4 0
v -0.2 -0.4 -0.2
v -0.0999999 -0.9 2.1
v -0.0999999 -0.9 2
v -0.0999999 -0.8 -2
v -0.0999999 -0.8 -2.1
v -0.0999999 -0.7 2.1
v -0.0999999 -0.7 2
v -0.0999999 -0.7 -2
v -0.0999999 -0.7 -2.1
v -0.0999999 -0.4 -2
v -0.0999999 -0.4 -2.1
v -0.0999999 -0.3 -2
v -0.0999999 -0.3 -2.1
v -0.0999999 -0.2 2
v -0.0999999 -0.2 1.9
v -0.0999999 -0.1 2
v -0.0999999 -0.1 1.9
v 2.38419e-07 -0.9 -2
v 2.38419e-07 -0.9 -2.2
v 2.38419e-07 -0.8 -2
v 2.38419e-07 -0.8 -2.1
v 2.38419e-07 -0.8 -2.2
v 2.38419e-07 -0.5 2.1
v 2.38419e-07 -0.5 2
v 2.38419e-07 -0.4 2.1
v 2.38419e-07 -0.4 2
v 2.38419e-07 -0.2 -1.9
v 2.38419e-07 -0.2 -2
v 2.38419e-07 -0.1 -1.9
v 2.38419e-07 -0.1 -2
v 0.2 -0.8 -0.2
v 0.2 -0.8 -0.4
v 0.2 -0.7 2.1
v 0.2 -0.7 2
v 0.2 -0.6 2.1
v 0.2 -0.6 2
v 0.2 -0.5 -2
v 0.2 -0.5 -2.1
v 0.2 -0.4 -0.2
v 0.2 -0.4 -0.4
v 0.2 -0.4 -2
v 0.2 -0.4 -2.1
v 0.3 -0.2 2
v 0.3 -0.2 1.9
v 0.3 -0.2 -1.9
v 0.3 -0.2 -2
v 0.3 -0.1 2
v 0.3 -0.1 1.9
v 0.3 -0.1 -1.9
v 0.3 -0.1 -2
v 0.4 -0.2 0.8
v 0.4 -0.2 -0.8
v 0.4 0.6 0.8
v 0.4 0.6 -0.8
v 0.6 -0.4 0
v 0.6 -0.4 -0.2
v 0.6 -0.2 0
v 0.6 -0.2 -0.2
v 0.8 -0.8 0
v 0.8 -0.8 -0.2
v 0.8 -0.6 0.4
v 0.8 -0.6 0.2
v 0.8 -0.4 0.4
v 0.8 -0.4 0.2
v 0.8 -0.4 0
v 0.8 -0.4 -0.2
v 1 -1 0.4
v 1 -1 0.2
v 1 -0.8 0.4
v 1 -0.8 0.2
v 1 -0.8 0
v 1 -0.4 0.2
v 1 -0.4 0
v 1.2 -0.6 0
v 1.2 -0.6 -0.2
v 1.2 -0.4 0
v 1.2 -0.4 -0.2
v -1.7 -0.2 0.0999999
v -1.7 -0.2 -0.0999999
v -1.7 0.6 0.0999999
v -1.7 0.6 -0.0999999
v -1 -0.6 0
v -1 -0.6 -0.2
v -1 -1.19209e-07 0
v -1 -1.19209e-07 -0.2
v -0.6 -1.19209e-07 0.8
v -0.6 -1.19209e-07 -0.8
v -0.6 0.2 0.8
v -0.6 0.2 -0.8
v -0.4 -0.6 0.4
v -0.4 -0.6 0.2
v -0.4 -0.6 -0.2
v -0.4 -0.6 -0.4
v -0.4 -0.4 0.4
v -0.4 -0.4 0.2
v -0.4 -0.4 -0.2
v -0.4 -0.4 -0.4
v -0.4 -0.2 0.8
v -0.4 -0.2 -0.8
v -0.4 -1.19209e-07 0.8
v -0.4 -1.19209e-07 -0.8
v -0.3 -0.2 2
v -0.3 -0.2 1.9
v -0.3 -0.2 -1.9
v -0.3 -0.2 -2
v -0.3 -0.1 2
v -0.3 -0.1 1.9
v -0.3 -0.1 -1.9
v -0.3 -0.1 -2
v -0.2 -0.7 2.1
v -0.2 -0.7 2
v -0.2 -0.6 2.1
v -0.2 -0.6 2
v -0.0999999 -0.6 -2
v -0.0999999 -0.6 -2.1
v -0.0999999 -0.5 -2
v -0.0999999 -0.5 -2.1
v 2.38419e-07 -0.8 -0.2
v 2.38419e-07 -0.8 -0.4
v 2.38419e-07 -0.6 -0.2
v 2.38419e-07 -0.6 -0.4
v 2.38419e-07 -0.4 -2
v 2.38419e-07 -0.4 -2.1
v 2.38419e-07 -0.3 -2
v 2.38419e-07 -0.3 -2.1
v 2.38419e-07 -0.2 2
v 2.38419e-07 -0.2 1.9
v 2.38419e-07 -0.1 2
v 2.38419e-07 -0.1 1.9
v 0.1 -0.9 2.1
v 0.1 -0.9 2
v 0.1 -0.9 -2
v 0.1 -0.9 -2.2
v 0.1 -0.8 -2.1
v 0.1 -0.8 -2.2
v 0.1 -0.7 2.1
v 0.1 -0.7 2
v 0.1 -0.7 -2
v 0.1 -0.7 -2.1
v 0.1 -0.5 2.1
v 0.1 -0.5 2
v 0.1 -0.4 2.1
v 0.1 -0.4 2
v 0.1 -0.2 -1.9
v 0.1 -0.2 -2
v 0.1 -0.1 -1.9
v 0.1 -0.1 -2
v 0.2 -0.6 0
v 0.2 -0.6 -0.2
v 0.2 -0.4 0
v 0.2 -0.4 -0.2
v 0.3 -0.7 2.1
v 0.3 -0.7 2
v 0.3 -0.6 2.1
v 0.3 -0.6 2
v 0.3 -0.5 -2
v 0.3 -0.5 -2.1
v 0.3 -0.4 -2
v 0.3 -0.4 -2.1
v 0.4 -1 2
v 0.4 -1 0.8
v 0.4 -1 -0.8
v 0.4 -1 -2
v 0.4 -0.8 0.2
v 0.4 -0.8 0
v 0.4 -0.6 0.2
v 0.4 -0.6 0
v 0.4 -0.4 0
v 0.4 -0.4 -0.2
v 0.4 -0.3 2
v 0.4 -0.3 1.9
v 0.4 -0.2 1.9
v 0.4 -0.2 0.8
v 0.4 -0.2 0
v 0.4 -0.2 -0.2
v 0.4 -0.2 -0.8
v 0.4 -0.2 -1.9
v 0.4 -0.2 -2
v 0.4 -0.1 2
v 0.4 -0.1 1.9
v 0.4 -0.1 -1.9
v 0.4 -0.1 -2
v 0.6 -0.8 0
v 0.6 -0.8 -0.2
v 0.6 -0.6 0.4
v 0.6 -0.6 0.2
v 0.6 -0.6 0
v 0.6 -0.6 -0.2
v 0.6 -0.4 0.4
v 0.6 -0.4 0
v 0.8 -1 0.4
v 0.8 -1 0.2
v 0.8 -0.8 0.4
v 0.8 -0.8 0.2
v 0.8 0.2 0.8
v 0.8 0.2 0.6
v 0.8 0.2 -0.6
v 0.8 0.2 -0.8
v 0.8 0.4 0.6
v 0.8 0.4 -0.6
v 0.8 0.6 0.8
v 0.8 0.6 -0.8
v 1 -0.6 0
v 1 -0.6 -0.2
v 1 -0.4 0
v 1 -0.4 -0.2
v 1.6 -1 0.8
v 1.6 -1 -0.8
v 1.6 -0.6 0.2
v 1.6 -0.6 -0.2
v 1.6 -0.4 0.6
v 1.6 -0.4 0.4
v 1.6 -0.4 0.2
v 1.6 -0.4 -0.2
v 1.6 -0.4 -0.4
v 1.6 -0.4 -0.6
v 1.6 -1.19209e-07 0.6
v 1.6 -1.19209e-07 0.4
v 1.6 -1.19209e-07 0.2
v 1.6 -1.19209e-07 -0.2
v 1.6 -1.19209e-07 -0.4
v 1.6 -1.19209e-07 -0.6
v 1.6 0.2 0.8
v 1.6 0.2 -0.8
v -0.3 -0.7 2.1
v -0.3 -0.6 2.1
v -0.2 -0.7 2.1
v -0.2 -0.6 2.1
v -0.0999999 -0.9 2.1
v -0.0999999 -0.7 2.1
v 2.38419e-07 -0.5 2.1
v 2.38419e-07 -0.4 2.1
v 0.1 -0.9 2.1
v 0.1 -0.7 2.1
v 0.1 -0.5 2.1
v 0.1 -0.4 2.1
v 0.2 -0.7 2.1
v 0.2 -0.6 2.1
v 0.3 -0.7 2.1
v 0.3 -0.6 2.1
v -0.4 -1 2
v -0.4 -0.3 2
v -0.4 -0.1 2
v -0.3 -0.7 2
v -0.3 -0.6 2
v -0.3 -0.3 2
v -0.3 -0.2 2
v -0.3 -0.1 2
v -0.2 -0.7 2
v -0.2 -0.6 2
v -0.0999999 -0.9 2
v -0.0999999 -0.7 2
v -0.0999999 -0.3 2
v -0.0999999 -0.2 2
v -0.0999999 -0.1 2
v 2.38419e-07 -0.5 2
v 2.38419e-07 -0.4 2
v 2.38419e-07 -0.3 2
v 2.38419e-07 -0.2 2
v 2.38419e-07 -0.1 2
v 0.1 -0.9 2
v 0.1 -0.7 2
v 0.1 -0.5 2
v 0.1 -0.4 2
v 0.2 -0.7 2
v 0.2 -0.6 2
v 0.3 -0.7 2
v 0.3 -0.6 2
v 0.3 -0.3 2
v 0.3 -0.2 2
v 0.3 -0.1 2
v 0.4 -1 2
v 0.4 -0.3 2
v 0.4 -0.1 2
v -2 -1 0.8
v -2 -0.2 0.8
v -1.2 -0.2 0.8
v -1.2 0.2 0.8
v -0.6 -1.19209e-07 0.8
v -0.6 0.2 0.8
v -0.4 -1 0.8
v -0.4 -0.2 0.8
v -0.4 -1.19209e-07 0.8
v 0.4 -1 0.8
v 0.4 -0.2 0.8
v 0.4 0.6 0.8
v 0.8 0.2 0.8
v 0.8 0.6 0.8
v 1.6 -1 0.8
v 1.6 0.2 0.8
v -0.4 -0.6 0.2
v -0.4 -0.4 0.2
v -0.2 -0.6 0.2
v -0.2 -0.4 0.2
v 0.8 -1 0.2
v 0.8 -0.8 0.2
v 1 -1 0.2
v 1 -0.8 0.2
v -1.9 -0.2 0.0999999
v -1.9 0.6 0.0999999
v -1.7 -0.2 0.0999999
v -1.7 0.6 0.0999999
v 0.4 -0.8 0
v 0.4 -0.6 0
v 0.6 -0.8 0
v 0.6 -0.6 0
v 0.8 -0.8 0
v 0.8 -0.4 0
v 1 -0.8 0
v 1 -0.4 0
v -1 -0.6 -0.2
v -1 -1.19209e-07 -0.2
v -0.8 -0.2 -0.2
v -0.8 -1.19209e-07 -0.2
v -0.6 -0.4 -0.2
v -0.6 -0.2 -0.2
v -0.4 -0.6 -0.2
v -0.4 -0.4 -0.2
v 0.2 -0.6 -0.2
v 0.2 -0.4 -0.2
v 0.4 -0.4 -0.2
v 0.4 -0.2 -0.2
v 0.6 -0.8 -0.2
v 0.6 -0.6 -0.2
v 0.6 -0.4 -0.2
v 0.6 -0.2 -0.2
v 0.8 -0.8 -0.2
v 0.8 -0.4 -0.2
v 1 -0.6 -0.2
v 1 -0.4 -0.2
v 1.2 -0.6 -0.2
v 1.2 -0.4 -0.2
v -0.4 -0.6 -0.4
v -0.4 -0.4 -0.4
v 2.38419e-07 -0.8 -0.4
v 2.38419e-07 -0.6 -0.4
v 0.2 -0.8 -0.4
v 0.2 -0.4 -0.4
v -0.4 -0.2 -1.9
v -0.4 -0.1 -1.9
v -0.3 -0.2 -1.9
v -0.3 -0.1 -1.9
v 2.38419e-07 -0.2 -1.9
v 2.38419e-07 -0.1 -1.9
v 0.1 -0.2 -1.9
v 0.1 -0.1 -1.9
v 0.3 -0.2 -1.9
v 0.3 -0.1 -1.9
v 0.4 -0.2 -1.9
v 0.4 -0.1 -1.9
v -0.4 -0.2 1.9
v -0.4 -0.1 1.9
v -0.3 -0.2 1.9
v -0.3 -0.1 1.9
v -0.0999999 -0.2 1.9
v -0.0999999 -0.1 1.9
v 2.38419e-07 -0.2 1.9
v 2.38419e-07 -0.1 1.9
v 0.3 -0.2 1.9
v 0.3 -0.1 1.9
v 0.4 -0.2 1.9
v 0.4 -0.1 1.9
v -0.4 -0.6 0.4
v -0.4 -0.4 0.4
v -0.2 -0.6 0.4
v -0.2 -0.4 0.4
v 0.6 -0.6 0.4
v 0.6 -0.4 0.4
v 0.8 -1 0.4
v 0.8 -0.8 0.4
v 0.8 -0.6 0.4
v 0.8 -0.4 0.4
v 1 -1 0.4
v 1 -0.8 0.4
v 0.4 -0.8 0.2
v 0.4 -0.6 0.2
v 0.6 -0.6 0.2
v 0.8 -0.6 0.2
v 0.8 -0.4 0.2
v 1 -0.8 0.2
v 1 -0.4 0.2
v -1 -0.6 0
v -1 -1.19209e-07 0
v -0.8 -0.2 0
v -0.8 -1.19209e-07 0
v -0.6 -0.4 0
v -0.6 -0.2 0
v -0.2 -0.6 0
v -0.2 -0.4 0
v 0.2 -0.6 0
v 0.2 -0.4 0
v 0.4 -0.4 0
v 0.4 -0.2 0
v 0.6 -0.6 0
v 0.6 -0.4 0
v 0.6 -0.2 0
v 1 -0.6 0
v 1 -0.4 0
v 1.2 -0.6 0
v 1.2 -0.4 0
v -1.9 -0.2 -0.0999999
v -1.9 0.6 -0.0999999
v -1.7 -0.2 -0.0999999
v -1.7 0.6 -0.0999999
v -0.2 -0.6 -0.2
v -0.2 -0.4 -0.2
v 2.38419e-07 -0.8 -0.2
v 2.38419e-07 -0.6 -0.2
v 0.2 -0.8 -0.2
v 0.2 -0.4 -0.2
v -2 -1 -0.8
v -2 -0.2 -0.8
v -1.2 -0.2 -0.8
v -1.2 0.2 -0.8
v -0.6 -1.19209e-07 -0.8
v -0.6 0.2 -0.8
v -0.4 -1 -0.8
v -0.4 -0.2 -0.8
v -0.4 -1.19209e-07 -0.8
v 0.4 -1 -0.8
v 0.4 -0.2 -0.8
v 0.4 0.6 -0.8
v 0.8 0.2 -0.8
v 0.8 0.6 -0.8
v 1.6 -1 -0.8
v 1.6 0.2 -0.8
v -0.4 -1 -2
v -0.4 -0.2 -2
v -0.4 -0.1 -2
v -0.3 -0.6 -2
v -0.3 -0.5 -2
v -0.3 -0.2 -2
v -0.3 -0.1 -2
v -0.0999999 -0.8 -2
v -0.0999999 -0.7 -2
v -0.0999999 -0.6 -2
v -0.0999999 -0.5 -2
v -0.0999999 -0.4 -2
v -0.0999999 -0.3 -2
v 2.38419e-07 -0.9 -2
v 2.38419e-07 -0.8 -2
v 2.38419e-07 -0.4 -2
v 2.38419e-07 -0.3 -2
v 2.38419e-07 -0.2 -2
v 2.38419e-07 -0.1 -2
v 0.1 -0.9 -2
v 0.1 -0.7 -2
v 0.1 -0.2 -2
v 0.1 -0.1 -2
v 0.2 -0.5 -2
v 0.2 -0.4 -2
v 0.3 -0.5 -2
v 0.3 -0.4 -2
v 0.3 -0.2 -2
v 0.3 -0.1 -2
v 0.4 -1 -2
v 0.4 -0.2 -2
v 0.4 -0.1 -2
v -0.3 -0.6 -2.1
v -0.3 -0.5 -2.1
v -0.0999999 -0.8 -2.1
v -0.0999999 -0.7 -2.1
v -0.0999999 -0.6 -2.1
v -0.0999999 -0.5 -2.1
v -0.0999999 -0.4 -2.1
v -0.0999999 -0.3 -2.1
v 2.38419e-07 -0.8 -2.1
v 2.38419e-07 -0.4 -2.1
v 2.38419e-07 -0.3 -2.1
v 0.1 -0.8 -2.1
v 0.1 -0.7 -2.1
v 0.2 -0.5 -2.1
v 0.2 -0.4 -2.1
v 0.3 -0.5 -2.1
v 0.3 -0.4 -2.1
v 2.38419e-07 -0.9 -2.2
v 2.38419e-07 -0.8 -2.2
v 0.1 -0.9 -2.2
v 0.1 -0.8 -2.2
v -0.4 -1 2
v 0.4 -1 2
v -2 -1 0.8
v -0.4 -1 0.8
v 0.4 -1 0.8
v 1.6 -1 0.8
v 0.8 -1 0.4
v 1 -1 0.4
v 0.8 -1 0.2
v 1 -1 0.2
v -2 -1 -0.8
v -0.4 -1 -0.8
v 0.4 -1 -0.8
v 1.6 -1 -0.8
v -0.4 -1 -2
v 0.4 -1 -2
v -0.0999999 -0.9 2.1
v 0.1 -0.9 2.1
v -0.0999999 -0.9 2
v 0.1 -0.9 2
v 2.38419e-07 -0.9 -2
v 0.1 -0.9 -2
v 2.38419e-07 -0.9 -2.2
v 0.1 -0.9 -2.2
v 0.8 -0.8 0.4
v 1 -0.8 0.4
v 0.8 -0.8 0.2
v 1 -0.8 0.2
v -0.0999999 -0.8 -2
v 2.38419e-07 -0.8 -2
v -0.0999999 -0.8 -2.1
v 2.38419e-07 -0.8 -2.1
v -0.3 -0.7 2.1
v -0.2 -0.7 2.1
v 0.2 -0.7 2.1
v 0.3 -0.7 2.1
v -0.3 -0.7 2
v -0.2 -0.7 2
v 0.2 -0.7 2
v 0.3 -0.7 2
v 0.4 -0.6 0.2
v 0.6 -0.6 0.2
v 0.4 -0.6 0
v 0.6 -0.6 0
v -0.3 -0.6 -2
v -0.0999999 -0.6 -2
v -0.3 -0.6 -2.1
v -0.0999999 -0.6 -2.1
v 2.38419e-07 -0.5 2.1
v 0.1 -0.5 2.1
v 2.38419e-07 -0.5 2
v 0.1 -0.5 2
v 0.2 -0.5 -2
v 0.3 -0.5 -2
v 0.2 -0.5 -2.1
v 0.3 -0.5 -2.1
v -0.4 -0.4 0.4
v -0.2 -0.4 0.4
v 0.6 -0.4 0.4
v 0.8 -0.4 0.4
v -0.4 -0.4 0.2
v -0.2 -0.4 0.2
v 0.8 -0.4 0.2
v 1 -0.4 0.2
v -0.6 -0.4 0
v -0.2 -0.4 0
v 0.2 -0.4 0
v 0.4 -0.4 0
v 0.6 -0.4 0
v 0.8 -0.4 0
v 1 -0.4 0
v 1.2 -0.4 0
v -0.6 -0.4 -0.2
v -0.4 -0.4 -0.2
v -0.2 -0.4 -0.2
v 0.2 -0.4 -0.2
v 0.4 -0.4 -0.2
v 0.6 -0.4 -0.2
v 0.8 -0.4 -0.2
v 1 -0.4 -0.2
v 1.2 -0.4 -0.2
v -0.4 -0.4 -0.4
v 0.2 -0.4 -0.4
v -0.0999999 -0.4 -2
v 2.38419e-07 -0.4 -2
v -0.0999999 -0.4 -2.1
v 2.38419e-07 -0.4 -2.1
v -0.8 -0.2 0
v -0.6 -0.2 0
v 0.4 -0.2 0
v 0.6 -0.2 0
v -0.8 -0.2 -0.2
v -0.6 -0.2 -0.2
v 0.4 -0.2 -0.2
v 0.6 -0.2 -0.2
v -1 -1.19209e-07 0
v -0.8 -1.19209e-07 0
v -1 -1.19209e-07 -0.2
v -0.8 -1.19209e-07 -0.2
v 0.4 -0.8 0.2
v 1 -0.8 0.2
v 0.4 -0.8 0
v 0.6 -0.8 0
v 0.8 -0.8 0
v 1 -0.8 0
v 2.38419e-07 -0.8 -0.2
v 0.2 -0.8 -0.2
v 0.6 -0.8 -0.2
v 0.8 -0.8 -0.2
v 2.38419e-07 -0.8 -0.4
v 0.2 -0.8 -0.4
v 2.38419e-07 -0.8 -2.1
v 0.1 -0.8 -2.1
v 2.38419e-07 -0.8 -2.2
v 0.1 -0.8 -2.2
v -0.0999999 -0.7 2.1
v 0.1 -0.7 2.1
v -0.0999999 -0.7 2
v 0.1 -0.7 2
v -0.0999999 -0.7 -2
v 0.1 -0.7 -2
v -0.0999999 -0.7 -2.1
v 0.1 -0.7 -2.1
v -0.3 -0.6 2.1
v -0.2 -0.6 2.1
v 0.2 -0.6 2.1
v 0.3 -0.6 2.1
v -0.3 -0.6 2
v -0.2 -0.6 2
v 0.2 -0.6 2
v 0.3 -0.6 2
v -0.4 -0.6 0.4
v -0.2 -0.6 0.4
v 0.6 -0.6 0.4
v 0.8 -0.6 0.4
v -0.4 -0.6 0.2
v -0.2 -0.6 0.2
v 0.6 -0.6 0.2
v 0.8 -0.6 0.2
v -1 -0.6 0
v -0.2 -0.6 0
v 0.2 -0.6 0
v 0.6 -0.6 0
v 1 -0.6 0
v 1.2 -0.6 0
v -1 -0.6 -0.2
v -0.4 -0.6 -0.2
v -0.2 -0.6 -0.2
v 2.38419e-07 -0.6 -0.2
v 0.2 -0.6 -0.2
v 0.6 -0.6 -0.2
v 1 -0.6 -0.2
v 1.2 -0.6 -0.2
v -0.4 -0.6 -0.4
v 2.38419e-07 -0.6 -0.4
v -0.3 -0.5 -2
v -0.0999999 -0.5 -2
v -0.3 -0.5 -2.1
v -0.0999999 -0.5 -2.1
v 2.38419e-07 -0.4 2.1
v 0.1 -0.4 2.1
v 2.38419e-07 -0.4 2
v 0.1 -0.4 2
v 0.2 -0.4 -2
v 0.3 -0.4 -2
v 0.2 -0.4 -2.1
v 0.3 -0.4 -2.1
v -0.0999999 -0.3 -2
v 2.38419e-07 -0.3 -2
v -0.0999999 -0.3 -2.1
v 2.38419e-07 -0.3 -2.1
v -0.3 -0.2 2
v -0.0999999 -0.2 2
v 2.38419e-07 -0.2 2
v 0.3 -0.2 2
v -0.4 -0.2 1.9
v -0.3 -0.2 1.9
v -0.0999999 -0.2 1.9
v 2.38419e-07 -0.2 1.9
v 0.3 -0.2 1.9
v 0.4 -0.2 1.9
v -2 -0.2 0.8
v -1.2 -0.2 0.8
v -0.4 -0.2 0.8
v 0.4 -0.2 0.8
v -1.9 -0.2 0.0999999
v -1.7 -0.2 0.0999999
v -1.9 -0.2 -0.0999999
v -1.7 -0.2 -0.0999999
v -2 -0.2 -0.8
v -1.2 -0.2 -0.8
v -0.4 -0.2 -0.8
v 0.4 -0.2 -0.8
v -0.4 -0.2 -1.9
v -0.3 -0.2 -1.9
v 2.38419e-07 -0.2 -1.9
v 0.1 -0.2 -1.9
v 0.3 -0.2 -1.9
v 0.4 -0.2 -1.9
v -0.3 -0.2 -2
v 2.38419e-07 -0.2 -2
v 0.1 -0.2 -2
v 0.3 -0.2 -2
v -0.4 -0.1 2
v -0.3 -0.1 2
v -0.0999999 -0.1 2
v 2.38419e-07 -0.1 2
v 0.3 -0.1 2
v 0.4 -0.1 2
v -0.4 -0.1 1.9
v -0.3 -0.1 1.9
v -0.0999999 -0.1 1.9
v 2.38419e-07 -0.1 1.9
v 0.3 -0.1 1.9
v 0.4 -0.1 1.9
v -0.4 -0.1 -1.9
v -0.3 -0.1 -1.9
v 2.38419e-07 -0.1 -1.9
v 0.1 -0.1 -1.9
v 0.3 -0.1 -1.9
v 0.4 -0.1 -1.9
v -0.4 -0.1 -2
v -0.3 -0.1 -2
v 2.38419e-07 -0.1 -2
v 0.1 -0.1 -2
v 0.3 -0.1 -2
v 0.4 -0.1 -2
v -0.6 -1.19209e-07 0.8
v -0.4 -1.19209e-07 0.8
v -0.6 -1.19209e-07 -0.8
v -0.4 -1.19209e-07 -0.8
v -1.2 0.2 0.8
v -0.6 0.2 0.8
v 0.8 0.2 0.8
v 1.6 0.2 0.8
v 0.8 0.2 0.6
v 0.8 0.2 -0.6
v -1.2 0.2 -0.8
v -0.6 0.2 -0.8
v 0.8 0.2 -0.8
v 1.6 0.2 -0.8
v 0.4 0.6 0.8
v 0.8 0.6 0.8
v -1.9 0.6 0.0999999
v -1.7 0.6 0.0999999
v -1.9 0.6 -0.0999999
v -1.7 0.6 -0.0999999
v 0.4 0.6 -0.8
v 0.8 0.6 -0.8

# faces
f 3/1/1 2/1/1 1/1/1
f 4/1/1 2/1/1 3/1/1
f 7/1/1 6/1/1 5/1/1
f 8/1/1 6/1/1 7/1/1
f 11/1/1 10/1/1 9/1/1
f 12/1/1 10/1/1 11/1/1
f 15/1/1 14/1/1 13/1/1
f 16/1/1 14/1/1 15/1/1
f 19/1/1 18/1/1 17/1/1
f 20/1/1 18/1/1 19/1/1
f 25/1/1 22/1/1 21/1/1
f 26/1/1 22/1/1 25/1/1
f 27/5/1 26/5/1 25/5/1
f 27/1/1 22/1/1 26/1/1
f 28/1/1 22/1/1 27/1/1
f 29/1/1 24/1/1 23/1/1
f 30/1/1 24/1/1 29/1/1
f 31/1/1 24/1/1 30/1/1
f 32/5/1 27/5/1 25/5/1
f 33/5/1 27/5/1 32/5/1
f 34/5/1 31/5/1 30/5/1
f 35/5/1 31/5/1 34/5/1
f 38/3/1 37/3/1 36/3/1
f 39/3/1 37/3/1 38/3/1
f 42/3/1 41/3/1 40/3/1
f 43/3/1 41/3/1 42/3/1
f 48/1/1 45/1/1 44/1/1
f 49/1/1 45/1/1 48/1/1
f 50/1/1 47/1/1 46/1/1
f 51/1/1 47/1/1 50/1/1
f 56/3/1 53/3/1 52/3/1
f 57/3/1 53/3/1 56/3/1
f 58/3/1 55/3/1 54/3/1
f 59/3/1 55/3/1 58/3/1
f 62/3/1 61/3/1 60/3/1
f 63/3/1 61/3/1 62/3/1
f 66/5/1 65/5/1 64/5/1
f 67/5/1 65/5/1 66/5/1
f 70/3/1 69/3/1 68/3/1
f 71/3/1 69/3/1 70/3/1
f 72/3/1 69/3/1 71/3/1
f 75/3/1 74/3/1 73/3/1
f 76/3/1 74/3/1 75/3/1
f 79/5/1 78/5/1 77/5/1
f 80/5/1 78/5/1 79/5/1
f 85/3/1 84/3/1 83/3/1
f 86/3/1 84/3/1 85/3/1
f 89/1/1 82/1/1 81/1/1
f 90/1/1 82/1/1 89/1/1
f 91/3/1 88/3/1 87/3/1
f 92/3/1 88/3/1 91/3/1
f 97/5/1 94/5/1 93/5/1
f 98/5/1 94/5/1 97/5/1
f 99/5/1 96/5/1 95/5/1
f 100/5/1 96/5/1 99/5/1
f 103/1/1 102/1/1 101/1/1
f 104/1/1 102/1/1 103/1/1
f 107/1/1 106/1/1 105/1/1
f 108/1/1 106/1/1 107/1/1
f 113/1/1 112/1/1 111/1/1
f 114/1/1 112/1/1 113/1/1
f 115/1/1 110/1/1 109/1/1
f 116/1/1 110/1/1 115/1/1
f 119/1/1 118/1/1 117/1/1
f 120/1/1 118/1/1 119/1/1
f 122/1/1 121/1/1 120/1/1
f 123/1/1 121/1/1 122/1/1
f 126/1/1 125/1/1 124/1/1
f 127/1/1 125/1/1 126/1/1
f 128/1/2 129/1/2 130/1/2
f 130/1/2 129/1/2 131/1/2
f 132/1/2 133/1/2 134/1/2
f 134/1/2 133/1/2 135/1/2
f 136/1/2 137/1/2 138/1/2
f 138/1/2 137/1/2 139/1/2
f 140/1/2 141/1/2 144/1/2
f 144/1/2 141/1/2 145/1/2
f 142/1/2 143/1/2 146/1/2
f 146/1/2 143/1/2 147/1/2
f 148/1/2 149/1/2 150/1/2
f 150/1/2 149/1/2 151/1/2
f 152/5/2 153/5/2 156/5/2
f 156/5/2 153/5/2 157/5/2
f 154/5/2 155/5/2 158/5/2
f 158/5/2 155/5/2 159/5/2
f 160/3/2 161/3/2 162/3/2
f 162/3/2 161/3/2 163/3/2
f 164/3/2 165/3/2 166/3/2
f 166/3/2 165/3/2 167/3/2
f 168/1/2 169/1/2 170/1/2
f 170/1/2 169/1/2 171/1/2
f 172/3/2 173/3/2 174/3/2
f 174/3/2 173/3/2 175/3/2
f 176/5/2 177/5/2 178/5/2
f 178/5/2 177/5/2 179/5/2
f 182/3/2 183/3/2 184/3/2
f 184/3/2 183/3/2 185/3/2
f 180/3/2 181/3/2 186/3/2
f 186/3/2 181/3/2 187/3/2
f 182/3/2 184/3/2 188/3/2
f 188/3/2 184/3/2 189/3/2
f 190/3/2 191/3/2 192/3/2
f 192/3/2 191/3/2 193/3/2
f 194/5/2 195/5/2 196/5/2
f 196/5/2 195/5/2 197/5/2
f 198/1/2 199/1/2 200/1/2
f 200/1/2 199/1/2 201/1/2
f 202/3/2 203/3/2 204/3/2
f 204/3/2 203/3/2 205/3/2
f 206/3/2 207/3/2 208/3/2
f 208/3/2 207/3/2 209/3/2
f 214/1/2 215/1/2 216/1/2
f 216/1/2 215/1/2 217/1/2
f 210/1/2 211/1/2 220/1/2
f 220/1/2 211/1/2 221/1/2
f 220/5/2 221/5/2 222/5/2
f 221/1/2 211/1/2 222/1/2
f 222/1/2 211/1/2 223/1/2
f 218/1/2 219/1/2 224/1/2
f 224/1/2 219/1/2 225/1/2
f 212/1/2 213/1/2 226/1/2
f 226/1/2 213/1/2 227/1/2
f 227/1/2 213/1/2 228/1/2
f 220/5/2 222/5/2 229/5/2
f 229/5/2 222/5/2 230/5/2
f 227/5/2 228/5/2 231/5/2
f 231/5/2 228/5/2 232/5/2
f 233/1/2 234/1/2 237/1/2
f 237/1/2 234/1/2 238/1/2
f 235/1/2 236/1/2 239/1/2
f 236/1/2 237/1/2 239/1/2
f 239/1/2 237/1/2 240/1/2
f 241/1/2 242/1/2 243/1/2
f 243/1/2 242/1/2 244/1/2
f 245/1/2 246/1/2 249/1/2
f 246/4/2 247/4/2 249/4/2
f 247/1/2 248/1/2 250/1/2
f 249/4/2 247/4/2 250/4/2
f 245/1/2 249/1/2 251/1/2
f 249/1/2 250/1/2 251/1/2
f 250/1/2 248/1/2 252/1/2
f 251/1/2 250/1/2 252/1/2
f 253/1/2 254/1/2 255/1/2
f 255/1/2 254/1/2 256/1/2
f 257/1/2 258/1/2 259/1/2
f 259/1/2 258/1/2 260/1/2
f 257/1/2 259/1/2 261/1/2
f 261/1/2 259/1/2 262/1/2
f 259/2/2 260/2/2 263/2/2
f 262/1/2 259/1/2 263/1/2
f 260/1/2 258/1/2 264/1/2
f 263/2/2 260/2/2 264/2/2
f 264/1/2 258/1/2 265/1/2
f 265/1/2 258/1/2 266/1/2
f 261/5/2 262/5/2 267/5/2
f 257/1/2 261/1/2 267/1/2
f 262/6/2 263/6/2 268/6/2
f 267/5/2 262/5/2 268/5/2
f 263/1/2 264/1/2 269/1/2
f 268/6/2 263/6/2 269/6/2
f 264/6/2 265/6/2 270/6/2
f 269/1/2 264/1/2 270/1/2
f 265/5/2 266/5/2 271/5/2
f 270/6/2 265/6/2 271/6/2
f 266/1/2 258/1/2 272/1/2
f 271/5/2 266/5/2 272/5/2
f 257/1/2 267/1/2 273/1/2
f 270/1/2 271/1/2 273/1/2
f 271/1/2 272/1/2 273/1/2
f 268/1/2 269/1/2 273/1/2
f 267/1/2 268/1/2 273/1/2
f 269/1/2 270/1/2 273/1/2
f 272/1/2 258/1/2 274/1/2
f 273/1/2 272/1/2 274/1/2
f 277/3/3 276/3/3 275/3/3
f 278/3/3 276/3/3 277/3/3
f 283/3/3 280/3/3 279/3/3
f 284/3/3 280/3/3 283/3/3
f 285/3/3 282/3/3 281/3/3
f 286/3/3 282/3/3 285/3/3
f 289/3/3 288/3/3 287/3/3
f 290/3/3 288/3/3 289/3/3
f 294/1/3 292/1/3 291/1/3
f 295/1/3 292/1/3 294/1/3
f 296/5/3 293/5/3 292/5/3
f 296/1/3 292/1/3 295/1/3
f 297/5/3 293/5/3 296/5/3
f 298/5/3 293/5/3 297/5/3
f 299/1/3 294/1/3 291/1/3
f 300/1/3 297/1/3 296/1/3
f 300/1/3 296/1/3 295/1/3
f 301/1/3 299/1/3 291/1/3
f 301/1/3 300/1/3 299/1/3
f 302/1/3 300/1/3 301/1/3
f 303/1/3 297/1/3 300/1/3
f 303/1/3 300/1/3 302/1/3
f 304/1/3 297/1/3 303/1/3
f 306/1/3 303/1/3 302/1/3
f 307/1/3 303/1/3 306/1/3
f 308/5/3 305/5/3 304/5/3
f 308/1/3 303/1/3 307/1/3
f 308/5/3 304/5/3 303/5/3
f 309/5/3 305/5/3 308/5/3
f 310/5/3 305/5/3 309/5/3
f 311/1/3 301/1/3 291/1/3
f 312/1/3 306/1/3 302/1/3
f 313/1/3 306/1/3 312/1/3
f 314/1/3 309/1/3 308/1/3
f 314/1/3 308/1/3 307/1/3
f 315/1/3 313/1/3 312/1/3
f 315/1/3 314/1/3 313/1/3
f 315/1/3 312/1/3 311/1/3
f 316/1/3 314/1/3 315/1/3
f 317/1/3 315/1/3 311/1/3
f 318/1/3 314/1/3 316/1/3
f 319/1/3 309/1/3 314/1/3
f 319/1/3 314/1/3 318/1/3
f 320/1/3 309/1/3 319/1/3
f 322/1/3 318/1/3 317/1/3
f 322/1/3 311/1/3 291/1/3
f 322/1/3 317/1/3 311/1/3
f 322/1/3 319/1/3 318/1/3
f 323/5/3 321/5/3 320/5/3
f 323/1/3 319/1/3 322/1/3
f 323/5/3 320/5/3 319/5/3
f 324/5/3 321/5/3 323/5/3
f 327/1/3 326/1/3 325/1/3
f 329/1/3 328/1/3 327/1/3
f 330/1/3 328/1/3 329/1/3
f 331/1/3 327/1/3 325/1/3
f 331/1/3 329/1/3 327/1/3
f 332/1/3 329/1/3 331/1/3
f 333/1/3 329/1/3 332/1/3
f 337/1/3 335/1/3 334/1/3
f 337/1/3 336/1/3 335/1/3
f 338/1/3 336/1/3 337/1/3
f 339/1/3 337/1/3 334/1/3
f 340/1/3 337/1/3 339/1/3
f 343/1/3 342/1/3 341/1/3
f 344/1/3 342/1/3 343/1/3
f 347/1/3 346/1/3 345/1/3
f 348/1/3 346/1/3 347/1/3
f 351/1/3 350/1/3 349/1/3
f 352/1/3 350/1/3 351/1/3
f 355/1/3 354/1/3 353/1/3
f 356/1/3 354/1/3 355/1/3
f 359/1/3 358/1/3 357/1/3
f 360/1/3 358/1/3 359/1/3
f 363/1/3 362/1/3 361/1/3
f 364/1/3 362/1/3 363/1/3
f 365/1/3 363/1/3 361/1/3
f 366/1/3 363/1/3 365/1/3
f 367/1/3 365/1/3 361/1/3
f 368/1/3 365/1/3 367/1/3
f 371/1/3 370/1/3 369/1/3
f 374/1/3 371/1/3 369/1/3
f 374/1/3 372/1/3 371/1/3
f 375/1/3 372/1/3 374/1/3
f 376/1/3 372/1/3 375/1/3
f 377/1/3 374/1/3 373/1/3
f 377/1/3 375/1/3 374/1/3
f 378/1/3 375/1/3 377/1/3
f 381/1/3 380/1/3 379/1/3
f 382/1/3 380/1/3 381/1/3
f 386/1/3 384/1/3 383/1/3
f 387/1/3 386/1/3 385/1/3
f 388/1/3 384/1/3 386/1/3
f 388/1/3 386/1/3 387/1/3
f 391/5/3 390/5/3 389/5/3
f 392/5/3 390/5/3 391/5/3
f 395/5/3 394/5/3 393/5/3
f 396/5/3 394/5/3 395/5/3
f 399/5/3 398/5/3 397/5/3
f 400/5/3 398/5/3 399/5/3
f 401/5/4 402/5/4 403/5/4
f 403/5/4 402/5/4 404/5/4
f 405/5/4 406/5/4 407/5/4
f 407/5/4 406/5/4 408/5/4
f 409/5/4 410/5/4 411/5/4
f 411/5/4 410/5/4 412/5/4
f 413/1/4 414/1/4 415/1/4
f 415/1/4 414/1/4 416/1/4
f 417/1/4 418/1/4 421/1/4
f 421/1/4 418/1/4 422/1/4
f 419/1/4 420/1/4 423/1/4
f 423/1/4 420/1/4 424/1/4
f 425/1/4 426/1/4 427/1/4
f 425/1/4 427/1/4 428/1/4
f 425/1/4 428/1/4 430/1/4
f 428/1/4 429/1/4 430/1/4
f 430/1/4 429/1/4 431/1/4
f 432/1/4 433/1/4 434/1/4
f 434/1/4 433/1/4 435/1/4
f 432/1/4 434/1/4 436/1/4
f 436/1/4 434/1/4 437/1/4
f 432/1/4 436/1/4 438/1/4
f 438/1/4 436/1/4 439/1/4
f 440/1/4 441/1/4 442/1/4
f 440/1/4 442/1/4 444/1/4
f 442/1/4 443/1/4 444/1/4
f 444/1/4 443/1/4 445/1/4
f 445/1/4 443/1/4 446/1/4
f 447/1/4 448/1/4 449/1/4
f 449/1/4 448/1/4 450/1/4
f 451/1/4 452/1/4 453/1/4
f 453/1/4 452/1/4 454/1/4
f 455/1/4 456/1/4 458/1/4
f 457/1/4 458/1/4 459/1/4
f 458/1/4 456/1/4 460/1/4
f 459/1/4 458/1/4 460/1/4
f 461/1/4 462/1/4 463/1/4
f 463/1/4 464/1/4 465/1/4
f 465/1/4 464/1/4 466/1/4
f 461/1/4 463/1/4 467/1/4
f 463/1/4 465/1/4 467/1/4
f 467/1/4 465/1/4 468/1/4
f 468/1/4 465/1/4 469/1/4
f 470/1/4 471/1/4 473/1/4
f 471/1/4 472/1/4 473/1/4
f 473/1/4 472/1/4 474/1/4
f 470/1/4 473/1/4 475/1/4
f 475/1/4 473/1/4 476/1/4
f 477/1/4 478/1/4 480/1/4
f 480/1/4 478/1/4 481/1/4
f 478/5/4 479/5/4 482/5/4
f 481/1/4 478/1/4 482/1/4
f 482/5/4 479/5/4 483/5/4
f 477/1/4 480/1/4 484/1/4
f 484/1/4 480/1/4 485/1/4
f 485/1/4 480/1/4 486/1/4
f 481/1/4 482/1/4 487/1/4
f 487/1/4 482/1/4 488/1/4
f 488/1/4 482/1/4 489/1/4
f 477/1/4 484/1/4 490/1/4
f 490/1/4 484/1/4 491/1/4
f 485/1/4 486/1/4 492/1/4
f 487/1/4 488/1/4 492/1/4
f 486/1/4 487/1/4 492/1/4
f 489/1/4 482/1/4 493/1/4
f 493/1/4 482/1/4 494/1/4
f 477/1/4 490/1/4 496/1/4
f 485/1/4 492/1/4 497/1/4
f 493/1/4 494/1/4 497/1/4
f 492/1/4 493/1/4 497/1/4
f 494/5/4 495/5/4 498/5/4
f 497/1/4 494/1/4 498/1/4
f 498/5/4 495/5/4 499/5/4
f 496/1/4 497/1/4 500/1/4
f 497/1/4 498/1/4 500/1/4
f 500/1/4 498/1/4 501/1/4
f 496/1/4 500/1/4 502/1/4
f 501/1/4 498/1/4 503/1/4
f 503/1/4 498/1/4 504/1/4
f 477/1/4 496/1/4 506/1/4
f 496/1/4 502/1/4 506/1/4
f 503/1/4 504/1/4 506/1/4
f 502/1/4 503/1/4 506/1/4
f 504/5/4 505/5/4 507/5/4
f 506/1/4 504/1/4 507/1/4
f 507/5/4 505/5/4 508/5/4
f 509/3/4 510/3/4 513/3/4
f 513/3/4 510/3/4 514/3/4
f 511/3/4 512/3/4 517/3/4
f 515/3/4 516/3/4 518/3/4
f 518/3/4 516/3/4 519/3/4
f 517/3/4 512/3/4 520/3/4
f 520/3/4 512/3/4 521/3/4
f 522/3/4 523/3/4 524/3/4
f 524/3/4 523/3/4 525/3/4
f 526/3/4 527/3/4 528/3/4
f 528/3/4 527/3/4 529/3/4
f 533/1/5 531/1/5 530/1/5
f 534/1/5 531/1/5 533/1/5
f 536/1/5 533/1/5 532/1/5
f 536/1/5 535/1/5 534/1/5
f 536/1/5 534/1/5 533/1/5
f 537/1/5 535/1/5 536/1/5
f 538/1/5 536/1/5 532/1/5
f 539/1/5 535/1/5 537/1/5
f 540/1/5 538/1/5 532/1/5
f 540/1/5 539/1/5 538/1/5
f 541/1/5 539/1/5 540/1/5
f 542/1/5 539/1/5 541/1/5
f 543/1/5 535/1/5 539/1/5
f 543/1/5 539/1/5 542/1/5
f 544/1/5 542/1/5 541/1/5
f 545/1/5 542/1/5 544/1/5
f 548/3/5 547/3/5 546/3/5
f 549/3/5 547/3/5 548/3/5
f 552/3/5 551/3/5 550/3/5
f 553/3/5 551/3/5 552/3/5
f 556/1/5 555/1/5 554/1/5
f 557/1/5 555/1/5 556/1/5
f 560/3/5 559/3/5 558/3/5
f 561/3/5 559/3/5 560/3/5
f 566/3/5 563/3/5 562/3/5
f 567/3/5 563/3/5 566/3/5
f 568/3/5 565/3/5 564/3/5
f 569/3/5 565/3/5 568/3/5
f 572/1/5 571/1/5 570/1/5
f 573/1/5 571/1/5 572/1/5
f 576/3/5 575/3/5 574/3/5
f 577/3/5 575/3/5 576/3/5
f 580/3/5 579/3/5 578/3/5
f 581/3/5 579/3/5 580/3/5
f 584/3/5 583/3/5 582/3/5
f 585/3/5 583/3/5 584/3/5
f 590/1/5 587/1/5 586/1/5
f 591/1/5 587/1/5 590/1/5
f 592/1/5 589/1/5 588/1/5
f 598/1/5 593/1/5 592/1/5
f 598/1/5 592/1/5 588/1/5
f 599/1/5 593/1/5 598/1/5
f 600/1/5 593/1/5 599/1/5
f 602/1/5 595/1/5 594/1/5
f 603/1/5 595/1/5 602/1/5
f 604/1/5 595/1/5 603/1/5
f 605/1/5 597/1/5 596/1/5
f 606/1/5 597/1/5 605/1/5
f 607/1/5 599/1/5 598/1/5
f 608/1/5 599/1/5 607/1/5
f 609/1/5 601/1/5 600/1/5
f 610/1/5 601/1/5 609/1/5
f 611/1/5 604/1/5 603/1/5
f 611/1/5 605/1/5 604/1/5
f 612/1/5 605/1/5 611/1/5
f 615/3/5 614/3/5 613/3/5
f 616/3/5 614/3/5 615/3/5
f 621/1/5 618/1/5 617/1/5
f 622/1/5 618/1/5 621/1/5
f 623/1/5 620/1/5 619/1/5
f 624/1/5 620/1/5 623/1/5
f 627/1/5 626/1/5 625/1/5
f 628/1/5 626/1/5 627/1/5
f 629/1/6 630/1/6 631/1/6
f 631/1/6 630/1/6 632/1/6
f 632/1/6 630/1/6 633/1/6
f 633/1/6 630/1/6 634/1/6
f 632/1/6 633/1/6 637/1/6
f 637/1/6 633/1/6 638/1/6
f 635/1/6 636/1/6 639/1/6
f 639/1/6 636/1/6 640/1/6
f 641/3/6 642/3/6 643/3/6
f 643/3/6 642/3/6 644/3/6
f 645/3/6 646/3/6 647/3/6
f 647/3/6 646/3/6 648/3/6
f 649/3/6 650/3/6 651/3/6
f 651/3/6 650/3/6 652/3/6
f 653/3/6 654/3/6 657/3/6
f 657/3/6 654/3/6 658/3/6
f 655/3/6 656/3/6 659/3/6
f 659/3/6 656/3/6 660/3/6
f 661/1/6 662/1/6 665/1/6
f 665/1/6 662/1/6 666/1/6
f 663/1/6 664/1/6 667/1/6
f 667/1/6 664/1/6 668/1/6
f 669/1/6 670/1/6 675/1/6
f 675/1/6 670/1/6 676/1/6
f 676/1/6 670/1/6 677/1/6
f 671/1/6 672/1/6 679/1/6
f 679/1/6 672/1/6 680/1/6
f 673/1/6 674/1/6 681/1/6
f 681/1/6 674/1/6 682/1/6
f 677/1/6 678/1/6 683/1/6
f 676/1/6 677/1/6 683/1/6
f 683/1/6 678/1/6 684/1/6
f 685/3/6 686/3/6 687/3/6
f 687/3/6 686/3/6 688/3/6
f 689/3/6 690/3/6 691/3/6
f 691/3/6 690/3/6 692/3/6
f 693/3/6 694/3/6 695/3/6
f 695/3/6 694/3/6 696/3/6
f 697/3/6 698/3/6 699/3/6
f 699/3/6 698/3/6 700/3/6
f 701/1/6 702/1/6 706/1/6
f 706/1/6 702/1/6 707/1/6
f 703/1/6 704/1/6 708/1/6
f 708/1/6 704/1/6 709/1/6
f 706/1/6 707/1/6 713/1/6
f 705/1/6 706/1/6 713/1/6
f 709/1/6 710/1/6 713/1/6
f 708/1/6 709/1/6 713/1/6
f 707/1/6 708/1/6 713/1/6
f 713/1/6 710/1/6 714/1/6
f 711/1/6 712/1/6 715/1/6
f 715/1/6 712/1/6 716/1/6
f 711/1/6 715/1/6 717/1/6
f 716/1/6 712/1/6 718/1/6
f 711/1/6 717/1/6 719/1/6
f 717/1/6 718/1/6 719/1/6
f 718/1/6 712/1/6 720/1/6
f 719/1/6 718/1/6 720/1/6
f 713/1/6 714/1/6 721/1/6
f 721/1/6 714/1/6 722/1/6
f 721/1/6 722/1/6 723/1/6
f 723/1/6 722/1/6 724/1/6
f 724/1/6 722/1/6 725/1/6
f 725/1/6 722/1/6 726/1/6
f 726/1/6 722/1/6 727/1/6
f 727/1/6 722/1/6 728/1/6
f 724/1/6 725/1/6 729/1/6
f 729/1/6 725/1/6 730/1/6
f 726/1/6 727/1/6 731/1/6
f 731/1/6 727/1/6 732/1/6
f 733/5/6 734/5/6 739/5/6
f 739/5/6 734/5/6 740/5/6
f 735/5/6 736/5/6 741/5/6
f 741/5/6 736/5/6 742/5/6
f 737/5/6 738/5/6 743/5/6
f 743/5/6 738/5/6 744/5/6
f 745/5/6 746/5/6 751/5/6
f 751/5/6 746/5/6 752/5/6
f 747/5/6 748/5/6 753/5/6
f 753/5/6 748/5/6 754/5/6
f 749/5/6 750/5/6 755/5/6
f 755/5/6 750/5/6 756/5/6
f 757/1/6 758/1/6 759/1/6
f 759/1/6 758/1/6 760/1/6
f 763/1/6 764/1/6 765/1/6
f 765/1/6 764/1/6 766/1/6
f 761/1/6 762/1/6 767/1/6
f 767/1/6 762/1/6 768/1/6
f 766/1/6 764/1/6 769/1/6
f 769/1/6 764/1/6 770/1/6
f 773/1/6 774/1/6 775/1/6
f 775/1/6 774/1/6 776/1/6
f 771/1/6 772/1/6 777/1/6
f 777/1/6 772/1/6 778/1/6
