# MagicaVoxel @ Ephtracy

# group
o 

# material
mtllib Koskogun.mtl
usemtl palette

# normals
vn -1 0 0
vn 1 0 0
vn 0 0 1
vn 0 0 -1
vn 0 -1 0
vn 0 1 0

# texcoords
vt 0.376953 0.5
vt 0.400391 0.5
vt 0.408203 0.5
vt 0.423828 0.5
vt 0.498047 0.5
vt 0.541016 0.5
vt 0.587891 0.5
vt 0.994141 0.5

# verts
v -0.6 0.5 -0.3
v -0.6 0.5 -0.5
v -0.6 0.7 -0.3
v -0.6 0.7 -0.5
v -0.4 0.3 -0.3
v -0.4 0.3 -0.5
v -0.4 0.4 -0.2
v -0.4 0.4 -0.3
v -0.4 0.4 -0.5
v -0.4 0.4 -0.6
v -0.4 0.5 -0.1
v -0.4 0.5 -0.2
v -0.4 0.5 -0.3
v -0.4 0.5 -0.5
v -0.4 0.5 -0.6
v -0.4 0.5 -0.7
v -0.4 0.7 -0.1
v -0.4 0.7 -0.2
v -0.4 0.7 -0.3
v -0.4 0.7 -0.5
v -0.4 0.7 -0.6
v -0.4 0.7 -0.7
v -0.4 0.8 -0.2
v -0.4 0.8 -0.3
v -0.4 0.8 -0.5
v -0.4 0.8 -0.6
v -0.4 0.9 -0.3
v -0.4 0.9 -0.5
v 0.2 0.4 -0.3
v 0.2 0.4 -0.5
v 0.2 0.5 -0.3
v 0.2 0.5 -0.5
v 0.3 0.2 -0.3
v 0.3 0.2 -0.5
v 0.3 0.4 -0.3
v 0.3 0.4 -0.5
v 0.4 0.7 -0.3
v 0.4 0.7 -0.5
v 0.4 0.9 -0.3
v 0.4 0.9 -0.5
v 0.5 7.45058e-09 -0.3
v 0.5 7.45058e-09 -0.5
v 0.5 0.2 -0.3
v 0.5 0.2 -0.5
v 0.5 0.4 -0.3
v 0.5 0.4 -0.5
v 0.5 0.5 -0.3
v 0.5 0.5 -0.5
v 0.5 0.9 -0.3
v 0.5 0.9 -0.5
v 0.5 1 -0.3
v 0.5 1 -0.5
v 0.6 0.3 -0.3
v 0.6 0.3 -0.5
v 0.6 0.4 -0.3
v 0.6 0.4 -0.5
v -0.3 0.3 -0.3
v -0.3 0.3 -0.5
v -0.3 0.4 -0.2
v -0.3 0.4 -0.3
v -0.3 0.4 -0.5
v -0.3 0.4 -0.6
v -0.3 0.5 -0.1
v -0.3 0.5 -0.2
v -0.3 0.5 -0.3
v -0.3 0.5 -0.5
v -0.3 0.5 -0.6
v -0.3 0.5 -0.7
v -0.3 0.7 -0.1
v -0.3 0.7 -0.2
v -0.3 0.7 -0.3
v -0.3 0.7 -0.5
v -0.3 0.7 -0.6
v -0.3 0.7 -0.7
v -0.3 0.8 -0.2
v -0.3 0.8 -0.3
v -0.3 0.8 -0.5
v -0.3 0.8 -0.6
v -0.3 0.9 -0.3
v -0.3 0.9 -0.5
v -0.2 0.4 -0.3
v -0.2 0.4 -0.5
v -0.2 0.5 -0.2
v -0.2 0.5 -0.3
v -0.2 0.5 -0.5
v -0.2 0.5 -0.6
v -0.2 0.6 -0.3
v -0.2 0.6 -0.5
v -0.2 0.7 -0.2
v -0.2 0.7 -0.3
v -0.2 0.7 -0.5
v -0.2 0.7 -0.6
v -0.2 0.8 -0.3
v -0.2 0.8 -0.5
v 0.4 0.3 -0.3
v 0.4 0.3 -0.5
v 0.4 0.5 -0.3
v 0.4 0.5 -0.5
v 0.6 7.45058e-09 -0.3
v 0.6 7.45058e-09 -0.5
v 0.6 0.1 -0.3
v 0.6 0.1 -0.5
v 0.6 0.6 -0.3
v 0.6 0.6 -0.5
v 0.6 0.7 -0.3
v 0.6 0.7 -0.5
v 0.6 0.9 -0.3
v 0.6 0.9 -0.5
v 0.6 1 -0.3
v 0.6 1 -0.5
v 0.7 0.1 -0.3
v 0.7 0.1 -0.5
v 0.7 0.2 -0.3
v 0.7 0.2 -0.5
v 0.7 0.4 -0.3
v 0.7 0.4 -0.5
v 0.7 0.6 -0.3
v 0.7 0.6 -0.5
v 0.8 0.2 -0.3
v 0.8 0.2 -0.5
v 0.8 0.4 -0.3
v 0.8 0.4 -0.5
v -0.4 0.5 -0.1
v -0.4 0.7 -0.1
v -0.3 0.5 -0.1
v -0.3 0.7 -0.1
v -0.4 0.4 -0.2
v -0.4 0.5 -0.2
v -0.4 0.7 -0.2
v -0.4 0.8 -0.2
v -0.3 0.4 -0.2
v -0.3 0.5 -0.2
v -0.3 0.7 -0.2
v -0.3 0.8 -0.2
v -0.2 0.5 -0.2
v -0.2 0.7 -0.2
v -0.6 0.5 -0.3
v -0.6 0.7 -0.3
v -0.5 0.5 -0.3
v -0.5 0.7 -0.3
v -0.4 0.3 -0.3
v -0.4 0.4 -0.3
v -0.4 0.5 -0.3
v -0.4 0.7 -0.3
v -0.4 0.8 -0.3
v -0.4 0.9 -0.3
v -0.3 0.3 -0.3
v -0.3 0.4 -0.3
v -0.3 0.5 -0.3
v -0.3 0.7 -0.3
v -0.3 0.8 -0.3
v -0.3 0.9 -0.3
v -0.2 0.4 -0.3
v -0.2 0.5 -0.3
v -0.2 0.6 -0.3
v -0.2 0.7 -0.3
v -0.2 0.8 -0.3
v -0.1 0.6 -0.3
v -0.1 0.7 -0.3
v 0.1 0.6 -0.3
v 0.1 0.7 -0.3
v 0.2 0.4 -0.3
v 0.2 0.5 -0.3
v 0.2 0.6 -0.3
v 0.2 0.7 -0.3
v 0.3 0.2 -0.3
v 0.3 0.4 -0.3
v 0.3 0.5 -0.3
v 0.3 0.6 -0.3
v 0.3 0.7 -0.3
v 0.4 0.3 -0.3
v 0.4 0.5 -0.3
v 0.4 0.7 -0.3
v 0.4 0.9 -0.3
v 0.5 7.45058e-09 -0.3
v 0.5 0.2 -0.3
v 0.5 0.4 -0.3
v 0.5 0.5 -0.3
v 0.5 0.7 -0.3
v 0.5 0.9 -0.3
v 0.5 1 -0.3
v 0.6 7.45058e-09 -0.3
v 0.6 0.1 -0.3
v 0.6 0.2 -0.3
v 0.6 0.3 -0.3
v 0.6 0.4 -0.3
v 0.6 0.5 -0.3
v 0.6 0.6 -0.3
v 0.6 0.7 -0.3
v 0.6 0.9 -0.3
v 0.6 1 -0.3
v 0.7 0.1 -0.3
v 0.7 0.2 -0.3
v 0.7 0.4 -0.3
v 0.7 0.6 -0.3
v 0.8 0.2 -0.3
v 0.8 0.4 -0.3
v -0.6 0.5 -0.5
v -0.6 0.7 -0.5
v -0.5 0.5 -0.5
v -0.5 0.7 -0.5
v -0.4 0.3 -0.5
v -0.4 0.4 -0.5
v -0.4 0.5 -0.5
v -0.4 0.7 -0.5
v -0.4 0.8 -0.5
v -0.4 0.9 -0.5
v -0.3 0.3 -0.5
v -0.3 0.4 -0.5
v -0.3 0.5 -0.5
v -0.3 0.7 -0.5
v -0.3 0.8 -0.5
v -0.3 0.9 -0.5
v -0.2 0.4 -0.5
v -0.2 0.5 -0.5
v -0.2 0.6 -0.5
v -0.2 0.7 -0.5
v -0.2 0.8 -0.5
v -0.1 0.6 -0.5
v -0.1 0.7 -0.5
v 0.1 0.6 -0.5
v 0.1 0.7 -0.5
v 0.2 0.4 -0.5
v 0.2 0.5 -0.5
v 0.2 0.6 -0.5
v 0.2 0.7 -0.5
v 0.3 0.2 -0.5
v 0.3 0.4 -0.5
v 0.3 0.5 -0.5
v 0.3 0.6 -0.5
v 0.3 0.7 -0.5
v 0.4 0.3 -0.5
v 0.4 0.5 -0.5
v 0.4 0.7 -0.5
v 0.4 0.9 -0.5
v 0.5 7.45058e-09 -0.5
v 0.5 0.2 -0.5
v 0.5 0.4 -0.5
v 0.5 0.5 -0.5
v 0.5 0.7 -0.5
v 0.5 0.9 -0.5
v 0.5 1 -0.5
v 0.6 7.45058e-09 -0.5
v 0.6 0.1 -0.5
v 0.6 0.2 -0.5
v 0.6 0.3 -0.5
v 0.6 0.4 -0.5
v 0.6 0.5 -0.5
v 0.6 0.6 -0.5
v 0.6 0.7 -0.5
v 0.6 0.9 -0.5
v 0.6 1 -0.5
v 0.7 0.1 -0.5
v 0.7 0.2 -0.5
v 0.7 0.4 -0.5
v 0.7 0.6 -0.5
v 0.8 0.2 -0.5
v 0.8 0.4 -0.5
v -0.4 0.4 -0.6
v -0.4 0.5 -0.6
v -0.4 0.7 -0.6
v -0.4 0.8 -0.6
v -0.3 0.4 -0.6
v -0.3 0.5 -0.6
v -0.3 0.7 -0.6
v -0.3 0.8 -0.6
v -0.2 0.5 -0.6
v -0.2 0.7 -0.6
v -0.4 0.5 -0.7
v -0.4 0.7 -0.7
v -0.3 0.5 -0.7
v -0.3 0.7 -0.7
v 0.5 7.45058e-09 -0.3
v 0.6 7.45058e-09 -0.3
v 0.5 7.45058e-09 -0.5
v 0.6 7.45058e-09 -0.5
v 0.6 0.1 -0.3
v 0.7 0.1 -0.3
v 0.6 0.1 -0.5
v 0.7 0.1 -0.5
v 0.3 0.2 -0.3
v 0.5 0.2 -0.3
v 0.7 0.2 -0.3
v 0.8 0.2 -0.3
v 0.3 0.2 -0.5
v 0.5 0.2 -0.5
v 0.7 0.2 -0.5
v 0.8 0.2 -0.5
v -0.4 0.3 -0.3
v -0.3 0.3 -0.3
v -0.4 0.3 -0.5
v -0.3 0.3 -0.5
v -0.4 0.4 -0.2
v -0.3 0.4 -0.2
v -0.4 0.4 -0.3
v -0.3 0.4 -0.3
v -0.2 0.4 -0.3
v 0.2 0.4 -0.3
v 0.3 0.4 -0.3
v 0.5 0.4 -0.3
v 0.6 0.4 -0.3
v -0.4 0.4 -0.5
v -0.3 0.4 -0.5
v -0.2 0.4 -0.5
v 0.2 0.4 -0.5
v 0.3 0.4 -0.5
v 0.5 0.4 -0.5
v 0.6 0.4 -0.5
v -0.4 0.4 -0.6
v -0.3 0.4 -0.6
v -0.4 0.5 -0.1
v -0.3 0.5 -0.1
v -0.4 0.5 -0.2
v -0.3 0.5 -0.2
v -0.2 0.5 -0.2
v -0.6 0.5 -0.3
v -0.5 0.5 -0.3
v -0.4 0.5 -0.3
v -0.3 0.5 -0.3
v -0.2 0.5 -0.3
v 0.2 0.5 -0.3
v 0.4 0.5 -0.3
v 0.5 0.5 -0.3
v -0.6 0.5 -0.5
v -0.5 0.5 -0.5
v -0.4 0.5 -0.5
v -0.3 0.5 -0.5
v -0.2 0.5 -0.5
v 0.2 0.5 -0.5
v 0.4 0.5 -0.5
v 0.5 0.5 -0.5
v -0.4 0.5 -0.6
v -0.3 0.5 -0.6
v -0.2 0.5 -0.6
v -0.4 0.5 -0.7
v -0.3 0.5 -0.7
v 0.4 0.3 -0.3
v 0.6 0.3 -0.3
v 0.4 0.3 -0.5
v 0.6 0.3 -0.5
v 0.7 0.4 -0.3
v 0.8 0.4 -0.3
v 0.7 0.4 -0.5
v 0.8 0.4 -0.5
v 0.6 0.6 -0.3
v 0.7 0.6 -0.3
v 0.6 0.6 -0.5
v 0.7 0.6 -0.5
v -0.4 0.7 -0.1
v -0.3 0.7 -0.1
v -0.4 0.7 -0.2
v -0.3 0.7 -0.2
v -0.2 0.7 -0.2
v -0.6 0.7 -0.3
v -0.5 0.7 -0.3
v -0.4 0.7 -0.3
v -0.3 0.7 -0.3
v -0.2 0.7 -0.3
v -0.1 0.7 -0.3
v 0.1 0.7 -0.3
v 0.2 0.7 -0.3
v 0.3 0.7 -0.3
v 0.4 0.7 -0.3
v -0.6 0.7 -0.5
v -0.5 0.7 -0.5
v -0.4 0.7 -0.5
v -0.3 0.7 -0.5
v -0.2 0.7 -0.5
v -0.1 0.7 -0.5
v 0.1 0.7 -0.5
v 0.2 0.7 -0.5
v 0.3 0.7 -0.5
v 0.4 0.7 -0.5
v -0.4 0.7 -0.6
v -0.3 0.7 -0.6
v -0.2 0.7 -0.6
v -0.4 0.7 -0.7
v -0.3 0.7 -0.7
v -0.4 0.8 -0.2
v -0.3 0.8 -0.2
v -0.4 0.8 -0.3
v -0.3 0.8 -0.3
v -0.2 0.8 -0.3
v -0.4 0.8 -0.5
v -0.3 0.8 -0.5
v -0.2 0.8 -0.5
v -0.4 0.8 -0.6
v -0.3 0.8 -0.6
v -0.4 0.9 -0.3
v -0.3 0.9 -0.3
v 0.4 0.9 -0.3
v 0.5 0.9 -0.3
v -0.4 0.9 -0.5
v -0.3 0.9 -0.5
v 0.4 0.9 -0.5
v 0.5 0.9 -0.5
v 0.5 1 -0.3
v 0.6 1 -0.3
v 0.5 1 -0.5
v 0.6 1 -0.5

# faces
f 3/4/1 2/4/1 1/4/1
f 4/4/1 2/4/1 3/4/1
f 8/3/1 6/3/1 5/3/1
f 9/3/1 6/3/1 8/3/1
f 12/3/1 8/3/1 7/3/1
f 12/3/1 10/3/1 9/3/1
f 12/3/1 9/3/1 8/3/1
f 13/3/1 10/3/1 12/3/1
f 14/3/1 10/3/1 13/3/1
f 15/3/1 10/3/1 14/3/1
f 17/3/1 12/3/1 11/3/1
f 17/3/1 13/3/1 12/3/1
f 18/3/1 13/3/1 17/3/1
f 19/3/1 13/3/1 18/3/1
f 20/3/1 16/3/1 15/3/1
f 20/3/1 15/3/1 14/3/1
f 21/3/1 16/3/1 20/3/1
f 22/3/1 16/3/1 21/3/1
f 23/3/1 19/3/1 18/3/1
f 23/3/1 21/3/1 20/3/1
f 23/3/1 20/3/1 19/3/1
f 24/3/1 21/3/1 23/3/1
f 25/3/1 21/3/1 24/3/1
f 26/3/1 21/3/1 25/3/1
f 27/3/1 25/3/1 24/3/1
f 28/3/1 25/3/1 27/3/1
f 31/3/1 30/3/1 29/3/1
f 32/3/1 30/3/1 31/3/1
f 35/3/1 34/3/1 33/3/1
f 36/3/1 34/3/1 35/3/1
f 39/3/1 38/3/1 37/3/1
f 40/3/1 38/3/1 39/3/1
f 43/8/1 42/8/1 41/8/1
f 44/8/1 42/8/1 43/8/1
f 47/6/1 46/6/1 45/6/1
f 48/6/1 46/6/1 47/6/1
f 51/5/1 50/5/1 49/5/1
f 52/5/1 50/5/1 51/5/1
f 55/8/1 54/8/1 53/8/1
f 56/8/1 54/8/1 55/8/1
f 57/3/2 58/3/2 60/3/2
f 60/3/2 58/3/2 61/3/2
f 59/3/2 60/3/2 64/3/2
f 64/3/2 60/3/2 65/3/2
f 61/3/2 62/3/2 66/3/2
f 66/3/2 62/3/2 67/3/2
f 63/3/2 64/3/2 69/3/2
f 69/3/2 64/3/2 70/3/2
f 67/3/2 68/3/2 73/3/2
f 73/3/2 68/3/2 74/3/2
f 70/3/2 71/3/2 75/3/2
f 75/3/2 71/3/2 76/3/2
f 72/3/2 73/3/2 77/3/2
f 77/3/2 73/3/2 78/3/2
f 76/3/2 77/3/2 79/3/2
f 79/3/2 77/3/2 80/3/2
f 81/3/2 82/3/2 84/3/2
f 84/3/2 82/3/2 85/3/2
f 83/3/2 84/3/2 87/3/2
f 85/3/2 86/3/2 88/3/2
f 83/3/2 87/3/2 89/3/2
f 89/3/2 87/3/2 90/3/2
f 88/3/2 86/3/2 91/3/2
f 91/3/2 86/3/2 92/3/2
f 90/3/2 91/3/2 93/3/2
f 93/3/2 91/3/2 94/3/2
f 95/3/2 96/3/2 97/3/2
f 97/3/2 96/3/2 98/3/2
f 99/8/2 100/8/2 101/8/2
f 101/8/2 100/8/2 102/8/2
f 103/8/2 104/8/2 105/8/2
f 105/8/2 104/8/2 106/8/2
f 105/3/2 106/3/2 107/3/2
f 107/3/2 106/3/2 108/3/2
f 107/5/2 108/5/2 109/5/2
f 109/5/2 108/5/2 110/5/2
f 111/8/2 112/8/2 113/8/2
f 113/8/2 112/8/2 114/8/2
f 115/8/2 116/8/2 117/8/2
f 117/8/2 116/8/2 118/8/2
f 119/8/2 120/8/2 121/8/2
f 121/8/2 120/8/2 122/8/2
f 125/3/3 124/3/3 123/3/3
f 126/3/3 124/3/3 125/3/3
f 131/3/3 128/3/3 127/3/3
f 132/3/3 128/3/3 131/3/3
f 133/3/3 130/3/3 129/3/3
f 134/3/3 130/3/3 133/3/3
f 135/3/3 133/3/3 132/3/3
f 136/3/3 133/3/3 135/3/3
f 139/4/3 138/4/3 137/4/3
f 140/4/3 138/4/3 139/4/3
f 143/8/3 140/8/3 139/8/3
f 144/8/3 140/8/3 143/8/3
f 147/3/3 142/3/3 141/3/3
f 148/3/3 142/3/3 147/3/3
f 151/3/3 146/3/3 145/3/3
f 152/3/3 146/3/3 151/3/3
f 153/3/3 149/3/3 148/3/3
f 154/3/3 149/3/3 153/3/3
f 156/3/3 151/3/3 150/3/3
f 157/3/3 151/3/3 156/3/3
f 158/6/3 155/6/3 154/6/3
f 158/1/3 156/1/3 155/1/3
f 159/1/3 156/1/3 158/1/3
f 160/6/3 158/6/3 154/6/3
f 160/7/3 159/7/3 158/7/3
f 161/7/3 159/7/3 160/7/3
f 163/6/3 160/6/3 154/6/3
f 164/1/3 161/1/3 160/1/3
f 164/6/3 160/6/3 163/6/3
f 165/1/3 161/1/3 164/1/3
f 167/3/3 163/3/3 162/3/3
f 168/6/3 164/6/3 163/6/3
f 168/3/3 163/3/3 167/3/3
f 169/2/3 165/2/3 164/2/3
f 169/6/3 164/6/3 168/6/3
f 170/2/3 165/2/3 169/2/3
f 171/3/3 167/3/3 166/3/3
f 171/3/3 168/3/3 167/3/3
f 171/3/3 170/3/3 169/3/3
f 171/3/3 169/3/3 168/3/3
f 172/3/3 170/3/3 171/3/3
f 173/3/3 170/3/3 172/3/3
f 176/3/3 171/3/3 166/3/3
f 178/3/3 173/3/3 172/3/3
f 178/3/3 174/3/3 173/3/3
f 179/3/3 174/3/3 178/3/3
f 180/3/3 174/3/3 179/3/3
f 182/8/3 176/8/3 175/8/3
f 183/8/3 176/8/3 182/8/3
f 184/3/3 171/3/3 176/3/3
f 184/8/3 176/8/3 183/8/3
f 185/3/3 171/3/3 184/3/3
f 186/6/3 178/6/3 177/6/3
f 187/8/3 179/8/3 178/8/3
f 187/6/3 178/6/3 186/6/3
f 188/8/3 179/8/3 187/8/3
f 189/3/3 180/3/3 179/3/3
f 189/8/3 179/8/3 188/8/3
f 190/5/3 181/5/3 180/5/3
f 190/3/3 180/3/3 189/3/3
f 191/5/3 181/5/3 190/5/3
f 192/8/3 188/8/3 187/8/3
f 192/8/3 187/8/3 186/8/3
f 192/8/3 184/8/3 183/8/3
f 192/8/3 185/8/3 184/8/3
f 192/8/3 186/8/3 185/8/3
f 193/8/3 188/8/3 192/8/3
f 194/8/3 188/8/3 193/8/3
f 195/8/3 188/8/3 194/8/3
f 196/8/3 194/8/3 193/8/3
f 197/8/3 194/8/3 196/8/3
f 198/4/4 199/4/4 200/4/4
f 200/4/4 199/4/4 201/4/4
f 200/8/4 201/8/4 204/8/4
f 204/8/4 201/8/4 205/8/4
f 202/3/4 203/3/4 208/3/4
f 208/3/4 203/3/4 209/3/4
f 206/3/4 207/3/4 212/3/4
f 212/3/4 207/3/4 213/3/4
f 209/3/4 210/3/4 214/3/4
f 214/3/4 210/3/4 215/3/4
f 211/3/4 212/3/4 217/3/4
f 217/3/4 212/3/4 218/3/4
f 215/6/4 216/6/4 219/6/4
f 216/1/4 217/1/4 219/1/4
f 219/1/4 217/1/4 220/1/4
f 215/6/4 219/6/4 221/6/4
f 219/7/4 220/7/4 221/7/4
f 221/7/4 220/7/4 222/7/4
f 215/6/4 221/6/4 224/6/4
f 221/1/4 222/1/4 225/1/4
f 224/6/4 221/6/4 225/6/4
f 225/1/4 222/1/4 226/1/4
f 223/3/4 224/3/4 228/3/4
f 224/6/4 225/6/4 229/6/4
f 228/3/4 224/3/4 229/3/4
f 225/2/4 226/2/4 230/2/4
f 229/6/4 225/6/4 230/6/4
f 230/2/4 226/2/4 231/2/4
f 227/3/4 228/3/4 232/3/4
f 228/3/4 229/3/4 232/3/4
f 230/3/4 231/3/4 232/3/4
f 229/3/4 230/3/4 232/3/4
f 232/3/4 231/3/4 233/3/4
f 233/3/4 231/3/4 234/3/4
f 227/3/4 232/3/4 237/3/4
f 233/3/4 234/3/4 239/3/4
f 234/3/4 235/3/4 239/3/4
f 239/3/4 235/3/4 240/3/4
f 240/3/4 235/3/4 241/3/4
f 236/8/4 237/8/4 243/8/4
f 243/8/4 237/8/4 244/8/4
f 237/3/4 232/3/4 245/3/4
f 244/8/4 237/8/4 245/8/4
f 245/3/4 232/3/4 246/3/4
f 238/6/4 239/6/4 247/6/4
f 239/8/4 240/8/4 248/8/4
f 247/6/4 239/6/4 248/6/4
f 248/8/4 240/8/4 249/8/4
f 240/3/4 241/3/4 250/3/4
f 249/8/4 240/8/4 250/8/4
f 241/5/4 242/5/4 251/5/4
f 250/3/4 241/3/4 251/3/4
f 251/5/4 242/5/4 252/5/4
f 248/8/4 249/8/4 253/8/4
f 247/8/4 248/8/4 253/8/4
f 244/8/4 245/8/4 253/8/4
f 245/8/4 246/8/4 253/8/4
f 246/8/4 247/8/4 253/8/4
f 253/8/4 249/8/4 254/8/4
f 254/8/4 249/8/4 255/8/4
f 255/8/4 249/8/4 256/8/4
f 254/8/4 255/8/4 257/8/4
f 257/8/4 255/8/4 258/8/4
f 259/3/4 260/3/4 263/3/4
f 263/3/4 260/3/4 264/3/4
f 261/3/4 262/3/4 265/3/4
f 265/3/4 262/3/4 266/3/4
f 264/3/4 265/3/4 267/3/4
f 267/3/4 265/3/4 268/3/4
f 269/3/4 270/3/4 271/3/4
f 271/3/4 270/3/4 272/3/4
f 275/8/5 274/8/5 273/8/5
f 276/8/5 274/8/5 275/8/5
f 279/8/5 278/8/5 277/8/5
f 280/8/5 278/8/5 279/8/5
f 285/3/5 282/3/5 281/3/5
f 286/3/5 282/3/5 285/3/5
f 287/8/5 284/8/5 283/8/5
f 288/8/5 284/8/5 287/8/5
f 291/3/5 290/3/5 289/3/5
f 292/3/5 290/3/5 291/3/5
f 295/3/5 294/3/5 293/3/5
f 296/3/5 294/3/5 295/3/5
f 303/3/5 297/3/5 296/3/5
f 304/3/5 297/3/5 303/3/5
f 305/3/5 299/3/5 298/3/5
f 306/3/5 299/3/5 305/3/5
f 307/6/5 301/6/5 300/6/5
f 308/6/5 301/6/5 307/6/5
f 309/3/5 303/3/5 302/3/5
f 310/3/5 303/3/5 309/3/5
f 313/3/5 312/3/5 311/3/5
f 314/3/5 312/3/5 313/3/5
f 319/3/5 315/3/5 314/3/5
f 320/3/5 315/3/5 319/3/5
f 324/4/5 317/4/5 316/4/5
f 325/8/5 318/8/5 317/8/5
f 325/4/5 317/4/5 324/4/5
f 326/8/5 318/8/5 325/8/5
f 328/6/5 321/6/5 320/6/5
f 329/6/5 321/6/5 328/6/5
f 330/3/5 323/3/5 322/3/5
f 331/3/5 323/3/5 330/3/5
f 333/3/5 328/3/5 327/3/5
f 334/3/5 328/3/5 333/3/5
f 335/3/5 333/3/5 332/3/5
f 336/3/5 333/3/5 335/3/5
f 337/3/6 338/3/6 339/3/6
f 339/3/6 338/3/6 340/3/6
f 341/8/6 342/8/6 343/8/6
f 343/8/6 342/8/6 344/8/6
f 345/8/6 346/8/6 347/8/6
f 347/8/6 346/8/6 348/8/6
f 349/3/6 350/3/6 351/3/6
f 351/3/6 350/3/6 352/3/6
f 352/3/6 353/3/6 357/3/6
f 357/3/6 353/3/6 358/3/6
f 354/4/6 355/4/6 364/4/6
f 355/8/6 356/8/6 365/8/6
f 364/4/6 355/4/6 365/4/6
f 365/8/6 356/8/6 366/8/6
f 358/1/6 359/1/6 368/1/6
f 359/7/6 360/7/6 369/7/6
f 368/1/6 359/1/6 369/1/6
f 360/1/6 361/1/6 370/1/6
f 369/7/6 360/7/6 370/7/6
f 361/2/6 362/2/6 371/2/6
f 370/1/6 361/1/6 371/1/6
f 362/3/6 363/3/6 372/3/6
f 371/2/6 362/2/6 372/2/6
f 372/3/6 363/3/6 373/3/6
f 367/3/6 368/3/6 375/3/6
f 375/3/6 368/3/6 376/3/6
f 374/3/6 375/3/6 377/3/6
f 377/3/6 375/3/6 378/3/6
f 379/3/6 380/3/6 381/3/6
f 381/3/6 380/3/6 382/3/6
f 382/3/6 383/3/6 385/3/6
f 385/3/6 383/3/6 386/3/6
f 384/3/6 385/3/6 387/3/6
f 387/3/6 385/3/6 388/3/6
f 389/3/6 390/3/6 393/3/6
f 393/3/6 390/3/6 394/3/6
f 391/3/6 392/3/6 395/3/6
f 395/3/6 392/3/6 396/3/6
f 397/5/6 398/5/6 399/5/6
f 399/5/6 398/5/6 400/5/6
