# MagicaVoxel @ Ephtracy

# group
o 

# material
mtllib noj.mtl
usemtl palette

# normals
vn -1 0 0
vn 1 0 0
vn 0 0 1
vn 0 0 -1
vn 0 -1 0
vn 0 1 0

# texcoords
vt 0.306641 0.5
vt 0.537109 0.5
vt 0.845703 0.5

# verts
v -0.1 0.5 -1.49012e-08
v -0.1 0.5 -0.1
v -0.1 0.6 -1.49012e-08
v -0.1 0.6 -0.1
v 1.49012e-08 0.4 0.1
v 1.49012e-08 0.4 -0.1
v 1.49012e-08 0.5 0.1
v 1.49012e-08 0.5 -1.49012e-08
v 1.49012e-08 0.5 -0.1
v 1.49012e-08 0.6 -1.49012e-08
v 1.49012e-08 0.6 -0.1
v 1.49012e-08 1.1 -1.49012e-08
v 1.49012e-08 1.1 -0.1
v 0.1 0 -1.49012e-08
v 0.1 0 -0.1
v 0.1 0.4 -1.49012e-08
v 0.1 0.4 -0.1
v 0.1 1 -1.49012e-08
v 0.1 1 -0.1
v 0.1 1.1 -1.49012e-08
v 0.1 1.1 -0.1
v 0.2 0 -1.49012e-08
v 0.2 0 -0.1
v 0.2 0.1 -1.49012e-08
v 0.2 0.1 -0.1
v 0.2 0.9 -1.49012e-08
v 0.2 0.9 -0.1
v 0.2 1 -1.49012e-08
v 0.2 1 -0.1
v 0.3 0.1 -1.49012e-08
v 0.3 0.1 -0.1
v 0.3 0.4 -1.49012e-08
v 0.3 0.4 -0.1
v 0.3 0.6 -1.49012e-08
v 0.3 0.6 -0.1
v 0.3 0.8 -1.49012e-08
v 0.3 0.8 -0.1
v 0.3 0.9 -1.49012e-08
v 0.3 0.9 -0.1
v 0.4 0.4 0.1
v 0.4 0.4 -0.1
v 0.4 0.5 0.1
v 0.4 0.5 -1.49012e-08
v 0.4 0.5 -0.1
v 0.4 0.6 -1.49012e-08
v 0.4 0.6 -0.1
v 1.49012e-08 0.4 0.1
v 1.49012e-08 0.5 0.1
v 0.4 0.4 0.1
v 0.4 0.5 0.1
v -0.1 0.5 -1.49012e-08
v -0.1 0.6 -1.49012e-08
v 1.49012e-08 0.5 -1.49012e-08
v 1.49012e-08 0.6 -1.49012e-08
v 1.49012e-08 1.1 -1.49012e-08
v 0.1 0 -1.49012e-08
v 0.1 0.4 -1.49012e-08
v 0.1 0.8 -1.49012e-08
v 0.1 1 -1.49012e-08
v 0.1 1.1 -1.49012e-08
v 0.2 0 -1.49012e-08
v 0.2 0.1 -1.49012e-08
v 0.2 0.6 -1.49012e-08
v 0.2 0.8 -1.49012e-08
v 0.2 0.9 -1.49012e-08
v 0.2 1 -1.49012e-08
v 0.3 0.1 -1.49012e-08
v 0.3 0.4 -1.49012e-08
v 0.3 0.5 -1.49012e-08
v 0.3 0.6 -1.49012e-08
v 0.3 0.8 -1.49012e-08
v 0.3 0.9 -1.49012e-08
v 0.4 0.5 -1.49012e-08
v 0.4 0.6 -1.49012e-08
v -0.1 0.5 -0.1
v -0.1 0.6 -0.1
v 1.49012e-08 0.4 -0.1
v 1.49012e-08 0.5 -0.1
v 1.49012e-08 0.6 -0.1
v 1.49012e-08 1.1 -0.1
v 0.1 0 -0.1
v 0.1 0.4 -0.1
v 0.1 0.8 -0.1
v 0.1 1 -0.1
v 0.1 1.1 -0.1
v 0.2 0 -0.1
v 0.2 0.1 -0.1
v 0.2 0.6 -0.1
v 0.2 0.8 -0.1
v 0.2 0.9 -0.1
v 0.2 1 -0.1
v 0.3 0.1 -0.1
v 0.3 0.4 -0.1
v 0.3 0.5 -0.1
v 0.3 0.6 -0.1
v 0.3 0.8 -0.1
v 0.3 0.9 -0.1
v 0.4 0.4 -0.1
v 0.4 0.5 -0.1
v 0.4 0.6 -0.1
v 0.1 0 -1.49012e-08
v 0.2 0 -1.49012e-08
v 0.1 0 -0.1
v 0.2 0 -0.1
v 0.2 0.1 -1.49012e-08
v 0.3 0.1 -1.49012e-08
v 0.2 0.1 -0.1
v 0.3 0.1 -0.1
v 1.49012e-08 0.4 0.1
v 0.4 0.4 0.1
v 0.1 0.4 -1.49012e-08
v 0.3 0.4 -1.49012e-08
v 1.49012e-08 0.4 -0.1
v 0.1 0.4 -0.1
v 0.3 0.4 -0.1
v 0.4 0.4 -0.1
v -0.1 0.5 -1.49012e-08
v 1.49012e-08 0.5 -1.49012e-08
v -0.1 0.5 -0.1
v 1.49012e-08 0.5 -0.1
v 1.49012e-08 0.5 0.1
v 0.4 0.5 0.1
v 1.49012e-08 0.5 -1.49012e-08
v 0.3 0.5 -1.49012e-08
v 0.4 0.5 -1.49012e-08
v -0.1 0.6 -1.49012e-08
v 1.49012e-08 0.6 -1.49012e-08
v 0.3 0.6 -1.49012e-08
v 0.4 0.6 -1.49012e-08
v -0.1 0.6 -0.1
v 1.49012e-08 0.6 -0.1
v 0.3 0.6 -0.1
v 0.4 0.6 -0.1
v 0.2 0.9 -1.49012e-08
v 0.3 0.9 -1.49012e-08
v 0.2 0.9 -0.1
v 0.3 0.9 -0.1
v 0.1 1 -1.49012e-08
v 0.2 1 -1.49012e-08
v 0.1 1 -0.1
v 0.2 1 -0.1
v 1.49012e-08 1.1 -1.49012e-08
v 0.1 1.1 -1.49012e-08
v 1.49012e-08 1.1 -0.1
v 0.1 1.1 -0.1

# faces
f 3/3/1 2/3/1 1/3/1
f 4/3/1 2/3/1 3/3/1
f 7/2/1 6/2/1 5/2/1
f 8/2/1 6/2/1 7/2/1
f 9/2/1 6/2/1 8/2/1
f 12/3/1 11/3/1 10/3/1
f 13/3/1 11/3/1 12/3/1
f 16/2/1 15/2/1 14/2/1
f 17/2/1 15/2/1 16/2/1
f 18/3/2 19/3/2 20/3/2
f 20/3/2 19/3/2 21/3/2
f 22/2/2 23/2/2 24/2/2
f 24/2/2 23/2/2 25/2/2
f 26/1/2 27/1/2 28/1/2
f 28/1/2 27/1/2 29/1/2
f 30/2/2 31/2/2 32/2/2
f 32/2/2 31/2/2 33/2/2
f 34/1/2 35/1/2 36/1/2
f 36/1/2 35/1/2 37/1/2
f 36/3/2 37/3/2 38/3/2
f 38/3/2 37/3/2 39/3/2
f 40/2/2 41/2/2 42/2/2
f 42/2/2 41/2/2 43/2/2
f 43/2/2 41/2/2 44/2/2
f 43/1/2 44/1/2 45/1/2
f 45/1/2 44/1/2 46/1/2
f 49/2/3 48/2/3 47/2/3
f 50/2/3 48/2/3 49/2/3
f 53/3/3 52/3/3 51/3/3
f 54/3/3 52/3/3 53/3/3
f 58/3/3 54/3/3 53/3/3
f 58/3/3 55/3/3 54/3/3
f 59/3/3 55/3/3 58/3/3
f 60/3/3 55/3/3 59/3/3
f 61/2/3 57/2/3 56/2/3
f 62/2/3 57/2/3 61/2/3
f 63/3/3 58/3/3 53/3/3
f 64/1/3 59/1/3 58/1/3
f 64/3/3 58/3/3 63/3/3
f 65/1/3 59/1/3 64/1/3
f 66/1/3 59/1/3 65/1/3
f 67/2/3 57/2/3 62/2/3
f 68/2/3 57/2/3 67/2/3
f 69/3/3 63/3/3 53/3/3
f 70/1/3 64/1/3 63/1/3
f 70/3/3 63/3/3 69/3/3
f 71/3/3 65/3/3 64/3/3
f 71/1/3 64/1/3 70/1/3
f 72/3/3 65/3/3 71/3/3
f 73/1/3 70/1/3 69/1/3
f 74/1/3 70/1/3 73/1/3
f 75/3/4 76/3/4 78/3/4
f 78/3/4 76/3/4 79/3/4
f 77/2/4 78/2/4 82/2/4
f 79/3/4 80/3/4 83/3/4
f 78/3/4 79/3/4 83/3/4
f 83/3/4 80/3/4 84/3/4
f 84/3/4 80/3/4 85/3/4
f 81/2/4 82/2/4 86/2/4
f 86/2/4 82/2/4 87/2/4
f 78/3/4 83/3/4 88/3/4
f 83/1/4 84/1/4 89/1/4
f 88/3/4 83/3/4 89/3/4
f 89/1/4 84/1/4 90/1/4
f 90/1/4 84/1/4 91/1/4
f 87/2/4 82/2/4 92/2/4
f 82/2/4 78/2/4 93/2/4
f 92/2/4 82/2/4 93/2/4
f 78/3/4 88/3/4 94/3/4
f 93/2/4 78/2/4 94/2/4
f 88/1/4 89/1/4 95/1/4
f 94/3/4 88/3/4 95/3/4
f 89/3/4 90/3/4 96/3/4
f 95/1/4 89/1/4 96/1/4
f 96/3/4 90/3/4 97/3/4
f 93/2/4 94/2/4 98/2/4
f 94/1/4 95/1/4 99/1/4
f 98/2/4 94/2/4 99/2/4
f 99/1/4 95/1/4 100/1/4
f 103/2/5 102/2/5 101/2/5
f 104/2/5 102/2/5 103/2/5
f 107/2/5 106/2/5 105/2/5
f 108/2/5 106/2/5 107/2/5
f 111/2/5 110/2/5 109/2/5
f 112/2/5 110/2/5 111/2/5
f 113/2/5 111/2/5 109/2/5
f 114/2/5 111/2/5 113/2/5
f 115/2/5 110/2/5 112/2/5
f 116/2/5 110/2/5 115/2/5
f 119/3/5 118/3/5 117/3/5
f 120/3/5 118/3/5 119/3/5
f 121/2/6 122/2/6 123/2/6
f 123/2/6 122/2/6 124/2/6
f 124/2/6 122/2/6 125/2/6
f 126/3/6 127/3/6 130/3/6
f 130/3/6 127/3/6 131/3/6
f 128/1/6 129/1/6 132/1/6
f 132/1/6 129/1/6 133/1/6
f 134/3/6 135/3/6 136/3/6
f 136/3/6 135/3/6 137/3/6
f 138/1/6 139/1/6 140/1/6
f 140/1/6 139/1/6 141/1/6
f 142/3/6 143/3/6 144/3/6
f 144/3/6 143/3/6 145/3/6
