# MagicaVoxel @ Ephtracy

# group
o 

# material
mtllib Planshet.mtl
usemtl palette

# normals
vn -1 0 0
vn 1 0 0
vn 0 0 1
vn 0 0 -1
vn 0 -1 0
vn 0 1 0

# texcoords
vt 0.0214844 0.5
vt 0.0917969 0.5
vt 0.580078 0.5
vt 0.681641 0.5
vt 0.958984 0.5
vt 0.966797 0.5
vt 0.990234 0.5
vt 0.994141 0.5

# verts
v -1 -0.6 1
v -1 -0.6 -0.8
v -1 -0.4 1
v -1 -0.4 -0.8
v 1 -0.6 1
v 1 -0.6 -0.8
v 1 -0.4 1
v 1 -0.4 -0.8
v -1 -0.6 1
v -1 -0.4 1
v 1 -0.6 1
v 1 -0.4 1
v -1 -0.6 -0.8
v -1 -0.4 -0.8
v 1 -0.6 -0.8
v 1 -0.4 -0.8
v -1 -0.6 1
v 1 -0.6 1
v -1 -0.6 -0.8
v 1 -0.6 -0.8
v -1 -0.4 1
v 1 -0.4 1
v -0.8 -0.4 0.8
v 0.8 -0.4 0.8
v -0.8 -0.4 0.7
v -0.5 -0.4 0.7
v -0.4 -0.4 0.7
v -0.2 -0.4 0.7
v -0.1 -0.4 0.7
v 0.8 -0.4 0.7
v -0.5 -0.4 0.6
v -0.4 -0.4 0.6
v -0.2 -0.4 0.6
v -0.1 -0.4 0.6
v -0.4 -0.4 0.5
v -0.2 -0.4 0.5
v -0.1 -0.4 0.3
v 0 -0.4 0.3
v -0.6 -0.4 0.2
v -0.5 -0.4 0.2
v -0.2 -0.4 0.2
v -0.7 -0.4 0.1
v -0.6 -0.4 0.1
v -0.5 -0.4 0.1
v -0.3 -0.4 0.1
v -0.2 -0.4 0.1
v 0 -0.4 0.1
v 0.1 -0.4 0.1
v -0.7 -0.4 0
v -0.6 -0.4 0
v -0.3 -0.4 0
v -0.2 -0.4 0
v 0 -0.4 0
v 0.1 -0.4 0
v -0.7 -0.4 -0.2
v -0.3 -0.4 -0.2
v -0.1 -0.4 -0.2
v 0.3 -0.4 -0.2
v -0.7 -0.4 -0.3
v -0.6 -0.4 -0.3
v -0.4 -0.4 -0.3
v -0.3 -0.4 -0.3
v -0.1 -0.4 -0.3
v 0 -0.4 -0.3
v 0.2 -0.4 -0.3
v 0.3 -0.4 -0.3
v 0.5 -0.4 -0.3
v 0.6 -0.4 -0.3
v -0.6 -0.4 -0.4
v -0.4 -0.4 -0.4
v 0 -0.4 -0.4
v 0.2 -0.4 -0.4
v 0.5 -0.4 -0.4
v 0.6 -0.4 -0.4
v 0.7 -0.4 -0.4
v 0.6 -0.4 -0.5
v 0.7 -0.4 -0.5
v 0.8 -0.4 -0.5
v -0.8 -0.4 -0.6
v 0.7 -0.4 -0.6
v 0.8 -0.4 -0.6
v -1 -0.4 -0.8
v 1 -0.4 -0.8

# faces
f 3/7/1 2/7/1 1/7/1
f 4/7/1 2/7/1 3/7/1
f 5/7/2 6/7/2 7/7/2
f 7/7/2 6/7/2 8/7/2
f 11/7/3 10/7/3 9/7/3
f 12/7/3 10/7/3 11/7/3
f 13/7/4 14/7/4 15/7/4
f 15/7/4 14/7/4 16/7/4
f 19/7/5 18/7/5 17/7/5
f 20/7/5 18/7/5 19/7/5
f 21/7/6 22/7/6 23/7/6
f 23/7/6 22/7/6 24/7/6
f 21/7/6 23/7/6 25/7/6
f 23/3/6 24/3/6 25/3/6
f 25/3/6 24/3/6 26/3/6
f 26/3/6 24/3/6 27/3/6
f 27/3/6 24/3/6 28/3/6
f 28/3/6 24/3/6 29/3/6
f 24/7/6 22/7/6 30/7/6
f 29/3/6 24/3/6 30/3/6
f 25/5/6 26/5/6 31/5/6
f 26/8/6 27/8/6 31/8/6
f 27/5/6 28/5/6 32/5/6
f 31/8/6 27/8/6 32/8/6
f 28/8/6 29/8/6 33/8/6
f 32/5/6 28/5/6 33/5/6
f 29/5/6 30/5/6 34/5/6
f 33/8/6 29/8/6 34/8/6
f 31/2/6 32/2/6 35/2/6
f 32/5/6 33/5/6 35/5/6
f 33/2/6 34/2/6 36/2/6
f 35/5/6 33/5/6 36/5/6
f 34/5/6 30/5/6 37/5/6
f 36/2/6 34/2/6 37/2/6
f 35/2/6 36/2/6 37/2/6
f 37/5/6 30/5/6 38/5/6
f 25/5/6 31/5/6 39/5/6
f 31/2/6 35/2/6 40/2/6
f 39/5/6 31/5/6 40/5/6
f 35/2/6 37/2/6 40/2/6
f 37/2/6 38/2/6 40/2/6
f 40/2/6 38/2/6 41/2/6
f 25/5/6 39/5/6 42/5/6
f 39/2/6 40/2/6 43/2/6
f 42/5/6 39/5/6 43/5/6
f 40/5/6 41/5/6 44/5/6
f 43/2/6 40/2/6 44/2/6
f 44/5/6 41/5/6 45/5/6
f 41/2/6 38/2/6 46/2/6
f 45/5/6 41/5/6 46/5/6
f 38/5/6 30/5/6 47/5/6
f 46/2/6 38/2/6 47/2/6
f 47/5/6 30/5/6 48/5/6
f 25/5/6 42/5/6 49/5/6
f 42/6/6 43/6/6 49/6/6
f 44/5/6 45/5/6 50/5/6
f 49/6/6 43/6/6 50/6/6
f 43/5/6 44/5/6 50/5/6
f 45/2/6 46/2/6 51/2/6
f 50/5/6 45/5/6 51/5/6
f 46/5/6 47/5/6 52/5/6
f 51/2/6 46/2/6 52/2/6
f 47/2/6 48/2/6 53/2/6
f 52/5/6 47/5/6 53/5/6
f 48/5/6 30/5/6 54/5/6
f 53/2/6 48/2/6 54/2/6
f 49/5/6 50/5/6 55/5/6
f 25/5/6 49/5/6 55/5/6
f 53/5/6 54/5/6 55/5/6
f 50/5/6 51/5/6 55/5/6
f 51/5/6 52/5/6 55/5/6
f 52/5/6 53/5/6 55/5/6
f 55/5/6 54/5/6 56/5/6
f 56/5/6 54/5/6 57/5/6
f 54/5/6 30/5/6 58/5/6
f 57/5/6 54/5/6 58/5/6
f 25/5/6 55/5/6 59/5/6
f 55/4/6 56/4/6 59/4/6
f 59/4/6 56/4/6 60/4/6
f 60/4/6 56/4/6 61/4/6
f 56/5/6 57/5/6 62/5/6
f 61/4/6 56/4/6 62/4/6
f 57/4/6 58/4/6 63/4/6
f 62/5/6 57/5/6 63/5/6
f 63/4/6 58/4/6 64/4/6
f 64/4/6 58/4/6 65/4/6
f 58/5/6 30/5/6 66/5/6
f 65/4/6 58/4/6 66/4/6
f 66/5/6 30/5/6 67/5/6
f 67/5/6 30/5/6 68/5/6
f 60/4/6 61/4/6 69/4/6
f 59/5/6 60/5/6 69/5/6
f 61/5/6 62/5/6 70/5/6
f 69/4/6 61/4/6 70/4/6
f 62/5/6 63/5/6 70/5/6
f 63/5/6 64/5/6 70/5/6
f 64/4/6 65/4/6 71/4/6
f 70/5/6 64/5/6 71/5/6
f 66/5/6 67/5/6 72/5/6
f 71/4/6 65/4/6 72/4/6
f 65/5/6 66/5/6 72/5/6
f 67/1/6 68/1/6 73/1/6
f 72/5/6 67/5/6 73/5/6
f 68/5/6 30/5/6 74/5/6
f 73/1/6 68/1/6 74/1/6
f 74/5/6 30/5/6 75/5/6
f 72/5/6 73/5/6 76/5/6
f 69/5/6 70/5/6 76/5/6
f 74/1/6 75/1/6 76/1/6
f 73/5/6 74/5/6 76/5/6
f 70/5/6 71/5/6 76/5/6
f 71/5/6 72/5/6 76/5/6
f 75/5/6 30/5/6 77/5/6
f 76/1/6 75/1/6 77/1/6
f 30/7/6 22/7/6 78/7/6
f 77/5/6 30/5/6 78/5/6
f 69/5/6 76/5/6 79/5/6
f 21/7/6 25/7/6 79/7/6
f 76/5/6 77/5/6 79/5/6
f 59/5/6 69/5/6 79/5/6
f 25/5/6 59/5/6 79/5/6
f 77/1/6 78/1/6 80/1/6
f 79/5/6 77/5/6 80/5/6
f 78/7/6 22/7/6 81/7/6
f 80/1/6 78/1/6 81/1/6
f 79/7/6 80/7/6 82/7/6
f 21/7/6 79/7/6 82/7/6
f 80/7/6 81/7/6 82/7/6
f 81/7/6 22/7/6 83/7/6
f 82/7/6 81/7/6 83/7/6
