# MagicaVoxel @ Ephtracy

# group
o 

# material
mtllib shkibidi tualet.mtl
usemtl palette

# normals
vn -1 0 0
vn 1 0 0
vn 0 0 1
vn 0 0 -1
vn 0 -1 0
vn 0 1 0

# texcoords
vt 0.537109 0.5
vt 0.806641 0.5
vt 0.958984 0.5
vt 0.966797 0.5
vt 0.986328 0.5
vt 0.994141 0.5

# verts
v -0.6 0.8 -1.7
v -0.6 0.8 -2
v -0.6 0.9 -0.3
v -0.6 0.9 -1.7
v -0.6 1 -0.3
v -0.6 1 -1.7
v -0.6 2.1 -1.7
v -0.6 2.1 -2
v -0.5 0.8 -0.4
v -0.5 0.8 -1.7
v -0.5 0.9 -0.4
v -0.5 0.9 -1.7
v -0.4 0.2 -0.7
v -0.4 0.2 -1.9
v -0.4 0.5 -0.5
v -0.4 0.5 -0.7
v -0.4 0.8 -0.5
v -0.4 0.8 -1.9
v -0.4 1.4 -1.6
v -0.4 1.4 -1.7
v -0.4 1.5 -1.6
v -0.4 1.5 -1.7
v -0.4 1.8 -1.6
v -0.4 1.8 -1.7
v -0.4 1.9 -1.6
v -0.4 1.9 -1.7
v -0.3 0 -0.7
v -0.3 0 -1.8
v -0.3 0.2 -0.6
v -0.3 0.2 -0.7
v -0.3 0.2 -1.8
v -0.3 0.5 -0.6
v -0.3 0.5 -0.7
v -0.3 1.3 -1.6
v -0.3 1.3 -1.7
v -0.3 1.4 -1.6
v -0.3 1.4 -1.7
v -0.3 1.6 -1.6
v -0.3 1.6 -1.7
v -0.3 1.7 -1.6
v -0.3 1.7 -1.7
v -0.0999999 0.7 -1
v -0.0999999 0.7 -1.2
v -0.0999999 0.8 -1
v -0.0999999 0.8 -1.2
v -0.0999999 2.1 -1.8
v -0.0999999 2.1 -1.9
v -0.0999999 2.2 -1.8
v -0.0999999 2.2 -1.9
v 5.96046e-08 0.6 -0.8
v 5.96046e-08 0.6 -0.9
v 5.96046e-08 0.7 -0.8
v 5.96046e-08 0.7 -0.9
v 5.96046e-08 0.8 -1.2
v 5.96046e-08 0.8 -1.3
v 5.96046e-08 0.9 -1.2
v 5.96046e-08 0.9 -1.3
v 0.1 0.6 -1
v 0.1 0.6 -1.1
v 0.1 0.7 -1
v 0.1 0.7 -1.1
v 0.1 1.6 -1.6
v 0.1 1.6 -1.7
v 0.1 1.7 -1.6
v 0.1 1.7 -1.7
v 0.2 0.6 -0.8
v 0.2 0.6 -1
v 0.2 0.7 -0.8
v 0.2 0.7 -1
v 0.2 0.7 -1.1
v 0.2 0.8 -1
v 0.2 0.8 -1.1
v 0.3 0.7 -0.7
v 0.3 0.7 -1
v 0.3 0.7 -1.1
v 0.3 0.7 -1.2
v 0.3 0.8 -0.7
v 0.3 0.8 -1
v 0.3 0.8 -1.1
v 0.3 0.8 -1.2
v 0.3 0.9 -0.7
v 0.3 0.9 -0.8
v 0.3 0.9 -1
v 0.3 0.9 -1.1
v 0.3 1 -0.7
v 0.3 1 -0.8
v 0.3 1.4 -1.6
v 0.3 1.4 -1.7
v 0.3 1.5 -1.6
v 0.3 1.5 -1.7
v 0.4 0.8 -0.6
v 0.4 0.8 -1
v 0.4 0.8 -1.1
v 0.4 0.8 -1.3
v 0.4 0.9 -0.6
v 0.4 0.9 -0.7
v 0.4 0.9 -0.8
v 0.4 0.9 -1
v 0.4 0.9 -1.1
v 0.4 0.9 -1.3
v 0.5 0.9 -0.5
v 0.5 0.9 -0.7
v 0.5 0.9 -0.8
v 0.5 0.9 -1.4
v 0.5 1 -0.5
v 0.5 1 -0.7
v 0.5 1 -0.8
v 0.5 1 -1.4
v -0.4 0.9 -0.5
v -0.4 0.9 -1.4
v -0.4 1 -0.5
v -0.4 1 -1.4
v -0.3 0.8 -0.6
v -0.3 0.8 -1
v -0.3 0.8 -1.1
v -0.3 0.8 -1.3
v -0.3 0.9 -0.6
v -0.3 0.9 -1
v -0.3 0.9 -1.1
v -0.3 0.9 -1.3
v -0.3 1.4 -1.6
v -0.3 1.4 -1.7
v -0.3 1.5 -1.6
v -0.3 1.5 -1.7
v -0.2 0.7 -0.7
v -0.2 0.7 -1.2
v -0.2 0.8 -0.7
v -0.2 0.8 -1
v -0.2 0.8 -1.1
v -0.2 0.8 -1.2
v -0.2 0.9 -1
v -0.2 0.9 -1.1
v -0.0999999 0.6 -0.8
v -0.0999999 0.6 -0.9
v -0.0999999 0.6 -1
v -0.0999999 0.6 -1.1
v -0.0999999 0.7 -0.8
v -0.0999999 0.7 -0.9
v -0.0999999 0.7 -1
v -0.0999999 0.7 -1.1
v -0.0999999 1.6 -1.6
v -0.0999999 1.6 -1.7
v -0.0999999 1.7 -1.6
v -0.0999999 1.7 -1.7
v 5.96046e-08 0.6 -0.9
v 5.96046e-08 0.6 -1
v 5.96046e-08 0.7 -0.9
v 5.96046e-08 0.7 -1
v 5.96046e-08 0.7 -1.1
v 5.96046e-08 0.7 -1.2
v 5.96046e-08 0.8 -1
v 5.96046e-08 0.8 -1.2
v 0.1 0.6 -0.8
v 0.1 0.6 -0.9
v 0.1 0.7 -0.8
v 0.1 0.7 -0.9
v 0.1 0.8 -1.2
v 0.1 0.8 -1.3
v 0.1 0.9 -1.2
v 0.1 0.9 -1.3
v 0.1 2.1 -1.8
v 0.1 2.1 -1.9
v 0.1 2.2 -1.8
v 0.1 2.2 -1.9
v 0.3 1.3 -1.6
v 0.3 1.3 -1.7
v 0.3 1.4 -1.6
v 0.3 1.4 -1.7
v 0.3 1.6 -1.6
v 0.3 1.6 -1.7
v 0.3 1.7 -1.6
v 0.3 1.7 -1.7
v 0.4 0 -0.7
v 0.4 0 -1.8
v 0.4 0.2 -0.6
v 0.4 0.2 -0.7
v 0.4 0.2 -1.8
v 0.4 0.5 -0.6
v 0.4 0.5 -0.7
v 0.4 1.4 -1.6
v 0.4 1.4 -1.7
v 0.4 1.5 -1.6
v 0.4 1.5 -1.7
v 0.4 1.8 -1.6
v 0.4 1.8 -1.7
v 0.4 1.9 -1.6
v 0.4 1.9 -1.7
v 0.5 0.2 -0.7
v 0.5 0.2 -1.9
v 0.5 0.5 -0.5
v 0.5 0.5 -0.7
v 0.5 0.8 -0.5
v 0.5 0.8 -1.9
v 0.6 0.8 -0.4
v 0.6 0.8 -1.7
v 0.6 0.9 -0.4
v 0.6 0.9 -1.7
v 0.7 0.8 -1.7
v 0.7 0.8 -2
v 0.7 0.9 -0.3
v 0.7 0.9 -1.7
v 0.7 1 -0.3
v 0.7 1 -1.7
v 0.7 2.1 -1.7
v 0.7 2.1 -2
v -0.6 0.9 -0.3
v -0.6 1 -0.3
v 0.7 0.9 -0.3
v 0.7 1 -0.3
v -0.5 0.8 -0.4
v -0.5 0.9 -0.4
v 0.6 0.8 -0.4
v 0.6 0.9 -0.4
v -0.4 0.5 -0.5
v -0.4 0.8 -0.5
v 0.5 0.5 -0.5
v 0.5 0.8 -0.5
v -0.3 0.2 -0.6
v -0.3 0.5 -0.6
v 0.4 0.2 -0.6
v 0.4 0.5 -0.6
v -0.4 0.2 -0.7
v -0.4 0.5 -0.7
v -0.3 0 -0.7
v -0.3 0.2 -0.7
v -0.3 0.5 -0.7
v 0.3 0.9 -0.7
v 0.3 1 -0.7
v 0.4 0 -0.7
v 0.4 0.2 -0.7
v 0.4 0.5 -0.7
v 0.4 0.9 -0.7
v 0.5 0.2 -0.7
v 0.5 0.5 -0.7
v 0.5 0.9 -0.7
v 0.5 1 -0.7
v -0.0999999 0.6 -0.9
v -0.0999999 0.7 -0.9
v 5.96046e-08 0.6 -0.9
v 5.96046e-08 0.7 -0.9
v -0.3 0.8 -1
v -0.3 0.9 -1
v -0.2 0.8 -1
v -0.2 0.9 -1
v -0.0999999 0.7 -1
v -0.0999999 0.8 -1
v 5.96046e-08 0.7 -1
v 5.96046e-08 0.8 -1
v 0.1 0.6 -1
v 0.1 0.7 -1
v 0.2 0.6 -1
v 0.2 0.7 -1
v 0.2 0.8 -1
v 0.3 0.7 -1
v 0.3 0.8 -1
v 0.3 0.9 -1
v 0.4 0.8 -1
v 0.4 0.9 -1
v -0.0999999 0.6 -1.1
v -0.0999999 0.7 -1.1
v 5.96046e-08 0.7 -1.1
v 0.1 0.6 -1.1
v 0.1 0.7 -1.1
v -0.2 0.7 -1.2
v -0.2 0.8 -1.2
v -0.0999999 0.7 -1.2
v -0.0999999 0.8 -1.2
v 5.96046e-08 0.7 -1.2
v 5.96046e-08 0.8 -1.2
v 5.96046e-08 0.9 -1.2
v 0.1 0.8 -1.2
v 0.1 0.9 -1.2
v 0.3 0.7 -1.2
v 0.3 0.8 -1.2
v -0.3 0.8 -1.3
v -0.3 0.9 -1.3
v 5.96046e-08 0.8 -1.3
v 5.96046e-08 0.9 -1.3
v 0.1 0.8 -1.3
v 0.1 0.9 -1.3
v 0.4 0.8 -1.3
v 0.4 0.9 -1.3
v -0.4 0.9 -1.4
v -0.4 1 -1.4
v 0.5 0.9 -1.4
v 0.5 1 -1.4
v -0.4 1.4 -1.6
v -0.4 1.5 -1.6
v -0.4 1.8 -1.6
v -0.4 1.9 -1.6
v -0.3 1.3 -1.6
v -0.3 1.4 -1.6
v -0.3 1.5 -1.6
v -0.3 1.6 -1.6
v -0.3 1.7 -1.6
v -0.0999999 1.6 -1.6
v -0.0999999 1.7 -1.6
v 0.1 1.6 -1.6
v 0.1 1.7 -1.6
v 0.3 1.3 -1.6
v 0.3 1.4 -1.6
v 0.3 1.5 -1.6
v 0.3 1.6 -1.6
v 0.3 1.7 -1.6
v 0.4 1.4 -1.6
v 0.4 1.5 -1.6
v 0.4 1.8 -1.6
v 0.4 1.9 -1.6
v -0.6 0.8 -1.7
v -0.6 0.9 -1.7
v -0.6 1 -1.7
v -0.6 2.1 -1.7
v -0.5 0.8 -1.7
v -0.5 0.9 -1.7
v -0.4 1.4 -1.7
v -0.4 1.5 -1.7
v -0.4 1.8 -1.7
v -0.4 1.9 -1.7
v -0.3 1.3 -1.7
v -0.3 1.4 -1.7
v -0.3 1.5 -1.7
v -0.3 1.6 -1.7
v -0.3 1.7 -1.7
v -0.0999999 1.6 -1.7
v -0.0999999 1.7 -1.7
v 0.1 1.6 -1.7
v 0.1 1.7 -1.7
v 0.3 1.3 -1.7
v 0.3 1.4 -1.7
v 0.3 1.5 -1.7
v 0.3 1.6 -1.7
v 0.3 1.7 -1.7
v 0.4 1.4 -1.7
v 0.4 1.5 -1.7
v 0.4 1.8 -1.7
v 0.4 1.9 -1.7
v 0.6 0.8 -1.7
v 0.6 0.9 -1.7
v 0.7 0.8 -1.7
v 0.7 0.9 -1.7
v 0.7 1 -1.7
v 0.7 2.1 -1.7
v -0.0999999 2.1 -1.8
v -0.0999999 2.2 -1.8
v 0.1 2.1 -1.8
v 0.1 2.2 -1.8
v -0.4 0.9 -0.5
v -0.4 1 -0.5
v 0.5 0.9 -0.5
v 0.5 1 -0.5
v -0.3 0.8 -0.6
v -0.3 0.9 -0.6
v 0.4 0.8 -0.6
v 0.4 0.9 -0.6
v -0.2 0.7 -0.7
v -0.2 0.8 -0.7
v 0.3 0.7 -0.7
v 0.3 0.8 -0.7
v -0.0999999 0.6 -0.8
v -0.0999999 0.7 -0.8
v 5.96046e-08 0.6 -0.8
v 5.96046e-08 0.7 -0.8
v 0.1 0.6 -0.8
v 0.1 0.7 -0.8
v 0.2 0.6 -0.8
v 0.2 0.7 -0.8
v 0.3 0.9 -0.8
v 0.3 1 -0.8
v 0.4 0.9 -0.8
v 0.5 0.9 -0.8
v 0.5 1 -0.8
v 5.96046e-08 0.6 -0.9
v 5.96046e-08 0.7 -0.9
v 0.1 0.6 -0.9
v 0.1 0.7 -0.9
v -0.0999999 0.6 -1
v -0.0999999 0.7 -1
v 5.96046e-08 0.6 -1
v 5.96046e-08 0.7 -1
v -0.3 0.8 -1.1
v -0.3 0.9 -1.1
v -0.2 0.8 -1.1
v -0.2 0.9 -1.1
v 0.2 0.7 -1.1
v 0.2 0.8 -1.1
v 0.3 0.7 -1.1
v 0.3 0.8 -1.1
v 0.3 0.9 -1.1
v 0.4 0.8 -1.1
v 0.4 0.9 -1.1
v -0.3 0 -1.8
v -0.3 0.2 -1.8
v 0.4 0 -1.8
v 0.4 0.2 -1.8
v -0.4 0.2 -1.9
v -0.4 0.8 -1.9
v -0.0999999 2.1 -1.9
v -0.0999999 2.2 -1.9
v 0.1 2.1 -1.9
v 0.1 2.2 -1.9
v 0.5 0.2 -1.9
v 0.5 0.8 -1.9
v -0.6 0.8 -2
v -0.6 2.1 -2
v 0.7 0.8 -2
v 0.7 2.1 -2
v -0.3 0 -0.7
v 0.4 0 -0.7
v -0.3 0 -1.8
v 0.4 0 -1.8
v -0.3 0.2 -0.6
v 0.4 0.2 -0.6
v -0.4 0.2 -0.7
v -0.3 0.2 -0.7
v 0.4 0.2 -0.7
v 0.5 0.2 -0.7
v -0.3 0.2 -1.8
v 0.4 0.2 -1.8
v -0.4 0.2 -1.9
v 0.5 0.2 -1.9
v -0.4 0.5 -0.5
v 0.5 0.5 -0.5
v -0.3 0.5 -0.6
v 0.4 0.5 -0.6
v -0.4 0.5 -0.7
v -0.3 0.5 -0.7
v 0.4 0.5 -0.7
v 0.5 0.5 -0.7
v -0.0999999 0.7 -1
v 5.96046e-08 0.7 -1
v -0.0999999 0.7 -1.1
v 5.96046e-08 0.7 -1.1
v -0.5 0.8 -0.4
v 0.6 0.8 -0.4
v -0.4 0.8 -0.5
v 0.5 0.8 -0.5
v -0.6 0.8 -1.7
v -0.5 0.8 -1.7
v 0.6 0.8 -1.7
v 0.7 0.8 -1.7
v -0.4 0.8 -1.9
v 0.5 0.8 -1.9
v -0.6 0.8 -2
v 0.7 0.8 -2
v -0.6 0.9 -0.3
v 0.7 0.9 -0.3
v -0.5 0.9 -0.4
v 0.6 0.9 -0.4
v 0.3 0.9 -0.7
v 0.4 0.9 -0.7
v 0.3 0.9 -0.8
v 0.4 0.9 -0.8
v -0.6 0.9 -1.7
v -0.5 0.9 -1.7
v 0.6 0.9 -1.7
v 0.7 0.9 -1.7
v -0.3 1.3 -1.6
v 0.3 1.3 -1.6
v -0.3 1.3 -1.7
v 0.3 1.3 -1.7
v -0.4 1.4 -1.6
v -0.3 1.4 -1.6
v 0.3 1.4 -1.6
v 0.4 1.4 -1.6
v -0.4 1.4 -1.7
v -0.3 1.4 -1.7
v 0.3 1.4 -1.7
v 0.4 1.4 -1.7
v -0.3 1.6 -1.6
v -0.0999999 1.6 -1.6
v 0.1 1.6 -1.6
v 0.3 1.6 -1.6
v -0.3 1.6 -1.7
v -0.0999999 1.6 -1.7
v 0.1 1.6 -1.7
v 0.3 1.6 -1.7
v -0.4 1.8 -1.6
v 0.4 1.8 -1.6
v -0.4 1.8 -1.7
v 0.4 1.8 -1.7
v -0.0999999 0.6 -0.8
v 5.96046e-08 0.6 -0.8
v 0.1 0.6 -0.8
v 0.2 0.6 -0.8
v -0.0999999 0.6 -0.9
v 5.96046e-08 0.6 -0.9
v 0.1 0.6 -0.9
v -0.0999999 0.6 -1
v 5.96046e-08 0.6 -1
v 0.1 0.6 -1
v 0.2 0.6 -1
v -0.0999999 0.6 -1.1
v 0.1 0.6 -1.1
v -0.2 0.7 -0.7
v 0.3 0.7 -0.7
v -0.0999999 0.7 -0.8
v 5.96046e-08 0.7 -0.8
v 0.1 0.7 -0.8
v 0.2 0.7 -0.8
v -0.0999999 0.7 -0.9
v 5.96046e-08 0.7 -0.9
v 0.1 0.7 -0.9
v -0.0999999 0.7 -1
v 5.96046e-08 0.7 -1
v 0.1 0.7 -1
v 0.2 0.7 -1
v 0.3 0.7 -1
v 5.96046e-08 0.7 -1.1
v 0.1 0.7 -1.1
v 0.2 0.7 -1.1
v 0.3 0.7 -1.1
v -0.2 0.7 -1.2
v -0.0999999 0.7 -1.2
v 5.96046e-08 0.7 -1.2
v 0.3 0.7 -1.2
v -0.3 0.8 -0.6
v 0.4 0.8 -0.6
v -0.2 0.8 -0.7
v 0.3 0.8 -0.7
v -0.3 0.8 -1
v -0.2 0.8 -1
v -0.0999999 0.8 -1
v 5.96046e-08 0.8 -1
v 0.2 0.8 -1
v 0.3 0.8 -1
v 0.4 0.8 -1
v -0.3 0.8 -1.1
v -0.2 0.8 -1.1
v 0.2 0.8 -1.1
v 0.3 0.8 -1.1
v 0.4 0.8 -1.1
v -0.2 0.8 -1.2
v -0.0999999 0.8 -1.2
v 5.96046e-08 0.8 -1.2
v 0.1 0.8 -1.2
v 0.3 0.8 -1.2
v -0.3 0.8 -1.3
v 5.96046e-08 0.8 -1.3
v 0.1 0.8 -1.3
v 0.4 0.8 -1.3
v -0.4 0.9 -0.5
v 0.5 0.9 -0.5
v -0.3 0.9 -0.6
v 0.4 0.9 -0.6
v 0.4 0.9 -0.7
v 0.5 0.9 -0.7
v 0.4 0.9 -0.8
v 0.5 0.9 -0.8
v -0.3 0.9 -1
v -0.2 0.9 -1
v 0.3 0.9 -1
v 0.4 0.9 -1
v -0.3 0.9 -1.1
v -0.2 0.9 -1.1
v 0.3 0.9 -1.1
v 0.4 0.9 -1.1
v 5.96046e-08 0.9 -1.2
v 0.1 0.9 -1.2
v -0.3 0.9 -1.3
v 5.96046e-08 0.9 -1.3
v 0.1 0.9 -1.3
v 0.4 0.9 -1.3
v -0.4 0.9 -1.4
v 0.5 0.9 -1.4
v -0.6 1 -0.3
v 0.7 1 -0.3
v -0.5 1 -0.4
v 0.6 1 -0.4
v -0.4 1 -0.5
v 0.5 1 -0.5
v 0.3 1 -0.7
v 0.5 1 -0.7
v 0.3 1 -0.8
v 0.5 1 -0.8
v -0.4 1 -1.4
v 0.5 1 -1.4
v -0.5 1 -1.5
v 0.6 1 -1.5
v -0.6 1 -1.7
v 0.7 1 -1.7
v -0.3 1.4 -1.6
v 0.3 1.4 -1.6
v -0.3 1.4 -1.7
v 0.3 1.4 -1.7
v -0.4 1.5 -1.6
v -0.3 1.5 -1.6
v 0.3 1.5 -1.6
v 0.4 1.5 -1.6
v -0.4 1.5 -1.7
v -0.3 1.5 -1.7
v 0.3 1.5 -1.7
v 0.4 1.5 -1.7
v -0.3 1.7 -1.6
v -0.0999999 1.7 -1.6
v 0.1 1.7 -1.6
v 0.3 1.7 -1.6
v -0.3 1.7 -1.7
v -0.0999999 1.7 -1.7
v 0.1 1.7 -1.7
v 0.3 1.7 -1.7
v -0.4 1.9 -1.6
v 0.4 1.9 -1.6
v -0.4 1.9 -1.7
v 0.4 1.9 -1.7
v -0.6 2.1 -1.7
v 0.7 2.1 -1.7
v -0.0999999 2.1 -1.8
v 0.1 2.1 -1.8
v -0.0999999 2.1 -1.9
v 0.1 2.1 -1.9
v -0.6 2.1 -2
v 0.7 2.1 -2
v -0.0999999 2.2 -1.8
v 0.1 2.2 -1.8
v -0.0999999 2.2 -1.9
v 0.1 2.2 -1.9

# faces
f 4/3/1 2/3/1 1/3/1
f 5/3/1 4/3/1 3/3/1
f 6/3/1 2/3/1 4/3/1
f 6/3/1 4/3/1 5/3/1
f 7/3/1 2/3/1 6/3/1
f 8/3/1 2/3/1 7/3/1
f 11/3/1 10/3/1 9/3/1
f 12/3/1 10/3/1 11/3/1
f 16/3/1 14/3/1 13/3/1
f 17/3/1 16/3/1 15/3/1
f 18/3/1 14/3/1 16/3/1
f 18/3/1 16/3/1 17/3/1
f 21/1/1 20/1/1 19/1/1
f 22/1/1 20/1/1 21/1/1
f 25/6/1 24/6/1 23/6/1
f 26/6/1 24/6/1 25/6/1
f 30/3/1 28/3/1 27/3/1
f 31/3/1 28/3/1 30/3/1
f 32/3/1 30/3/1 29/3/1
f 33/3/1 30/3/1 32/3/1
f 36/1/1 35/1/1 34/1/1
f 37/1/1 35/1/1 36/1/1
f 40/1/1 39/1/1 38/1/1
f 41/1/1 39/1/1 40/1/1
f 44/1/1 43/1/1 42/1/1
f 45/1/1 43/1/1 44/1/1
f 48/5/1 47/5/1 46/5/1
f 49/5/1 47/5/1 48/5/1
f 52/1/1 51/1/1 50/1/1
f 53/1/1 51/1/1 52/1/1
f 56/1/1 55/1/1 54/1/1
f 57/1/1 55/1/1 56/1/1
f 60/1/1 59/1/1 58/1/1
f 61/1/1 59/1/1 60/1/1
f 64/1/1 63/1/1 62/1/1
f 65/1/1 63/1/1 64/1/1
f 68/2/1 67/2/1 66/2/1
f 69/2/1 67/2/1 68/2/1
f 71/1/1 70/1/1 69/1/1
f 72/1/1 70/1/1 71/1/1
f 77/2/1 74/2/1 73/2/1
f 78/2/1 74/2/1 77/2/1
f 79/2/1 76/2/1 75/2/1
f 80/2/1 76/2/1 79/2/1
f 83/1/1 79/1/1 78/1/1
f 84/1/1 79/1/1 83/1/1
f 85/1/1 82/1/1 81/1/1
f 86/1/1 82/1/1 85/1/1
f 89/1/1 88/1/1 87/1/1
f 90/1/1 88/1/1 89/1/1
f 95/2/1 92/2/1 91/2/1
f 96/2/1 92/2/1 95/2/1
f 97/2/1 92/2/1 96/2/1
f 98/2/1 92/2/1 97/2/1
f 99/2/1 94/2/1 93/2/1
f 100/2/1 94/2/1 99/2/1
f 105/2/1 102/2/1 101/2/1
f 106/2/1 102/2/1 105/2/1
f 107/2/1 104/2/1 103/2/1
f 108/2/1 104/2/1 107/2/1
f 109/2/2 110/2/2 111/2/2
f 111/2/2 110/2/2 112/2/2
f 113/2/2 114/2/2 117/2/2
f 117/2/2 114/2/2 118/2/2
f 115/2/2 116/2/2 119/2/2
f 119/2/2 116/2/2 120/2/2
f 121/1/2 122/1/2 123/1/2
f 123/1/2 122/1/2 124/1/2
f 125/2/2 126/2/2 127/2/2
f 127/2/2 126/2/2 128/2/2
f 128/2/2 126/2/2 129/2/2
f 129/2/2 126/2/2 130/2/2
f 128/1/2 129/1/2 131/1/2
f 131/1/2 129/1/2 132/1/2
f 133/2/2 134/2/2 137/2/2
f 137/2/2 134/2/2 138/2/2
f 135/2/2 136/2/2 139/2/2
f 139/2/2 136/2/2 140/2/2
f 141/1/2 142/1/2 143/1/2
f 143/1/2 142/1/2 144/1/2
f 145/1/2 146/1/2 147/1/2
f 147/1/2 146/1/2 148/1/2
f 149/1/2 150/1/2 151/1/2
f 148/1/2 149/1/2 151/1/2
f 151/1/2 150/1/2 152/1/2
f 153/1/2 154/1/2 155/1/2
f 155/1/2 154/1/2 156/1/2
f 157/1/2 158/1/2 159/1/2
f 159/1/2 158/1/2 160/1/2
f 161/5/2 162/5/2 163/5/2
f 163/5/2 162/5/2 164/5/2
f 165/1/2 166/1/2 167/1/2
f 167/1/2 166/1/2 168/1/2
f 169/1/2 170/1/2 171/1/2
f 171/1/2 170/1/2 172/1/2
f 173/3/2 174/3/2 176/3/2
f 176/3/2 174/3/2 177/3/2
f 175/3/2 176/3/2 178/3/2
f 178/3/2 176/3/2 179/3/2
f 180/1/2 181/1/2 182/1/2
f 182/1/2 181/1/2 183/1/2
f 184/6/2 185/6/2 186/6/2
f 186/6/2 185/6/2 187/6/2
f 188/3/2 189/3/2 191/3/2
f 190/3/2 191/3/2 192/3/2
f 191/3/2 189/3/2 193/3/2
f 192/3/2 191/3/2 193/3/2
f 194/3/2 195/3/2 196/3/2
f 196/3/2 195/3/2 197/3/2
f 198/3/2 199/3/2 201/3/2
f 200/3/2 201/3/2 202/3/2
f 201/3/2 199/3/2 203/3/2
f 202/3/2 201/3/2 203/3/2
f 203/3/2 199/3/2 204/3/2
f 204/3/2 199/3/2 205/3/2
f 208/3/3 207/3/3 206/3/3
f 209/3/3 207/3/3 208/3/3
f 212/3/3 211/3/3 210/3/3
f 213/3/3 211/3/3 212/3/3
f 216/3/3 215/3/3 214/3/3
f 217/3/3 215/3/3 216/3/3
f 220/3/3 219/3/3 218/3/3
f 221/3/3 219/3/3 220/3/3
f 225/3/3 223/3/3 222/3/3
f 226/3/3 223/3/3 225/3/3
f 229/3/3 225/3/3 224/3/3
f 230/3/3 225/3/3 229/3/3
f 232/1/3 228/1/3 227/1/3
f 233/3/3 231/3/3 230/3/3
f 234/3/3 231/3/3 233/3/3
f 235/1/3 228/1/3 232/1/3
f 236/1/3 228/1/3 235/1/3
f 239/1/3 238/1/3 237/1/3
f 240/1/3 238/1/3 239/1/3
f 243/1/3 242/1/3 241/1/3
f 244/1/3 242/1/3 243/1/3
f 247/1/3 246/1/3 245/1/3
f 248/1/3 246/1/3 247/1/3
f 251/1/3 250/1/3 249/1/3
f 252/1/3 250/1/3 251/1/3
f 254/1/3 253/1/3 252/1/3
f 255/1/3 253/1/3 254/1/3
f 257/1/3 256/1/3 255/1/3
f 258/1/3 256/1/3 257/1/3
f 261/2/3 260/2/3 259/2/3
f 262/2/3 261/2/3 259/2/3
f 263/2/3 261/2/3 262/2/3
f 266/2/3 265/2/3 264/2/3
f 267/2/3 265/2/3 266/2/3
f 271/2/3 269/2/3 268/2/3
f 271/1/3 270/1/3 269/1/3
f 272/1/3 270/1/3 271/1/3
f 273/2/3 271/2/3 268/2/3
f 274/2/3 271/2/3 273/2/3
f 277/2/3 276/2/3 275/2/3
f 278/2/3 276/2/3 277/2/3
f 281/2/3 280/2/3 279/2/3
f 282/2/3 280/2/3 281/2/3
f 285/2/3 284/2/3 283/2/3
f 286/2/3 284/2/3 285/2/3
f 292/1/3 288/1/3 287/1/3
f 293/1/3 288/1/3 292/1/3
f 296/1/3 295/1/3 294/1/3
f 297/1/3 295/1/3 296/1/3
f 300/1/3 292/1/3 291/1/3
f 301/1/3 292/1/3 300/1/3
f 303/1/3 299/1/3 298/1/3
f 304/1/3 299/1/3 303/1/3
f 305/1/3 302/1/3 301/1/3
f 306/1/3 302/1/3 305/1/3
f 307/6/3 290/6/3 289/6/3
f 308/6/3 290/6/3 307/6/3
f 313/3/3 310/3/3 309/3/3
f 314/3/3 310/3/3 313/3/3
f 315/3/3 312/3/3 311/3/3
f 316/3/3 312/3/3 315/3/3
f 317/3/3 312/3/3 316/3/3
f 318/3/3 312/3/3 317/3/3
f 319/3/3 315/3/3 311/3/3
f 320/3/3 315/3/3 319/3/3
f 321/3/3 317/3/3 316/3/3
f 322/3/3 317/3/3 321/3/3
f 323/3/3 317/3/3 322/3/3
f 324/3/3 321/3/3 320/3/3
f 324/3/3 322/3/3 321/3/3
f 325/3/3 317/3/3 323/3/3
f 326/3/3 324/3/3 320/3/3
f 326/3/3 325/3/3 324/3/3
f 327/3/3 317/3/3 325/3/3
f 327/3/3 325/3/3 326/3/3
f 328/3/3 319/3/3 311/3/3
f 329/3/3 326/3/3 320/3/3
f 330/3/3 326/3/3 329/3/3
f 331/3/3 326/3/3 330/3/3
f 332/3/3 317/3/3 327/3/3
f 333/3/3 329/3/3 328/3/3
f 334/3/3 331/3/3 330/3/3
f 334/3/3 332/3/3 331/3/3
f 335/3/3 317/3/3 332/3/3
f 335/3/3 332/3/3 334/3/3
f 336/3/3 312/3/3 318/3/3
f 339/3/3 338/3/3 337/3/3
f 340/3/3 338/3/3 339/3/3
f 341/3/3 335/3/3 334/3/3
f 341/3/3 328/3/3 311/3/3
f 341/3/3 333/3/3 328/3/3
f 341/3/3 336/3/3 335/3/3
f 341/3/3 334/3/3 333/3/3
f 342/3/3 312/3/3 336/3/3
f 342/3/3 336/3/3 341/3/3
f 345/5/3 344/5/3 343/5/3
f 346/5/3 344/5/3 345/5/3
f 347/2/4 348/2/4 349/2/4
f 349/2/4 348/2/4 350/2/4
f 351/2/4 352/2/4 353/2/4
f 353/2/4 352/2/4 354/2/4
f 355/2/4 356/2/4 357/2/4
f 357/2/4 356/2/4 358/2/4
f 359/2/4 360/2/4 361/2/4
f 361/2/4 360/2/4 362/2/4
f 363/2/4 364/2/4 365/2/4
f 365/2/4 364/2/4 366/2/4
f 367/1/4 368/1/4 369/1/4
f 369/1/4 368/1/4 370/1/4
f 370/1/4 368/1/4 371/1/4
f 372/1/4 373/1/4 374/1/4
f 374/1/4 373/1/4 375/1/4
f 376/1/4 377/1/4 378/1/4
f 378/1/4 377/1/4 379/1/4
f 380/1/4 381/1/4 382/1/4
f 382/1/4 381/1/4 383/1/4
f 384/1/4 385/1/4 386/1/4
f 386/1/4 385/1/4 387/1/4
f 387/1/4 388/1/4 389/1/4
f 389/1/4 388/1/4 390/1/4
f 391/3/4 392/3/4 393/3/4
f 393/3/4 392/3/4 394/3/4
f 397/5/4 398/5/4 399/5/4
f 399/5/4 398/5/4 400/5/4
f 395/3/4 396/3/4 401/3/4
f 401/3/4 396/3/4 402/3/4
f 403/3/4 404/3/4 405/3/4
f 405/3/4 404/3/4 406/3/4
f 409/3/5 408/3/5 407/3/5
f 410/3/5 408/3/5 409/3/5
f 414/3/5 412/3/5 411/3/5
f 415/3/5 412/3/5 414/3/5
f 417/3/5 414/3/5 413/3/5
f 418/3/5 416/3/5 415/3/5
f 419/3/5 417/3/5 413/3/5
f 419/3/5 418/3/5 417/3/5
f 420/3/5 416/3/5 418/3/5
f 420/3/5 418/3/5 419/3/5
f 423/3/5 422/3/5 421/3/5
f 424/3/5 422/3/5 423/3/5
f 425/3/5 423/3/5 421/3/5
f 426/3/5 423/3/5 425/3/5
f 427/3/5 422/3/5 424/3/5
f 428/3/5 422/3/5 427/3/5
f 431/1/5 430/1/5 429/1/5
f 432/1/5 430/1/5 431/1/5
f 435/3/5 434/3/5 433/3/5
f 436/3/5 434/3/5 435/3/5
f 438/3/5 435/3/5 433/3/5
f 439/3/5 434/3/5 436/3/5
f 441/3/5 438/3/5 437/3/5
f 441/3/5 435/3/5 438/3/5
f 442/3/5 440/3/5 439/3/5
f 442/3/5 439/3/5 436/3/5
f 443/3/5 441/3/5 437/3/5
f 443/3/5 442/3/5 441/3/5
f 444/3/5 440/3/5 442/3/5
f 444/3/5 442/3/5 443/3/5
f 447/3/5 446/3/5 445/3/5
f 448/3/5 446/3/5 447/3/5
f 451/1/5 450/1/5 449/1/5
f 452/1/5 450/1/5 451/1/5
f 453/3/5 447/3/5 445/3/5
f 454/3/5 447/3/5 453/3/5
f 455/3/5 446/3/5 448/3/5
f 456/3/5 446/3/5 455/3/5
f 459/1/5 458/1/5 457/1/5
f 460/1/5 458/1/5 459/1/5
f 465/1/5 462/1/5 461/1/5
f 466/1/5 462/1/5 465/1/5
f 467/1/5 464/1/5 463/1/5
f 468/1/5 464/1/5 467/1/5
f 473/1/5 470/1/5 469/1/5
f 474/1/5 470/1/5 473/1/5
f 475/1/5 472/1/5 471/1/5
f 476/1/5 472/1/5 475/1/5
f 479/6/5 478/6/5 477/6/5
f 480/6/5 478/6/5 479/6/5
f 481/2/6 482/2/6 485/2/6
f 485/2/6 482/2/6 486/2/6
f 483/2/6 484/2/6 487/2/6
f 486/2/6 487/2/6 489/2/6
f 487/2/6 484/2/6 490/2/6
f 489/2/6 487/2/6 490/2/6
f 490/2/6 484/2/6 491/2/6
f 488/2/6 489/2/6 492/2/6
f 489/2/6 490/2/6 492/2/6
f 492/2/6 490/2/6 493/2/6
f 494/2/6 495/2/6 496/2/6
f 496/2/6 495/2/6 497/2/6
f 497/2/6 495/2/6 498/2/6
f 498/2/6 495/2/6 499/2/6
f 494/2/6 496/2/6 500/2/6
f 497/1/6 498/1/6 501/1/6
f 501/1/6 498/1/6 502/1/6
f 494/2/6 500/2/6 503/2/6
f 500/1/6 501/1/6 503/1/6
f 503/1/6 501/1/6 504/1/6
f 499/2/6 495/2/6 506/2/6
f 506/2/6 495/2/6 507/2/6
f 505/1/6 506/1/6 509/1/6
f 509/1/6 506/1/6 510/1/6
f 494/2/6 503/2/6 512/2/6
f 512/2/6 503/2/6 513/2/6
f 510/2/6 511/2/6 514/2/6
f 508/2/6 509/2/6 514/2/6
f 509/2/6 510/2/6 514/2/6
f 514/2/6 511/2/6 515/2/6
f 516/2/6 517/2/6 518/2/6
f 518/2/6 517/2/6 519/2/6
f 516/2/6 518/2/6 520/2/6
f 520/2/6 518/2/6 521/2/6
f 519/2/6 517/2/6 525/2/6
f 525/2/6 517/2/6 526/2/6
f 524/1/6 525/1/6 529/1/6
f 529/1/6 525/1/6 530/1/6
f 527/2/6 528/2/6 532/2/6
f 522/1/6 523/1/6 533/1/6
f 533/1/6 523/1/6 534/1/6
f 530/2/6 531/2/6 536/2/6
f 527/2/6 532/2/6 537/2/6
f 533/2/6 534/2/6 537/2/6
f 532/2/6 533/2/6 537/2/6
f 537/2/6 534/2/6 538/2/6
f 535/2/6 536/2/6 539/2/6
f 536/2/6 531/2/6 540/2/6
f 539/2/6 536/2/6 540/2/6
f 541/2/6 542/2/6 543/2/6
f 543/2/6 542/2/6 544/2/6
f 544/2/6 542/2/6 545/2/6
f 545/2/6 542/2/6 546/2/6
f 541/2/6 543/2/6 549/2/6
f 547/2/6 548/2/6 552/2/6
f 549/1/6 550/1/6 553/1/6
f 541/2/6 549/2/6 553/2/6
f 553/1/6 550/1/6 554/1/6
f 551/1/6 552/1/6 555/1/6
f 552/2/6 548/2/6 556/2/6
f 555/1/6 552/1/6 556/1/6
f 541/2/6 553/2/6 559/2/6
f 557/1/6 558/1/6 560/1/6
f 560/1/6 558/1/6 561/1/6
f 556/2/6 548/2/6 562/2/6
f 560/2/6 561/2/6 563/2/6
f 561/2/6 562/2/6 563/2/6
f 541/2/6 559/2/6 563/2/6
f 559/2/6 560/2/6 563/2/6
f 562/2/6 548/2/6 564/2/6
f 563/2/6 562/2/6 564/2/6
f 565/3/6 566/3/6 567/3/6
f 567/3/6 566/3/6 568/3/6
f 567/2/6 568/2/6 569/2/6
f 569/2/6 568/2/6 570/2/6
f 570/2/6 568/2/6 572/2/6
f 571/1/6 572/1/6 573/1/6
f 572/2/6 568/2/6 574/2/6
f 573/1/6 572/1/6 574/1/6
f 567/2/6 569/2/6 575/2/6
f 574/2/6 568/2/6 576/2/6
f 565/3/6 567/3/6 577/3/6
f 575/2/6 576/2/6 577/2/6
f 567/2/6 575/2/6 577/2/6
f 576/2/6 568/2/6 578/2/6
f 577/2/6 576/2/6 578/2/6
f 568/3/6 566/3/6 578/3/6
f 565/3/6 577/3/6 579/3/6
f 577/3/6 578/3/6 579/3/6
f 578/3/6 566/3/6 580/3/6
f 579/3/6 578/3/6 580/3/6
f 581/1/6 582/1/6 583/1/6
f 583/1/6 582/1/6 584/1/6
f 585/1/6 586/1/6 589/1/6
f 589/1/6 586/1/6 590/1/6
f 587/1/6 588/1/6 591/1/6
f 591/1/6 588/1/6 592/1/6
f 593/1/6 594/1/6 597/1/6
f 597/1/6 594/1/6 598/1/6
f 595/1/6 596/1/6 599/1/6
f 599/1/6 596/1/6 600/1/6
f 601/6/6 602/6/6 603/6/6
f 603/6/6 602/6/6 604/6/6
f 605/3/6 606/3/6 607/3/6
f 607/3/6 606/3/6 608/3/6
f 605/3/6 607/3/6 609/3/6
f 608/3/6 606/3/6 610/3/6
f 605/3/6 609/3/6 611/3/6
f 609/3/6 610/3/6 611/3/6
f 610/3/6 606/3/6 612/3/6
f 611/3/6 610/3/6 612/3/6
f 613/5/6 614/5/6 615/5/6
f 615/5/6 614/5/6 616/5/6
