# MagicaVoxel @ Ephtracy

# group
o 

# material
mtllib Yaderka.mtl
usemtl palette

# normals
vn -1 0 0
vn 1 0 0
vn 0 0 1
vn 0 0 -1
vn 0 -1 0
vn 0 1 0

# texcoords
vt 0.0214844 0.5
vt 0.986328 0.5
vt 0.994141 0.5

# verts
v -2.4 -0.6 0.7
v -2.4 -0.6 -0.9
v -2.4 1 0.7
v -2.4 1 -0.9
v -2.3 -0.7 0.8
v -2.3 -0.7 0.5
v -2.3 -0.7 -0.8
v -2.3 -0.7 -1
v -2.3 -0.6 0.7
v -2.3 -0.6 0.5
v -2.3 -0.6 -0.8
v -2.3 -0.6 -0.9
v -2.3 -0.4 0.8
v -2.3 -0.4 0.7
v -2.3 -0.4 -0.9
v -2.3 -0.4 -1
v -2.3 0.8 0.8
v -2.3 0.8 0.7
v -2.3 0.8 -0.9
v -2.3 0.8 -1
v -2.3 1 0.7
v -2.3 1 0.5
v -2.3 1 -0.7
v -2.3 1 -0.9
v -2.3 1.1 0.8
v -2.3 1.1 0.5
v -2.3 1.1 -0.7
v -2.3 1.1 -1
v -1.8 -0.7 0.2
v -1.8 -0.7 -5.96046e-08
v -1.8 -0.7 -0.2
v -1.8 -0.7 -0.4
v -1.8 -0.6 0.2
v -1.8 -0.6 -5.96046e-08
v -1.8 -0.6 -0.2
v -1.8 -0.6 -0.4
v -1.8 -0.1 0.8
v -1.8 -0.1 0.7
v -1.8 -0.1 -0.9
v -1.8 -0.1 -1
v -1.8 0.1 0.8
v -1.8 0.1 0.7
v -1.8 0.1 -0.9
v -1.8 0.1 -1
v -1.8 0.3 0.8
v -1.8 0.3 0.7
v -1.8 0.3 -0.9
v -1.8 0.3 -1
v -1.8 0.5 0.8
v -1.8 0.5 0.7
v -1.8 0.5 -0.9
v -1.8 0.5 -1
v -1.8 1 0.2
v -1.8 1 -5.96046e-08
v -1.8 1 -0.2
v -1.8 1 -0.4
v -1.8 1.1 0.2
v -1.8 1.1 -5.96046e-08
v -1.8 1.1 -0.2
v -1.8 1.1 -0.4
v -1.7 -0.7 0.3
v -1.7 -0.7 0.2
v -1.7 -0.7 -0.4
v -1.7 -0.7 -0.5
v -1.7 -0.6 0.3
v -1.7 -0.6 0.2
v -1.7 -0.6 -0.4
v -1.7 -0.6 -0.5
v -1.7 -0.2 0.8
v -1.7 -0.2 0.7
v -1.7 -0.2 -0.9
v -1.7 -0.2 -1
v -1.7 -0.1 0.8
v -1.7 -0.1 0.7
v -1.7 -0.1 -0.9
v -1.7 -0.1 -1
v -1.7 0.5 0.8
v -1.7 0.5 0.7
v -1.7 0.5 -0.9
v -1.7 0.5 -1
v -1.7 0.6 0.8
v -1.7 0.6 0.7
v -1.7 0.6 -0.9
v -1.7 0.6 -1
v -1.7 1 0.3
v -1.7 1 0.2
v -1.7 1 -0.4
v -1.7 1 -0.5
v -1.7 1.1 0.3
v -1.7 1.1 0.2
v -1.7 1.1 -0.4
v -1.7 1.1 -0.5
v -1.6 -0.7 0.4
v -1.6 -0.7 0.3
v -1.6 -0.7 -0.5
v -1.6 -0.7 -0.6
v -1.6 -0.6 0.4
v -1.6 -0.6 0.3
v -1.6 -0.6 -0.5
v -1.6 -0.6 -0.6
v -1.6 -0.3 0.8
v -1.6 -0.3 0.7
v -1.6 -0.3 -0.9
v -1.6 -0.3 -1
v -1.6 -0.2 0.8
v -1.6 -0.2 0.7
v -1.6 -0.2 -0.9
v -1.6 -0.2 -1
v -1.6 0.6 0.8
v -1.6 0.6 0.7
v -1.6 0.6 -0.9
v -1.6 0.6 -1
v -1.6 0.7 0.8
v -1.6 0.7 0.7
v -1.6 0.7 -0.9
v -1.6 0.7 -1
v -1.6 1 0.4
v -1.6 1 0.3
v -1.6 1 -0.5
v -1.6 1 -0.6
v -1.6 1.1 0.4
v -1.6 1.1 0.3
v -1.6 1.1 -0.5
v -1.6 1.1 -0.6
v -1.5 -0.7 0.5
v -1.5 -0.7 0.4
v -1.5 -0.7 -0.6
v -1.5 -0.7 -0.7
v -1.5 -0.6 0.5
v -1.5 -0.6 0.4
v -1.5 -0.6 -0.6
v -1.5 -0.6 -0.7
v -1.5 -0.4 0.8
v -1.5 -0.4 0.7
v -1.5 -0.4 -0.9
v -1.5 -0.4 -1
v -1.5 -0.3 0.8
v -1.5 -0.3 0.7
v -1.5 -0.3 -0.9
v -1.5 -0.3 -1
v -1.5 0.7 0.8
v -1.5 0.7 0.7
v -1.5 0.7 -0.9
v -1.5 0.7 -1
v -1.5 0.8 0.8
v -1.5 0.8 0.7
v -1.5 0.8 -0.9
v -1.5 0.8 -1
v -1.5 1 0.5
v -1.5 1 0.4
v -1.5 1 -0.6
v -1.5 1 -0.7
v -1.5 1.1 0.5
v -1.5 1.1 0.4
v -1.5 1.1 -0.6
v -1.5 1.1 -0.7
v -1.3 -0.7 0.6
v -1.3 -0.7 0.5
v -1.3 -0.7 -0.7
v -1.3 -0.7 -0.8
v -1.3 -0.6 0.6
v -1.3 -0.6 0.5
v -1.3 -0.6 -0.7
v -1.3 -0.6 -0.8
v -1.3 -0.5 0.8
v -1.3 -0.5 0.7
v -1.3 -0.5 -0.9
v -1.3 -0.5 -1
v -1.3 -0.4 0.8
v -1.3 -0.4 0.7
v -1.3 -0.4 -0.9
v -1.3 -0.4 -1
v -1.3 0.8 0.8
v -1.3 0.8 0.7
v -1.3 0.8 -0.9
v -1.3 0.8 -1
v -1.3 0.9 0.8
v -1.3 0.9 0.7
v -1.3 0.9 -0.9
v -1.3 0.9 -1
v -1.3 1 0.6
v -1.3 1 0.5
v -1.3 1 -0.7
v -1.3 1 -0.8
v -1.3 1.1 0.6
v -1.3 1.1 0.5
v -1.3 1.1 -0.7
v -1.3 1.1 -0.8
v -1.1 -0.7 -5.96046e-08
v -1.1 -0.7 -0.2
v -1.1 -0.6 -5.96046e-08
v -1.1 -0.6 -0.2
v -1.1 0.1 0.8
v -1.1 0.1 0.7
v -1.1 0.1 -0.9
v -1.1 0.1 -1
v -1.1 0.3 0.8
v -1.1 0.3 0.7
v -1.1 0.3 -0.9
v -1.1 0.3 -1
v -1.1 1 -5.96046e-08
v -1.1 1 -0.2
v -1.1 1.1 -5.96046e-08
v -1.1 1.1 -0.2
v -0.8 -0.7 0.1
v -0.8 -0.7 -0.3
v -0.8 -0.6 0.1
v -0.8 -0.6 -0.3
v -0.8 -5.96046e-08 0.8
v -0.8 -5.96046e-08 0.7
v -0.8 -5.96046e-08 -0.9
v -0.8 -5.96046e-08 -1
v -0.8 0.4 0.8
v -0.8 0.4 0.7
v -0.8 0.4 -0.9
v -0.8 0.4 -1
v -0.8 1 0.1
v -0.8 1 -0.3
v -0.8 1.1 0.1
v -0.8 1.1 -0.3
v -0.7 -0.7 0.2
v -0.7 -0.7 0.1
v -0.7 -0.7 -0.3
v -0.7 -0.7 -0.4
v -0.7 -0.6 0.2
v -0.7 -0.6 0.1
v -0.7 -0.6 -0.3
v -0.7 -0.6 -0.4
v -0.7 -0.1 0.8
v -0.7 -0.1 0.7
v -0.7 -0.1 -0.9
v -0.7 -0.1 -1
v -0.7 -5.96046e-08 0.8
v -0.7 -5.96046e-08 0.7
v -0.7 -5.96046e-08 -0.9
v -0.7 -5.96046e-08 -1
v -0.7 0.4 0.8
v -0.7 0.4 0.7
v -0.7 0.4 -0.9
v -0.7 0.4 -1
v -0.7 0.5 0.8
v -0.7 0.5 0.7
v -0.7 0.5 -0.9
v -0.7 0.5 -1
v -0.7 1 0.2
v -0.7 1 0.1
v -0.7 1 -0.3
v -0.7 1 -0.4
v -0.7 1.1 0.2
v -0.7 1.1 0.1
v -0.7 1.1 -0.3
v -0.7 1.1 -0.4
v -0.6 -0.7 0.3
v -0.6 -0.7 0.2
v -0.6 -0.7 -0.4
v -0.6 -0.7 -0.5
v -0.6 -0.6 0.3
v -0.6 -0.6 0.2
v -0.6 -0.6 -0.4
v -0.6 -0.6 -0.5
v -0.6 -0.2 0.8
v -0.6 -0.2 0.7
v -0.6 -0.2 -0.9
v -0.6 -0.2 -1
v -0.6 -0.1 0.8
v -0.6 -0.1 0.7
v -0.6 -0.1 -0.9
v -0.6 -0.1 -1
v -0.6 0.5 0.8
v -0.6 0.5 0.7
v -0.6 0.5 -0.9
v -0.6 0.5 -1
v -0.6 0.6 0.8
v -0.6 0.6 0.7
v -0.6 0.6 -0.9
v -0.6 0.6 -1
v -0.6 1 0.3
v -0.6 1 0.2
v -0.6 1 -0.4
v -0.6 1 -0.5
v -0.6 1.1 0.3
v -0.6 1.1 0.2
v -0.6 1.1 -0.4
v -0.6 1.1 -0.5
v 0.4 -0.7 0.8
v 0.4 -0.7 0.6
v 0.4 -0.7 -0.7
v 0.4 -0.7 -1
v 0.4 -0.6 0.7
v 0.4 -0.6 0.6
v 0.4 -0.6 -0.7
v 0.4 -0.6 -0.9
v 0.4 -0.4 0.8
v 0.4 -0.4 0.7
v 0.4 -0.4 -0.9
v 0.4 -0.4 -1
v 0.4 0.8 0.8
v 0.4 0.8 0.7
v 0.4 0.8 -0.9
v 0.4 0.8 -1
v 0.4 1 0.7
v 0.4 1 0.5
v 0.4 1 -0.7
v 0.4 1 -0.9
v 0.4 1 -1
v 0.4 1.1 0.8
v 0.4 1.1 0.5
v 0.4 1.1 -0.7
v 0.4 1.1 -0.9
v 1.1 -0.3 0.1
v 1.1 -0.3 -0.3
v 1.1 -0.2 0.1
v 1.1 -0.2 -0.3
v 1.1 -5.96046e-08 0.4
v 1.1 -5.96046e-08 0.3
v 1.1 -5.96046e-08 -0.5
v 1.1 -5.96046e-08 -0.6
v 1.1 0.4 0.4
v 1.1 0.4 0.3
v 1.1 0.4 -0.5
v 1.1 0.4 -0.6
v 1.1 0.6 0.1
v 1.1 0.6 -0.3
v 1.1 0.7 0.1
v 1.1 0.7 -0.3
v 1.3 -0.4 0.1
v 1.3 -0.4 -0.3
v 1.3 -0.3 0.1
v 1.3 -0.3 -0.3
v 1.3 -5.96046e-08 0.5
v 1.3 -5.96046e-08 0.4
v 1.3 -5.96046e-08 -0.6
v 1.3 -5.96046e-08 -0.7
v 1.3 0.4 0.5
v 1.3 0.4 0.4
v 1.3 0.4 -0.6
v 1.3 0.4 -0.7
v 1.3 0.7 0.1
v 1.3 0.7 -0.3
v 1.3 0.8 0.1
v 1.3 0.8 -0.3
v 1.4 -0.6 0.5
v 1.4 -0.6 -0.7
v 1.4 -0.4 0.7
v 1.4 -0.4 0.5
v 1.4 -0.4 0.1
v 1.4 -0.4 -0.3
v 1.4 -0.4 -0.7
v 1.4 -0.4 -0.9
v 1.4 -0.2 0.3
v 1.4 -0.2 0.1
v 1.4 -0.2 -0.3
v 1.4 -0.2 -0.5
v 1.4 -5.96046e-08 0.5
v 1.4 -5.96046e-08 0.3
v 1.4 -5.96046e-08 -0.5
v 1.4 -5.96046e-08 -0.7
v 1.4 0.4 0.5
v 1.4 0.4 0.3
v 1.4 0.4 -0.5
v 1.4 0.4 -0.7
v 1.4 0.6 0.3
v 1.4 0.6 0.1
v 1.4 0.6 -0.3
v 1.4 0.6 -0.5
v 1.4 0.8 0.7
v 1.4 0.8 0.5
v 1.4 0.8 0.1
v 1.4 0.8 -0.3
v 1.4 0.8 -0.7
v 1.4 0.8 -0.9
v 1.4 1 0.5
v 1.4 1 -0.7
v -2.1 -0.7 0.8
v -2.1 -0.7 0.5
v -2.1 -0.7 -0.8
v -2.1 -0.7 -1
v -2.1 -0.6 0.7
v -2.1 -0.6 0.5
v -2.1 -0.6 -0.8
v -2.1 -0.6 -0.9
v -2.1 -0.4 0.8
v -2.1 -0.4 0.7
v -2.1 -0.4 -0.9
v -2.1 -0.4 -1
v -2.1 0.8 0.8
v -2.1 0.8 0.7
v -2.1 0.8 -0.9
v -2.1 0.8 -1
v -2.1 1 0.7
v -2.1 1 0.5
v -2.1 1 -0.7
v -2.1 1 -0.9
v -2.1 1.1 0.8
v -2.1 1.1 0.5
v -2.1 1.1 -0.7
v -2.1 1.1 -1
v -1.3 -0.7 0.1
v -1.3 -0.7 -5.96046e-08
v -1.3 -0.7 -0.2
v -1.3 -0.7 -0.3
v -1.3 -0.6 0.1
v -1.3 -0.6 -5.96046e-08
v -1.3 -0.6 -0.2
v -1.3 -0.6 -0.3
v -1.3 -5.96046e-08 0.8
v -1.3 -5.96046e-08 0.7
v -1.3 -5.96046e-08 -0.9
v -1.3 -5.96046e-08 -1
v -1.3 0.1 0.8
v -1.3 0.1 0.7
v -1.3 0.1 -0.9
v -1.3 0.1 -1
v -1.3 0.3 0.8
v -1.3 0.3 0.7
v -1.3 0.3 -0.9
v -1.3 0.3 -1
v -1.3 0.4 0.8
v -1.3 0.4 0.7
v -1.3 0.4 -0.9
v -1.3 0.4 -1
v -1.3 1 0.1
v -1.3 1 -5.96046e-08
v -1.3 1 -0.2
v -1.3 1 -0.3
v -1.3 1.1 0.1
v -1.3 1.1 -5.96046e-08
v -1.3 1.1 -0.2
v -1.3 1.1 -0.3
v -1.2 -0.7 0.6
v -1.2 -0.7 0.1
v -1.2 -0.7 -0.3
v -1.2 -0.7 -0.8
v -1.2 -0.6 0.6
v -1.2 -0.6 0.1
v -1.2 -0.6 -0.3
v -1.2 -0.6 -0.8
v -1.2 -0.5 0.8
v -1.2 -0.5 0.7
v -1.2 -0.5 -0.9
v -1.2 -0.5 -1
v -1.2 -5.96046e-08 0.8
v -1.2 -5.96046e-08 0.7
v -1.2 -5.96046e-08 -0.9
v -1.2 -5.96046e-08 -1
v -1.2 0.4 0.8
v -1.2 0.4 0.7
v -1.2 0.4 -0.9
v -1.2 0.4 -1
v -1.2 0.9 0.8
v -1.2 0.9 0.7
v -1.2 0.9 -0.9
v -1.2 0.9 -1
v -1.2 1 0.6
v -1.2 1 0.1
v -1.2 1 -0.3
v -1.2 1 -0.8
v -1.2 1.1 0.6
v -1.2 1.1 0.1
v -1.2 1.1 -0.3
v -1.2 1.1 -0.8
v -0.9 -0.7 -5.96046e-08
v -0.9 -0.7 -0.2
v -0.9 -0.6 -5.96046e-08
v -0.9 -0.6 -0.2
v -0.9 0.1 0.8
v -0.9 0.1 0.7
v -0.9 0.1 -0.9
v -0.9 0.1 -1
v -0.9 0.3 0.8
v -0.9 0.3 0.7
v -0.9 0.3 -0.9
v -0.9 0.3 -1
v -0.9 1 -5.96046e-08
v -0.9 1 -0.2
v -0.9 1.1 -5.96046e-08
v -0.9 1.1 -0.2
v -0.2 -0.7 0.3
v -0.2 -0.7 -0.5
v -0.2 -0.6 0.3
v -0.2 -0.6 -0.5
v -0.2 -0.2 0.8
v -0.2 -0.2 0.7
v -0.2 -0.2 -0.9
v -0.2 -0.2 -1
v -0.2 0.6 0.8
v -0.2 0.6 0.7
v -0.2 0.6 -0.9
v -0.2 0.6 -1
v -0.2 1 0.3
v -0.2 1 -0.5
v -0.2 1.1 0.3
v -0.2 1.1 -0.5
v 0.6 -0.7 0.8
v 0.6 -0.7 0.6
v 0.6 -0.7 -0.7
v 0.6 -0.7 -1
v 0.6 -0.6 0.7
v 0.6 -0.6 0.6
v 0.6 -0.6 -0.7
v 0.6 -0.6 -0.9
v 0.6 -0.4 0.8
v 0.6 -0.4 0.7
v 0.6 -0.4 -0.9
v 0.6 -0.4 -1
v 0.6 0.8 0.8
v 0.6 0.8 0.7
v 0.6 0.8 -0.9
v 0.6 0.8 -1
v 0.6 1 0.7
v 0.6 1 0.5
v 0.6 1 -0.7
v 0.6 1 -0.9
v 0.6 1 -1
v 0.6 1.1 0.8
v 0.6 1.1 0.5
v 0.6 1.1 -0.7
v 0.6 1.1 -0.9
v 0.8 -0.6 0.7
v 0.8 -0.6 -0.9
v 0.8 -0.2 0.3
v 0.8 -0.2 -0.5
v 0.8 0.6 0.3
v 0.8 0.6 -0.5
v 0.8 1 0.7
v 0.8 1 -0.9
v 1.6 -0.4 0.5
v 1.6 -0.4 -0.7
v 1.6 -0.2 0.3
v 1.6 -0.2 0.2
v 1.6 -0.2 -0.4
v 1.6 -0.2 -0.5
v 1.6 -0.1 0.2
v 1.6 -0.1 0.1
v 1.6 -0.1 -0.3
v 1.6 -0.1 -0.4
v 1.6 -5.96046e-08 0.1
v 1.6 -5.96046e-08 -5.96046e-08
v 1.6 -5.96046e-08 -0.2
v 1.6 -5.96046e-08 -0.3
v 1.6 0.1 -5.96046e-08
v 1.6 0.1 -0.2
v 1.6 0.3 -5.96046e-08
v 1.6 0.3 -0.2
v 1.6 0.4 0.1
v 1.6 0.4 -5.96046e-08
v 1.6 0.4 -0.2
v 1.6 0.4 -0.3
v 1.6 0.5 0.2
v 1.6 0.5 0.1
v 1.6 0.5 -0.3
v 1.6 0.5 -0.4
v 1.6 0.6 0.3
v 1.6 0.6 0.2
v 1.6 0.6 -0.4
v 1.6 0.6 -0.5
v 1.6 0.8 0.5
v 1.6 0.8 -0.7
v 2.1 -5.96046e-08 0.1
v 2.1 -5.96046e-08 -5.96046e-08
v 2.1 -5.96046e-08 -0.2
v 2.1 -5.96046e-08 -0.3
v 2.1 0.1 -5.96046e-08
v 2.1 0.1 -0.2
v 2.1 0.3 -5.96046e-08
v 2.1 0.3 -0.2
v 2.1 0.4 0.1
v 2.1 0.4 -5.96046e-08
v 2.1 0.4 -0.2
v 2.1 0.4 -0.3
v 2.2 -0.6 0.5
v 2.2 -0.6 -0.7
v 2.2 -0.4 0.7
v 2.2 -0.4 0.5
v 2.2 -0.4 -0.7
v 2.2 -0.4 -0.9
v 2.2 -0.1 0.2
v 2.2 -0.1 0.1
v 2.2 -5.96046e-08 -0.3
v 2.2 -5.96046e-08 -0.4
v 2.2 0.5 0.2
v 2.2 0.5 0.1
v 2.2 0.5 -0.3
v 2.2 0.5 -0.4
v 2.2 0.8 0.7
v 2.2 0.8 0.5
v 2.2 0.8 -0.7
v 2.2 0.8 -0.9
v 2.2 1 0.5
v 2.2 1 -0.7
v 2.3 -0.2 0.3
v 2.3 -0.2 0.2
v 2.3 -0.2 -0.4
v 2.3 -0.2 -0.5
v 2.3 -0.1 -0.3
v 2.3 -0.1 -0.4
v 2.3 -5.96046e-08 -0.3
v 2.3 -5.96046e-08 -0.4
v 2.3 0.6 0.3
v 2.3 0.6 0.2
v 2.3 0.6 -0.4
v 2.3 0.6 -0.5
v 2.4 0.1 -5.96046e-08
v 2.4 0.1 -0.2
v 2.4 0.3 -5.96046e-08
v 2.4 0.3 -0.2
v -2.3 -0.7 0.8
v -2.3 -0.4 0.8
v -2.3 0.8 0.8
v -2.3 1.1 0.8
v -2.1 -0.7 0.8
v -2.1 -0.4 0.8
v -2.1 0.8 0.8
v -2.1 1.1 0.8
v -1.8 -0.1 0.8
v -1.8 0.1 0.8
v -1.8 0.3 0.8
v -1.8 0.5 0.8
v -1.7 -0.2 0.8
v -1.7 -0.1 0.8
v -1.7 0.5 0.8
v -1.7 0.6 0.8
v -1.6 -0.3 0.8
v -1.6 -0.2 0.8
v -1.6 0.6 0.8
v -1.6 0.7 0.8
v -1.5 -0.4 0.8
v -1.5 -0.3 0.8
v -1.5 0.7 0.8
v -1.5 0.8 0.8
v -1.3 -0.5 0.8
v -1.3 -0.4 0.8
v -1.3 -5.96046e-08 0.8
v -1.3 0.1 0.8
v -1.3 0.3 0.8
v -1.3 0.4 0.8
v -1.3 0.8 0.8
v -1.3 0.9 0.8
v -1.2 -0.5 0.8
v -1.2 -5.96046e-08 0.8
v -1.2 0.4 0.8
v -1.2 0.9 0.8
v -1.1 0.1 0.8
v -1.1 0.3 0.8
v -0.9 0.1 0.8
v -0.9 0.3 0.8
v -0.8 -5.96046e-08 0.8
v -0.8 0.4 0.8
v -0.7 -0.1 0.8
v -0.7 -5.96046e-08 0.8
v -0.7 0.4 0.8
v -0.7 0.5 0.8
v -0.6 -0.2 0.8
v -0.6 -0.1 0.8
v -0.6 0.5 0.8
v -0.6 0.6 0.8
v -0.2 -0.2 0.8
v -0.2 0.6 0.8
v 0.4 -0.7 0.8
v 0.4 -0.4 0.8
v 0.4 0.8 0.8
v 0.4 1.1 0.8
v 0.6 -0.7 0.8
v 0.6 -0.4 0.8
v 0.6 0.8 0.8
v 0.6 1.1 0.8
v -2.4 -0.6 0.7
v -2.4 1 0.7
v -2.3 -0.6 0.7
v -2.3 -0.4 0.7
v -2.3 0.8 0.7
v -2.3 1 0.7
v -2.1 -0.6 0.7
v -2.1 -0.4 0.7
v -2.1 0.8 0.7
v -2.1 1 0.7
v -1.8 -0.1 0.7
v -1.8 0.1 0.7
v -1.8 0.3 0.7
v -1.8 0.5 0.7
v -1.7 -0.2 0.7
v -1.7 -0.1 0.7
v -1.7 0.5 0.7
v -1.7 0.6 0.7
v -1.6 -0.3 0.7
v -1.6 -0.2 0.7
v -1.6 0.6 0.7
v -1.6 0.7 0.7
v -1.5 -0.4 0.7
v -1.5 -0.3 0.7
v -1.5 0.7 0.7
v -1.5 0.8 0.7
v -1.3 -0.5 0.7
v -1.3 -0.4 0.7
v -1.3 -5.96046e-08 0.7
v -1.3 0.1 0.7
v -1.3 0.3 0.7
v -1.3 0.4 0.7
v -1.3 0.8 0.7
v -1.3 0.9 0.7
v -1.2 -0.5 0.7
v -1.2 -5.96046e-08 0.7
v -1.2 0.4 0.7
v -1.2 0.9 0.7
v -1.1 0.1 0.7
v -1.1 0.3 0.7
v -0.9 0.1 0.7
v -0.9 0.3 0.7
v -0.8 -5.96046e-08 0.7
v -0.8 0.4 0.7
v -0.7 -0.1 0.7
v -0.7 -5.96046e-08 0.7
v -0.7 0.4 0.7
v -0.7 0.5 0.7
v -0.6 -0.2 0.7
v -0.6 -0.1 0.7
v -0.6 0.5 0.7
v -0.6 0.6 0.7
v -0.2 -0.2 0.7
v -0.2 0.6 0.7
v 0.4 -0.6 0.7
v 0.4 -0.4 0.7
v 0.4 0.8 0.7
v 0.4 1 0.7
v 0.6 -0.6 0.7
v 0.6 -0.4 0.7
v 0.6 0.8 0.7
v 0.6 1 0.7
v 0.8 -0.6 0.7
v 0.8 1 0.7
v 1.4 -0.4 0.7
v 1.4 0.8 0.7
v 1.7 -0.3 0.7
v 1.7 0.1 0.7
v 1.7 0.3 0.7
v 1.7 0.7 0.7
v 2.1 -0.3 0.7
v 2.1 0.1 0.7
v 2.1 0.3 0.7
v 2.1 0.7 0.7
v 2.2 -0.4 0.7
v 2.2 0.8 0.7
v -1.3 -0.7 0.6
v -1.3 -0.6 0.6
v -1.3 1 0.6
v -1.3 1.1 0.6
v -1.2 -0.7 0.6
v -1.2 -0.6 0.6
v -1.2 1 0.6
v -1.2 1.1 0.6
v -1.5 -0.7 0.5
v -1.5 -0.6 0.5
v -1.5 1 0.5
v -1.5 1.1 0.5
v -1.3 -0.7 0.5
v -1.3 -0.6 0.5
v -1.3 1 0.5
v -1.3 1.1 0.5
v 1.3 -5.96046e-08 0.5
v 1.3 0.4 0.5
v 1.4 -0.6 0.5
v 1.4 -0.4 0.5
v 1.4 -5.96046e-08 0.5
v 1.4 0.4 0.5
v 1.4 0.8 0.5
v 1.4 1 0.5
v 2.2 -0.6 0.5
v 2.2 -0.4 0.5
v 2.2 0.8 0.5
v 2.2 1 0.5
v -1.6 -0.7 0.4
v -1.6 -0.6 0.4
v -1.6 1 0.4
v -1.6 1.1 0.4
v -1.5 -0.7 0.4
v -1.5 -0.6 0.4
v -1.5 1 0.4
v -1.5 1.1 0.4
v 1.1 -5.96046e-08 0.4
v 1.1 0.4 0.4
v 1.3 -5.96046e-08 0.4
v 1.3 0.4 0.4
v -1.7 -0.7 0.3
v -1.7 -0.6 0.3
v -1.7 1 0.3
v -1.7 1.1 0.3
v -1.6 -0.7 0.3
v -1.6 -0.6 0.3
v -1.6 1 0.3
v -1.6 1.1 0.3
v -0.6 -0.7 0.3
v -0.6 -0.6 0.3
v -0.6 1 0.3
v -0.6 1.1 0.3
v -0.2 -0.7 0.3
v -0.2 -0.6 0.3
v -0.2 1 0.3
v -0.2 1.1 0.3
v 0.8 -0.2 0.3
v 0.8 0.6 0.3
v 1.1 -5.96046e-08 0.3
v 1.1 0.4 0.3
v 1.4 -0.2 0.3
v 1.4 -5.96046e-08 0.3
v 1.4 0.4 0.3
v 1.4 0.6 0.3
v 1.6 -0.2 0.3
v 1.6 0.6 0.3
v 2.3 -0.2 0.3
v 2.3 0.6 0.3
v -1.8 -0.7 0.2
v -1.8 -0.6 0.2
v -1.8 1 0.2
v -1.8 1.1 0.2
v -1.7 -0.7 0.2
v -1.7 -0.6 0.2
v -1.7 1 0.2
v -1.7 1.1 0.2
v -0.7 -0.7 0.2
v -0.7 -0.6 0.2
v -0.7 1 0.2
v -0.7 1.1 0.2
v -0.6 -0.7 0.2
v -0.6 -0.6 0.2
v -0.6 1 0.2
v -0.6 1.1 0.2
v -0.8 -0.7 0.1
v -0.8 -0.6 0.1
v -0.8 1 0.1
v -0.8 1.1 0.1
v -0.7 -0.7 0.1
v -0.7 -0.6 0.1
v -0.7 1 0.1
v -0.7 1.1 0.1
v 1.1 -0.3 0.1
v 1.1 -0.2 0.1
v 1.1 0.6 0.1
v 1.1 0.7 0.1
v 1.3 -0.4 0.1
v 1.3 -0.3 0.1
v 1.3 0.7 0.1
v 1.3 0.8 0.1
v 1.4 -0.4 0.1
v 1.4 -0.2 0.1
v 1.4 0.6 0.1
v 1.4 0.8 0.1
v -1.1 -0.7 -5.96046e-08
v -1.1 -0.6 -5.96046e-08
v -1.1 1 -5.96046e-08
v -1.1 1.1 -5.96046e-08
v -0.9 -0.7 -5.96046e-08
v -0.9 -0.6 -5.96046e-08
v -0.9 1 -5.96046e-08
v -0.9 1.1 -5.96046e-08
v 2.1 0.1 -5.96046e-08
v 2.1 0.3 -5.96046e-08
v 2.4 0.1 -5.96046e-08
v 2.4 0.3 -5.96046e-08
v -1.8 -0.7 -0.2
v -1.8 -0.6 -0.2
v -1.8 1 -0.2
v -1.8 1.1 -0.2
v -1.3 -0.7 -0.2
v -1.3 -0.6 -0.2
v -1.3 1 -0.2
v -1.3 1.1 -0.2
v 1.6 -5.96046e-08 -0.2
v 1.6 0.1 -0.2
v 1.6 0.3 -0.2
v 1.6 0.4 -0.2
v 2.1 -5.96046e-08 -0.2
v 2.1 0.1 -0.2
v 2.1 0.3 -0.2
v 2.1 0.4 -0.2
v -1.3 -0.7 -0.3
v -1.3 -0.6 -0.3
v -1.3 1 -0.3
v -1.3 1.1 -0.3
v -1.2 -0.7 -0.3
v -1.2 -0.6 -0.3
v -1.2 1 -0.3
v -1.2 1.1 -0.3
v 1.6 -0.1 -0.3
v 1.6 -5.96046e-08 -0.3
v 1.6 0.4 -0.3
v 1.6 0.5 -0.3
v 2.1 -5.96046e-08 -0.3
v 2.1 0.4 -0.3
v 2.2 -5.96046e-08 -0.3
v 2.2 0.5 -0.3
v 2.3 -0.1 -0.3
v 2.3 -5.96046e-08 -0.3
v 1.6 -0.2 -0.4
v 1.6 -0.1 -0.4
v 1.6 0.5 -0.4
v 1.6 0.6 -0.4
v 2.2 -5.96046e-08 -0.4
v 2.2 0.5 -0.4
v 2.3 -0.2 -0.4
v 2.3 -0.1 -0.4
v 2.3 -5.96046e-08 -0.4
v 2.3 0.6 -0.4
v -2.3 1 -0.7
v -2.3 1.1 -0.7
v -2.1 1 -0.7
v -2.1 1.1 -0.7
v 0.4 -0.7 -0.7
v 0.4 -0.6 -0.7
v 0.4 1 -0.7
v 0.4 1.1 -0.7
v 0.6 -0.7 -0.7
v 0.6 -0.6 -0.7
v 0.6 1 -0.7
v 0.6 1.1 -0.7
v 1.6 -0.4 -0.7
v 1.6 0.8 -0.7
v 2.2 -0.4 -0.7
v 2.2 0.8 -0.7
v -2.3 -0.7 -0.8
v -2.3 -0.6 -0.8
v -2.1 -0.7 -0.8
v -2.1 -0.6 -0.8
v 0.4 -0.7 0.6
v 0.4 -0.6 0.6
v 0.6 -0.7 0.6
v 0.6 -0.6 0.6
v -2.3 -0.7 0.5
v -2.3 -0.6 0.5
v -2.3 1 0.5
v -2.3 1.1 0.5
v -2.1 -0.7 0.5
v -2.1 -0.6 0.5
v -2.1 1 0.5
v -2.1 1.1 0.5
v 0.4 1 0.5
v 0.4 1.1 0.5
v 0.6 1 0.5
v 0.6 1.1 0.5
v 1.6 -0.4 0.5
v 1.6 0.8 0.5
v 2.2 -0.4 0.5
v 2.2 0.8 0.5
v 1.6 -0.2 0.2
v 1.6 -0.1 0.2
v 1.6 0.5 0.2
v 1.6 0.6 0.2
v 2.2 -0.1 0.2
v 2.2 0.5 0.2
v 2.3 -0.2 0.2
v 2.3 0.6 0.2
v -1.3 -0.7 0.1
v -1.3 -0.6 0.1
v -1.3 1 0.1
v -1.3 1.1 0.1
v -1.2 -0.7 0.1
v -1.2 -0.6 0.1
v -1.2 1 0.1
v -1.2 1.1 0.1
v 1.6 -0.1 0.1
v 1.6 -5.96046e-08 0.1
v 1.6 0.4 0.1
v 1.6 0.5 0.1
v 2.1 -5.96046e-08 0.1
v 2.1 0.4 0.1
v 2.2 -0.1 0.1
v 2.2 0.5 0.1
v -1.8 -0.7 -5.96046e-08
v -1.8 -0.6 -5.96046e-08
v -1.8 1 -5.96046e-08
v -1.8 1.1 -5.96046e-08
v -1.3 -0.7 -5.96046e-08
v -1.3 -0.6 -5.96046e-08
v -1.3 1 -5.96046e-08
v -1.3 1.1 -5.96046e-08
v 1.6 -5.96046e-08 -5.96046e-08
v 1.6 0.1 -5.96046e-08
v 1.6 0.3 -5.96046e-08
v 1.6 0.4 -5.96046e-08
v 2.1 -5.96046e-08 -5.96046e-08
v 2.1 0.1 -5.96046e-08
v 2.1 0.3 -5.96046e-08
v 2.1 0.4 -5.96046e-08
v -1.1 -0.7 -0.2
v -1.1 -0.6 -0.2
v -1.1 1 -0.2
v -1.1 1.1 -0.2
v -0.9 -0.7 -0.2
v -0.9 -0.6 -0.2
v -0.9 1 -0.2
v -0.9 1.1 -0.2
v 2.1 0.1 -0.2
v 2.1 0.3 -0.2
v 2.4 0.1 -0.2
v 2.4 0.3 -0.2
v -0.8 -0.7 -0.3
v -0.8 -0.6 -0.3
v -0.8 1 -0.3
v -0.8 1.1 -0.3
v -0.7 -0.7 -0.3
v -0.7 -0.6 -0.3
v -0.7 1 -0.3
v -0.7 1.1 -0.3
v 1.1 -0.3 -0.3
v 1.1 -0.2 -0.3
v 1.1 0.6 -0.3
v 1.1 0.7 -0.3
v 1.3 -0.4 -0.3
v 1.3 -0.3 -0.3
v 1.3 0.7 -0.3
v 1.3 0.8 -0.3
v 1.4 -0.4 -0.3
v 1.4 -0.2 -0.3
v 1.4 0.6 -0.3
v 1.4 0.8 -0.3
v -1.8 -0.7 -0.4
v -1.8 -0.6 -0.4
v -1.8 1 -0.4
v -1.8 1.1 -0.4
v -1.7 -0.7 -0.4
v -1.7 -0.6 -0.4
v -1.7 1 -0.4
v -1.7 1.1 -0.4
v -0.7 -0.7 -0.4
v -0.7 -0.6 -0.4
v -0.7 1 -0.4
v -0.7 1.1 -0.4
v -0.6 -0.7 -0.4
v -0.6 -0.6 -0.4
v -0.6 1 -0.4
v -0.6 1.1 -0.4
v -1.7 -0.7 -0.5
v -1.7 -0.6 -0.5
v -1.7 1 -0.5
v -1.7 1.1 -0.5
v -1.6 -0.7 -0.5
v -1.6 -0.6 -0.5
v -1.6 1 -0.5
v -1.6 1.1 -0.5
v -0.6 -0.7 -0.5
v -0.6 -0.6 -0.5
v -0.6 1 -0.5
v -0.6 1.1 -0.5
v -0.2 -0.7 -0.5
v -0.2 -0.6 -0.5
v -0.2 1 -0.5
v -0.2 1.1 -0.5
v 0.8 -0.2 -0.5
v 0.8 0.6 -0.5
v 1.1 -5.96046e-08 -0.5
v 1.1 0.4 -0.5
v 1.4 -0.2 -0.5
v 1.4 -5.96046e-08 -0.5
v 1.4 0.4 -0.5
v 1.4 0.6 -0.5
v 1.6 -0.2 -0.5
v 1.6 0.6 -0.5
v 2.3 -0.2 -0.5
v 2.3 0.6 -0.5
v -1.6 -0.7 -0.6
v -1.6 -0.6 -0.6
v -1.6 1 -0.6
v -1.6 1.1 -0.6
v -1.5 -0.7 -0.6
v -1.5 -0.6 -0.6
v -1.5 1 -0.6
v -1.5 1.1 -0.6
v 1.1 -5.96046e-08 -0.6
v 1.1 0.4 -0.6
v 1.3 -5.96046e-08 -0.6
v 1.3 0.4 -0.6
v -1.5 -0.7 -0.7
v -1.5 -0.6 -0.7
v -1.5 1 -0.7
v -1.5 1.1 -0.7
v -1.3 -0.7 -0.7
v -1.3 -0.6 -0.7
v -1.3 1 -0.7
v -1.3 1.1 -0.7
v 1.3 -5.96046e-08 -0.7
v 1.3 0.4 -0.7
v 1.4 -0.6 -0.7
v 1.4 -0.4 -0.7
v 1.4 -5.96046e-08 -0.7
v 1.4 0.4 -0.7
v 1.4 0.8 -0.7
v 1.4 1 -0.7
v 2.2 -0.6 -0.7
v 2.2 -0.4 -0.7
v 2.2 0.8 -0.7
v 2.2 1 -0.7
v -1.3 -0.7 -0.8
v -1.3 -0.6 -0.8
v -1.3 1 -0.8
v -1.3 1.1 -0.8
v -1.2 -0.7 -0.8
v -1.2 -0.6 -0.8
v -1.2 1 -0.8
v -1.2 1.1 -0.8
v -2.4 -0.6 -0.9
v -2.4 1 -0.9
v -2.3 -0.6 -0.9
v -2.3 -0.4 -0.9
v -2.3 0.8 -0.9
v -2.3 1 -0.9
v -2.1 -0.6 -0.9
v -2.1 -0.4 -0.9
v -2.1 0.8 -0.9
v -2.1 1 -0.9
v -1.8 -0.1 -0.9
v -1.8 0.1 -0.9
v -1.8 0.3 -0.9
v -1.8 0.5 -0.9
v -1.7 -0.2 -0.9
v -1.7 -0.1 -0.9
v -1.7 0.5 -0.9
v -1.7 0.6 -0.9
v -1.6 -0.3 -0.9
v -1.6 -0.2 -0.9
v -1.6 0.6 -0.9
v -1.6 0.7 -0.9
v -1.5 -0.4 -0.9
v -1.5 -0.3 -0.9
v -1.5 0.7 -0.9
v -1.5 0.8 -0.9
v -1.3 -0.5 -0.9
v -1.3 -0.4 -0.9
v -1.3 -5.96046e-08 -0.9
v -1.3 0.1 -0.9
v -1.3 0.3 -0.9
v -1.3 0.4 -0.9
v -1.3 0.8 -0.9
v -1.3 0.9 -0.9
v -1.2 -0.5 -0.9
v -1.2 -5.96046e-08 -0.9
v -1.2 0.4 -0.9
v -1.2 0.9 -0.9
v -1.1 0.1 -0.9
v -1.1 0.3 -0.9
v -0.9 0.1 -0.9
v -0.9 0.3 -0.9
v -0.8 -5.96046e-08 -0.9
v -0.8 0.4 -0.9
v -0.7 -0.1 -0.9
v -0.7 -5.96046e-08 -0.9
v -0.7 0.4 -0.9
v -0.7 0.5 -0.9
v -0.6 -0.2 -0.9
v -0.6 -0.1 -0.9
v -0.6 0.5 -0.9
v -0.6 0.6 -0.9
v -0.2 -0.2 -0.9
v -0.2 0.6 -0.9
v 0.4 -0.6 -0.9
v 0.4 -0.4 -0.9
v 0.4 0.8 -0.9
v 0.4 1 -0.9
v 0.4 1.1 -0.9
v 0.6 -0.6 -0.9
v 0.6 -0.4 -0.9
v 0.6 0.8 -0.9
v 0.6 1 -0.9
v 0.6 1.1 -0.9
v 0.8 -0.6 -0.9
v 0.8 1 -0.9
v 1.4 -0.4 -0.9
v 1.4 0.8 -0.9
v 1.6 -0.3 -0.9
v 1.6 0.1 -0.9
v 1.6 0.3 -0.9
v 1.6 0.7 -0.9
v 2 -0.3 -0.9
v 2 0.1 -0.9
v 2 0.3 -0.9
v 2 0.7 -0.9
v 2.2 -0.4 -0.9
v 2.2 0.8 -0.9
v -2.3 -0.7 -1
v -2.3 -0.4 -1
v -2.3 0.8 -1
v -2.3 1.1 -1
v -2.1 -0.7 -1
v -2.1 -0.4 -1
v -2.1 0.8 -1
v -2.1 1.1 -1
v -1.8 -0.1 -1
v -1.8 0.1 -1
v -1.8 0.3 -1
v -1.8 0.5 -1
v -1.7 -0.2 -1
v -1.7 -0.1 -1
v -1.7 0.5 -1
v -1.7 0.6 -1
v -1.6 -0.3 -1
v -1.6 -0.2 -1
v -1.6 0.6 -1
v -1.6 0.7 -1
v -1.5 -0.4 -1
v -1.5 -0.3 -1
v -1.5 0.7 -1
v -1.5 0.8 -1
v -1.3 -0.5 -1
v -1.3 -0.4 -1
v -1.3 -5.96046e-08 -1
v -1.3 0.1 -1
v -1.3 0.3 -1
v -1.3 0.4 -1
v -1.3 0.8 -1
v -1.3 0.9 -1
v -1.2 -0.5 -1
v -1.2 -5.96046e-08 -1
v -1.2 0.4 -1
v -1.2 0.9 -1
v -1.1 0.1 -1
v -1.1 0.3 -1
v -0.9 0.1 -1
v -0.9 0.3 -1
v -0.8 -5.96046e-08 -1
v -0.8 0.4 -1
v -0.7 -0.1 -1
v -0.7 -5.96046e-08 -1
v -0.7 0.4 -1
v -0.7 0.5 -1
v -0.6 -0.2 -1
v -0.6 -0.1 -1
v -0.6 0.5 -1
v -0.6 0.6 -1
v -0.2 -0.2 -1
v -0.2 0.6 -1
v 0.4 -0.7 -1
v 0.4 -0.4 -1
v 0.4 0.8 -1
v 0.4 1 -1
v 0.6 -0.7 -1
v 0.6 -0.4 -1
v 0.6 0.8 -1
v 0.6 1 -1
v -2.3 -0.7 0.8
v -2.1 -0.7 0.8
v 0.4 -0.7 0.8
v 0.6 -0.7 0.8
v -1.3 -0.7 0.6
v -1.2 -0.7 0.6
v 0.4 -0.7 0.6
v 0.6 -0.7 0.6
v -2.3 -0.7 0.5
v -2.1 -0.7 0.5
v -1.5 -0.7 0.5
v -1.3 -0.7 0.5
v -1.6 -0.7 0.4
v -1.5 -0.7 0.4
v -1.7 -0.7 0.3
v -1.6 -0.7 0.3
v -0.6 -0.7 0.3
v -0.2 -0.7 0.3
v -1.8 -0.7 0.2
v -1.7 -0.7 0.2
v -0.7 -0.7 0.2
v -0.6 -0.7 0.2
v -1.3 -0.7 0.1
v -1.2 -0.7 0.1
v -0.8 -0.7 0.1
v -0.7 -0.7 0.1
v -1.8 -0.7 -5.96046e-08
v -1.3 -0.7 -5.96046e-08
v -1.1 -0.7 -5.96046e-08
v -0.9 -0.7 -5.96046e-08
v -1.8 -0.7 -0.2
v -1.3 -0.7 -0.2
v -1.1 -0.7 -0.2
v -0.9 -0.7 -0.2
v -1.3 -0.7 -0.3
v -1.2 -0.7 -0.3
v -0.8 -0.7 -0.3
v -0.7 -0.7 -0.3
v -1.8 -0.7 -0.4
v -1.7 -0.7 -0.4
v -0.7 -0.7 -0.4
v -0.6 -0.7 -0.4
v -1.7 -0.7 -0.5
v -1.6 -0.7 -0.5
v -0.6 -0.7 -0.5
v -0.2 -0.7 -0.5
v -1.6 -0.7 -0.6
v -1.5 -0.7 -0.6
v -1.5 -0.7 -0.7
v -1.3 -0.7 -0.7
v 0.4 -0.7 -0.7
v 0.6 -0.7 -0.7
v -2.3 -0.7 -0.8
v -2.1 -0.7 -0.8
v -1.3 -0.7 -0.8
v -1.2 -0.7 -0.8
v -2.3 -0.7 -1
v -2.1 -0.7 -1
v 0.4 -0.7 -1
v 0.6 -0.7 -1
v -2.4 -0.6 0.7
v -2.3 -0.6 0.7
v -2.1 -0.6 0.7
v 0.4 -0.6 0.7
v 0.6 -0.6 0.7
v 0.8 -0.6 0.7
v -1.3 -0.6 0.6
v -1.2 -0.6 0.6
v 0.4 -0.6 0.6
v 0.6 -0.6 0.6
v -2.3 -0.6 0.5
v -2.1 -0.6 0.5
v -1.5 -0.6 0.5
v -1.3 -0.6 0.5
v 1.4 -0.6 0.5
v 2.2 -0.6 0.5
v -1.6 -0.6 0.4
v -1.5 -0.6 0.4
v 1.6 -0.6 0.4
v 2 -0.6 0.4
v -1.7 -0.6 0.3
v -1.6 -0.6 0.3
v -0.6 -0.6 0.3
v -0.2 -0.6 0.3
v -1.8 -0.6 0.2
v -1.7 -0.6 0.2
v -0.7 -0.6 0.2
v -0.6 -0.6 0.2
v -1.3 -0.6 0.1
v -1.2 -0.6 0.1
v -0.8 -0.6 0.1
v -0.7 -0.6 0.1
v -1.8 -0.6 -5.96046e-08
v -1.3 -0.6 -5.96046e-08
v -1.1 -0.6 -5.96046e-08
v -0.9 -0.6 -5.96046e-08
v 1.6 -0.6 -5.96046e-08
v 2 -0.6 -5.96046e-08
v -1.8 -0.6 -0.2
v -1.3 -0.6 -0.2
v -1.1 -0.6 -0.2
v -0.9 -0.6 -0.2
v 1.6 -0.6 -0.2
v 2 -0.6 -0.2
v -1.3 -0.6 -0.3
v -1.2 -0.6 -0.3
v -0.8 -0.6 -0.3
v -0.7 -0.6 -0.3
v -1.8 -0.6 -0.4
v -1.7 -0.6 -0.4
v -0.7 -0.6 -0.4
v -0.6 -0.6 -0.4
v -1.7 -0.6 -0.5
v -1.6 -0.6 -0.5
v -0.6 -0.6 -0.5
v -0.2 -0.6 -0.5
v -1.6 -0.6 -0.6
v -1.5 -0.6 -0.6
v 1.6 -0.6 -0.6
v 2 -0.6 -0.6
v -1.5 -0.6 -0.7
v -1.3 -0.6 -0.7
v 0.4 -0.6 -0.7
v 0.6 -0.6 -0.7
v 1.4 -0.6 -0.7
v 2.2 -0.6 -0.7
v -2.3 -0.6 -0.8
v -2.1 -0.6 -0.8
v -1.3 -0.6 -0.8
v -1.2 -0.6 -0.8
v -2.4 -0.6 -0.9
v -2.3 -0.6 -0.9
v -2.1 -0.6 -0.9
v 0.4 -0.6 -0.9
v 0.6 -0.6 -0.9
v 0.8 -0.6 -0.9
v -1.3 -0.5 0.8
v -1.2 -0.5 0.8
v -1.3 -0.5 0.7
v -1.2 -0.5 0.7
v -1.3 -0.5 -0.9
v -1.2 -0.5 -0.9
v -1.3 -0.5 -1
v -1.2 -0.5 -1
v -1.5 -0.4 0.8
v -1.3 -0.4 0.8
v -1.5 -0.4 0.7
v -1.3 -0.4 0.7
v 1.4 -0.4 0.7
v 2.2 -0.4 0.7
v 1.4 -0.4 0.5
v 2.2 -0.4 0.5
v 1.3 -0.4 0.1
v 1.4 -0.4 0.1
v 1.3 -0.4 -0.3
v 1.4 -0.4 -0.3
v 1.4 -0.4 -0.7
v 2.2 -0.4 -0.7
v -1.5 -0.4 -0.9
v -1.3 -0.4 -0.9
v 1.4 -0.4 -0.9
v 2.2 -0.4 -0.9
v -1.5 -0.4 -1
v -1.3 -0.4 -1
v -1.6 -0.3 0.8
v -1.5 -0.3 0.8
v -1.6 -0.3 0.7
v -1.5 -0.3 0.7
v 1.1 -0.3 0.1
v 1.3 -0.3 0.1
v 1.1 -0.3 -0.3
v 1.3 -0.3 -0.3
v -1.6 -0.3 -0.9
v -1.5 -0.3 -0.9
v -1.6 -0.3 -1
v -1.5 -0.3 -1
v -1.7 -0.2 0.8
v -1.6 -0.2 0.8
v -0.6 -0.2 0.8
v -0.2 -0.2 0.8
v -1.7 -0.2 0.7
v -1.6 -0.2 0.7
v -0.6 -0.2 0.7
v -0.2 -0.2 0.7
v 0.8 -0.2 0.3
v 1.4 -0.2 0.3
v 1.6 -0.2 0.3
v 2.3 -0.2 0.3
v 1.6 -0.2 0.2
v 2.3 -0.2 0.2
v 1.1 -0.2 0.1
v 1.4 -0.2 0.1
v 1.1 -0.2 -0.3
v 1.4 -0.2 -0.3
v 1.6 -0.2 -0.4
v 2.3 -0.2 -0.4
v 0.8 -0.2 -0.5
v 1.4 -0.2 -0.5
v 1.6 -0.2 -0.5
v 2.3 -0.2 -0.5
v -1.7 -0.2 -0.9
v -1.6 -0.2 -0.9
v -0.6 -0.2 -0.9
v -0.2 -0.2 -0.9
v -1.7 -0.2 -1
v -1.6 -0.2 -1
v -0.6 -0.2 -1
v -0.2 -0.2 -1
v -1.8 -0.1 0.8
v -1.7 -0.1 0.8
v -0.7 -0.1 0.8
v -0.6 -0.1 0.8
v -1.8 -0.1 0.7
v -1.7 -0.1 0.7
v -0.7 -0.1 0.7
v -0.6 -0.1 0.7
v 1.6 -0.1 0.2
v 2.2 -0.1 0.2
v 1.6 -0.1 0.1
v 2.2 -0.1 0.1
v 1.6 -0.1 -0.3
v 2.3 -0.1 -0.3
v 1.6 -0.1 -0.4
v 2.3 -0.1 -0.4
v -1.8 -0.1 -0.9
v -1.7 -0.1 -0.9
v -0.7 -0.1 -0.9
v -0.6 -0.1 -0.9
v -1.8 -0.1 -1
v -1.7 -0.1 -1
v -0.7 -0.1 -1
v -0.6 -0.1 -1
v -0.8 -5.96046e-08 0.8
v -0.7 -5.96046e-08 0.8
v -0.8 -5.96046e-08 0.7
v -0.7 -5.96046e-08 0.7
v 1.3 -5.96046e-08 0.5
v 1.4 -5.96046e-08 0.5
v 1.1 -5.96046e-08 0.4
v 1.3 -5.96046e-08 0.4
v 1.1 -5.96046e-08 0.3
v 1.4 -5.96046e-08 0.3
v 1.6 -5.96046e-08 0.1
v 2.1 -5.96046e-08 0.1
v 1.6 -5.96046e-08 -5.96046e-08
v 2.1 -5.96046e-08 -5.96046e-08
v 1.6 -5.96046e-08 -0.2
v 2.1 -5.96046e-08 -0.2
v 1.6 -5.96046e-08 -0.3
v 2.1 -5.96046e-08 -0.3
v 1.1 -5.96046e-08 -0.5
v 1.4 -5.96046e-08 -0.5
v 1.1 -5.96046e-08 -0.6
v 1.3 -5.96046e-08 -0.6
v 1.3 -5.96046e-08 -0.7
v 1.4 -5.96046e-08 -0.7
v -0.8 -5.96046e-08 -0.9
v -0.7 -5.96046e-08 -0.9
v -0.8 -5.96046e-08 -1
v -0.7 -5.96046e-08 -1
v -1.1 0.1 0.8
v -0.9 0.1 0.8
v -1.1 0.1 0.7
v -0.9 0.1 0.7
v 1.6 0.1 -5.96046e-08
v 2.1 0.1 -5.96046e-08
v 2.4 0.1 -5.96046e-08
v 1.6 0.1 -0.2
v 2.1 0.1 -0.2
v 2.4 0.1 -0.2
v -1.1 0.1 -0.9
v -0.9 0.1 -0.9
v -1.1 0.1 -1
v -0.9 0.1 -1
v -1.8 0.3 0.8
v -1.3 0.3 0.8
v -1.8 0.3 0.7
v -1.3 0.3 0.7
v -1.8 0.3 -0.9
v -1.3 0.3 -0.9
v -1.8 0.3 -1
v -1.3 0.3 -1
v -1.3 0.4 0.8
v -1.2 0.4 0.8
v -1.3 0.4 0.7
v -1.2 0.4 0.7
v -1.3 0.4 -0.9
v -1.2 0.4 -0.9
v -1.3 0.4 -1
v -1.2 0.4 -1
v -2.3 0.8 0.8
v -2.1 0.8 0.8
v 0.4 0.8 0.8
v 0.6 0.8 0.8
v -2.3 0.8 0.7
v -2.1 0.8 0.7
v 0.4 0.8 0.7
v 0.6 0.8 0.7
v 1.6 0.8 0.5
v 2.2 0.8 0.5
v 1.6 0.8 -0.7
v 2.2 0.8 -0.7
v -2.3 0.8 -0.9
v -2.1 0.8 -0.9
v 0.4 0.8 -0.9
v 0.6 0.8 -0.9
v -2.3 0.8 -1
v -2.1 0.8 -1
v 0.4 0.8 -1
v 0.6 0.8 -1
v -2.3 -0.4 0.8
v -2.1 -0.4 0.8
v 0.4 -0.4 0.8
v 0.6 -0.4 0.8
v -2.3 -0.4 0.7
v -2.1 -0.4 0.7
v 0.4 -0.4 0.7
v 0.6 -0.4 0.7
v 1.6 -0.4 0.5
v 2.2 -0.4 0.5
v 1.6 -0.4 -0.7
v 2.2 -0.4 -0.7
v -2.3 -0.4 -0.9
v -2.1 -0.4 -0.9
v 0.4 -0.4 -0.9
v 0.6 -0.4 -0.9
v -2.3 -0.4 -1
v -2.1 -0.4 -1
v 0.4 -0.4 -1
v 0.6 -0.4 -1
v -1.3 -5.96046e-08 0.8
v -1.2 -5.96046e-08 0.8
v -1.3 -5.96046e-08 0.7
v -1.2 -5.96046e-08 0.7
v 2.2 -5.96046e-08 -0.3
v 2.3 -5.96046e-08 -0.3
v 2.2 -5.96046e-08 -0.4
v 2.3 -5.96046e-08 -0.4
v -1.3 -5.96046e-08 -0.9
v -1.2 -5.96046e-08 -0.9
v -1.3 -5.96046e-08 -1
v -1.2 -5.96046e-08 -1
v -1.8 0.1 0.8
v -1.3 0.1 0.8
v -1.8 0.1 0.7
v -1.3 0.1 0.7
v -1.8 0.1 -0.9
v -1.3 0.1 -0.9
v -1.8 0.1 -1
v -1.3 0.1 -1
v -1.1 0.3 0.8
v -0.9 0.3 0.8
v -1.1 0.3 0.7
v -0.9 0.3 0.7
v 1.6 0.3 -5.96046e-08
v 2.1 0.3 -5.96046e-08
v 2.4 0.3 -5.96046e-08
v 1.6 0.3 -0.2
v 2.1 0.3 -0.2
v 2.4 0.3 -0.2
v -1.1 0.3 -0.9
v -0.9 0.3 -0.9
v -1.1 0.3 -1
v -0.9 0.3 -1
v -0.8 0.4 0.8
v -0.7 0.4 0.8
v -0.8 0.4 0.7
v -0.7 0.4 0.7
v 1.3 0.4 0.5
v 1.4 0.4 0.5
v 1.1 0.4 0.4
v 1.3 0.4 0.4
v 1.1 0.4 0.3
v 1.4 0.4 0.3
v 1.6 0.4 0.1
v 2.1 0.4 0.1
v 1.6 0.4 -5.96046e-08
v 2.1 0.4 -5.96046e-08
v 1.6 0.4 -0.2
v 2.1 0.4 -0.2
v 1.6 0.4 -0.3
v 2.1 0.4 -0.3
v 1.1 0.4 -0.5
v 1.4 0.4 -0.5
v 1.1 0.4 -0.6
v 1.3 0.4 -0.6
v 1.3 0.4 -0.7
v 1.4 0.4 -0.7
v -0.8 0.4 -0.9
v -0.7 0.4 -0.9
v -0.8 0.4 -1
v -0.7 0.4 -1
v -1.8 0.5 0.8
v -1.7 0.5 0.8
v -0.7 0.5 0.8
v -0.6 0.5 0.8
v -1.8 0.5 0.7
v -1.7 0.5 0.7
v -0.7 0.5 0.7
v -0.6 0.5 0.7
v 1.6 0.5 0.2
v 2.2 0.5 0.2
v 1.6 0.5 0.1
v 2.2 0.5 0.1
v 1.6 0.5 -0.3
v 2.2 0.5 -0.3
v 1.6 0.5 -0.4
v 2.2 0.5 -0.4
v -1.8 0.5 -0.9
v -1.7 0.5 -0.9
v -0.7 0.5 -0.9
v -0.6 0.5 -0.9
v -1.8 0.5 -1
v -1.7 0.5 -1
v -0.7 0.5 -1
v -0.6 0.5 -1
v -1.7 0.6 0.8
v -1.6 0.6 0.8
v -0.6 0.6 0.8
v -0.2 0.6 0.8
v -1.7 0.6 0.7
v -1.6 0.6 0.7
v -0.6 0.6 0.7
v -0.2 0.6 0.7
v 0.8 0.6 0.3
v 1.4 0.6 0.3
v 1.6 0.6 0.3
v 2.3 0.6 0.3
v 1.6 0.6 0.2
v 2.3 0.6 0.2
v 1.1 0.6 0.1
v 1.4 0.6 0.1
v 1.1 0.6 -0.3
v 1.4 0.6 -0.3
v 1.6 0.6 -0.4
v 2.3 0.6 -0.4
v 0.8 0.6 -0.5
v 1.4 0.6 -0.5
v 1.6 0.6 -0.5
v 2.3 0.6 -0.5
v -1.7 0.6 -0.9
v -1.6 0.6 -0.9
v -0.6 0.6 -0.9
v -0.2 0.6 -0.9
v -1.7 0.6 -1
v -1.6 0.6 -1
v -0.6 0.6 -1
v -0.2 0.6 -1
v -1.6 0.7 0.8
v -1.5 0.7 0.8
v -1.6 0.7 0.7
v -1.5 0.7 0.7
v 1.1 0.7 0.1
v 1.3 0.7 0.1
v 1.1 0.7 -0.3
v 1.3 0.7 -0.3
v -1.6 0.7 -0.9
v -1.5 0.7 -0.9
v -1.6 0.7 -1
v -1.5 0.7 -1
v -1.5 0.8 0.8
v -1.3 0.8 0.8
v -1.5 0.8 0.7
v -1.3 0.8 0.7
v 1.4 0.8 0.7
v 2.2 0.8 0.7
v 1.4 0.8 0.5
v 2.2 0.8 0.5
v 1.3 0.8 0.1
v 1.4 0.8 0.1
v 1.3 0.8 -0.3
v 1.4 0.8 -0.3
v 1.4 0.8 -0.7
v 2.2 0.8 -0.7
v -1.5 0.8 -0.9
v -1.3 0.8 -0.9
v 1.4 0.8 -0.9
v 2.2 0.8 -0.9
v -1.5 0.8 -1
v -1.3 0.8 -1
v -1.3 0.9 0.8
v -1.2 0.9 0.8
v -1.3 0.9 0.7
v -1.2 0.9 0.7
v -1.3 0.9 -0.9
v -1.2 0.9 -0.9
v -1.3 0.9 -1
v -1.2 0.9 -1
v -2.4 1 0.7
v -2.3 1 0.7
v -2.1 1 0.7
v 0.4 1 0.7
v 0.6 1 0.7
v 0.8 1 0.7
v -1.3 1 0.6
v -1.2 1 0.6
v -2.3 1 0.5
v -2.1 1 0.5
v -1.5 1 0.5
v -1.3 1 0.5
v 0.4 1 0.5
v 0.6 1 0.5
v 1.4 1 0.5
v 2.2 1 0.5
v -1.6 1 0.4
v -1.5 1 0.4
v -1.7 1 0.3
v -1.6 1 0.3
v -0.6 1 0.3
v -0.2 1 0.3
v 1.6 1 0.3
v 2 1 0.3
v -1.8 1 0.2
v -1.7 1 0.2
v -0.7 1 0.2
v -0.6 1 0.2
v -1.3 1 0.1
v -1.2 1 0.1
v -0.8 1 0.1
v -0.7 1 0.1
v -1.8 1 -5.96046e-08
v -1.3 1 -5.96046e-08
v -1.1 1 -5.96046e-08
v -0.9 1 -5.96046e-08
v 1.6 1 -5.96046e-08
v 2 1 -5.96046e-08
v -1.8 1 -0.2
v -1.3 1 -0.2
v -1.1 1 -0.2
v -0.9 1 -0.2
v 1.6 1 -0.2
v 2 1 -0.2
v -1.3 1 -0.3
v -1.2 1 -0.3
v -0.8 1 -0.3
v -0.7 1 -0.3
v -1.8 1 -0.4
v -1.7 1 -0.4
v -0.7 1 -0.4
v -0.6 1 -0.4
v -1.7 1 -0.5
v -1.6 1 -0.5
v -0.6 1 -0.5
v -0.2 1 -0.5
v 1.6 1 -0.5
v 2 1 -0.5
v -1.6 1 -0.6
v -1.5 1 -0.6
v -2.3 1 -0.7
v -2.1 1 -0.7
v -1.5 1 -0.7
v -1.3 1 -0.7
v 0.4 1 -0.7
v 0.6 1 -0.7
v 1.4 1 -0.7
v 2.2 1 -0.7
v -1.3 1 -0.8
v -1.2 1 -0.8
v -2.4 1 -0.9
v -2.3 1 -0.9
v -2.1 1 -0.9
v 0.4 1 -0.9
v 0.6 1 -0.9
v 0.8 1 -0.9
v 0.4 1 -1
v 0.6 1 -1
v -2.3 1.1 0.8
v -2.1 1.1 0.8
v 0.4 1.1 0.8
v 0.6 1.1 0.8
v -1.3 1.1 0.6
v -1.2 1.1 0.6
v -2.3 1.1 0.5
v -2.1 1.1 0.5
v -1.5 1.1 0.5
v -1.3 1.1 0.5
v 0.4 1.1 0.5
v 0.6 1.1 0.5
v -1.6 1.1 0.4
v -1.5 1.1 0.4
v -1.7 1.1 0.3
v -1.6 1.1 0.3
v -0.6 1.1 0.3
v -0.2 1.1 0.3
v -1.8 1.1 0.2
v -1.7 1.1 0.2
v -0.7 1.1 0.2
v -0.6 1.1 0.2
v -1.3 1.1 0.1
v -1.2 1.1 0.1
v -0.8 1.1 0.1
v -0.7 1.1 0.1
v -1.8 1.1 -5.96046e-08
v -1.3 1.1 -5.96046e-08
v -1.1 1.1 -5.96046e-08
v -0.9 1.1 -5.96046e-08
v -1.8 1.1 -0.2
v -1.3 1.1 -0.2
v -1.1 1.1 -0.2
v -0.9 1.1 -0.2
v -1.3 1.1 -0.3
v -1.2 1.1 -0.3
v -0.8 1.1 -0.3
v -0.7 1.1 -0.3
v -1.8 1.1 -0.4
v -1.7 1.1 -0.4
v -0.7 1.1 -0.4
v -0.6 1.1 -0.4
v -1.7 1.1 -0.5
v -1.6 1.1 -0.5
v -0.6 1.1 -0.5
v -0.2 1.1 -0.5
v -1.6 1.1 -0.6
v -1.5 1.1 -0.6
v -2.3 1.1 -0.7
v -2.1 1.1 -0.7
v -1.5 1.1 -0.7
v -1.3 1.1 -0.7
v 0.4 1.1 -0.7
v 0.6 1.1 -0.7
v -1.3 1.1 -0.8
v -1.2 1.1 -0.8
v 0.4 1.1 -0.9
v 0.6 1.1 -0.9
v -2.3 1.1 -1
v -2.1 1.1 -1

# faces
f 3/1/1 2/1/1 1/1/1
f 4/1/1 2/1/1 3/1/1
f 9/2/1 6/2/1 5/2/1
f 10/2/1 6/2/1 9/2/1
f 11/2/1 8/2/1 7/2/1
f 12/2/1 8/2/1 11/2/1
f 13/2/1 9/2/1 5/2/1
f 14/2/1 9/2/1 13/2/1
f 15/2/1 8/2/1 12/2/1
f 16/2/1 8/2/1 15/2/1
f 21/2/1 18/2/1 17/2/1
f 24/2/1 20/2/1 19/2/1
f 25/2/1 22/2/1 21/2/1
f 25/2/1 21/2/1 17/2/1
f 26/2/1 22/2/1 25/2/1
f 27/2/1 24/2/1 23/2/1
f 28/2/1 20/2/1 24/2/1
f 28/2/1 24/2/1 27/2/1
f 33/3/1 30/3/1 29/3/1
f 34/3/1 30/3/1 33/3/1
f 35/3/1 32/3/1 31/3/1
f 36/3/1 32/3/1 35/3/1
f 41/3/1 38/3/1 37/3/1
f 42/3/1 38/3/1 41/3/1
f 43/3/1 40/3/1 39/3/1
f 44/3/1 40/3/1 43/3/1
f 49/3/1 46/3/1 45/3/1
f 50/3/1 46/3/1 49/3/1
f 51/3/1 48/3/1 47/3/1
f 52/3/1 48/3/1 51/3/1
f 57/3/1 54/3/1 53/3/1
f 58/3/1 54/3/1 57/3/1
f 59/3/1 56/3/1 55/3/1
f 60/3/1 56/3/1 59/3/1
f 65/3/1 62/3/1 61/3/1
f 66/3/1 62/3/1 65/3/1
f 67/3/1 64/3/1 63/3/1
f 68/3/1 64/3/1 67/3/1
f 73/3/1 70/3/1 69/3/1
f 74/3/1 70/3/1 73/3/1
f 75/3/1 72/3/1 71/3/1
f 76/3/1 72/3/1 75/3/1
f 81/3/1 78/3/1 77/3/1
f 82/3/1 78/3/1 81/3/1
f 83/3/1 80/3/1 79/3/1
f 84/3/1 80/3/1 83/3/1
f 89/3/1 86/3/1 85/3/1
f 90/3/1 86/3/1 89/3/1
f 91/3/1 88/3/1 87/3/1
f 92/3/1 88/3/1 91/3/1
f 97/3/1 94/3/1 93/3/1
f 98/3/1 94/3/1 97/3/1
f 99/3/1 96/3/1 95/3/1
f 100/3/1 96/3/1 99/3/1
f 105/3/1 102/3/1 101/3/1
f 106/3/1 102/3/1 105/3/1
f 107/3/1 104/3/1 103/3/1
f 108/3/1 104/3/1 107/3/1
f 113/3/1 110/3/1 109/3/1
f 114/3/1 110/3/1 113/3/1
f 115/3/1 112/3/1 111/3/1
f 116/3/1 112/3/1 115/3/1
f 121/3/1 118/3/1 117/3/1
f 122/3/1 118/3/1 121/3/1
f 123/3/1 120/3/1 119/3/1
f 124/3/1 120/3/1 123/3/1
f 129/3/1 126/3/1 125/3/1
f 130/3/1 126/3/1 129/3/1
f 131/3/1 128/3/1 127/3/1
f 132/3/1 128/3/1 131/3/1
f 137/3/1 134/3/1 133/3/1
f 138/3/1 134/3/1 137/3/1
f 139/3/1 136/3/1 135/3/1
f 140/3/1 136/3/1 139/3/1
f 145/3/1 142/3/1 141/3/1
f 146/3/1 142/3/1 145/3/1
f 147/3/1 144/3/1 143/3/1
f 148/3/1 144/3/1 147/3/1
f 153/3/1 150/3/1 149/3/1
f 154/3/1 150/3/1 153/3/1
f 155/3/1 152/3/1 151/3/1
f 156/3/1 152/3/1 155/3/1
f 161/3/1 158/3/1 157/3/1
f 162/3/1 158/3/1 161/3/1
f 163/3/1 160/3/1 159/3/1
f 164/3/1 160/3/1 163/3/1
f 169/3/1 166/3/1 165/3/1
f 170/3/1 166/3/1 169/3/1
f 171/3/1 168/3/1 167/3/1
f 172/3/1 168/3/1 171/3/1
f 177/3/1 174/3/1 173/3/1
f 178/3/1 174/3/1 177/3/1
f 179/3/1 176/3/1 175/3/1
f 180/3/1 176/3/1 179/3/1
f 185/3/1 182/3/1 181/3/1
f 186/3/1 182/3/1 185/3/1
f 187/3/1 184/3/1 183/3/1
f 188/3/1 184/3/1 187/3/1
f 191/3/1 190/3/1 189/3/1
f 192/3/1 190/3/1 191/3/1
f 197/3/1 194/3/1 193/3/1
f 198/3/1 194/3/1 197/3/1
f 199/3/1 196/3/1 195/3/1
f 200/3/1 196/3/1 199/3/1
f 203/3/1 202/3/1 201/3/1
f 204/3/1 202/3/1 203/3/1
f 207/3/1 206/3/1 205/3/1
f 208/3/1 206/3/1 207/3/1
f 213/3/1 210/3/1 209/3/1
f 214/3/1 210/3/1 213/3/1
f 215/3/1 212/3/1 211/3/1
f 216/3/1 212/3/1 215/3/1
f 219/3/1 218/3/1 217/3/1
f 220/3/1 218/3/1 219/3/1
f 225/3/1 222/3/1 221/3/1
f 226/3/1 222/3/1 225/3/1
f 227/3/1 224/3/1 223/3/1
f 228/3/1 224/3/1 227/3/1
f 233/3/1 230/3/1 229/3/1
f 234/3/1 230/3/1 233/3/1
f 235/3/1 232/3/1 231/3/1
f 236/3/1 232/3/1 235/3/1
f 241/3/1 238/3/1 237/3/1
f 242/3/1 238/3/1 241/3/1
f 243/3/1 240/3/1 239/3/1
f 244/3/1 240/3/1 243/3/1
f 249/3/1 246/3/1 245/3/1
f 250/3/1 246/3/1 249/3/1
f 251/3/1 248/3/1 247/3/1
f 252/3/1 248/3/1 251/3/1
f 257/3/1 254/3/1 253/3/1
f 258/3/1 254/3/1 257/3/1
f 259/3/1 256/3/1 255/3/1
f 260/3/1 256/3/1 259/3/1
f 265/3/1 262/3/1 261/3/1
f 266/3/1 262/3/1 265/3/1
f 267/3/1 264/3/1 263/3/1
f 268/3/1 264/3/1 267/3/1
f 273/3/1 270/3/1 269/3/1
f 274/3/1 270/3/1 273/3/1
f 275/3/1 272/3/1 271/3/1
f 276/3/1 272/3/1 275/3/1
f 281/3/1 278/3/1 277/3/1
f 282/3/1 278/3/1 281/3/1
f 283/3/1 280/3/1 279/3/1
f 284/3/1 280/3/1 283/3/1
f 289/2/1 286/2/1 285/2/1
f 290/2/1 286/2/1 289/2/1
f 291/2/1 288/2/1 287/2/1
f 292/2/1 288/2/1 291/2/1
f 293/2/1 289/2/1 285/2/1
f 294/2/1 289/2/1 293/2/1
f 295/2/1 288/2/1 292/2/1
f 296/2/1 288/2/1 295/2/1
f 301/2/1 298/2/1 297/2/1
f 304/2/1 300/2/1 299/2/1
f 305/2/1 300/2/1 304/2/1
f 306/2/1 302/2/1 301/2/1
f 306/2/1 301/2/1 297/2/1
f 307/2/1 302/2/1 306/2/1
f 308/2/1 304/2/1 303/2/1
f 309/2/1 304/2/1 308/2/1
f 312/2/1 311/2/1 310/2/1
f 313/2/1 311/2/1 312/2/1
f 318/2/1 315/2/1 314/2/1
f 319/2/1 315/2/1 318/2/1
f 320/2/1 317/2/1 316/2/1
f 321/2/1 317/2/1 320/2/1
f 324/2/1 323/2/1 322/2/1
f 325/2/1 323/2/1 324/2/1
f 328/2/1 327/2/1 326/2/1
f 329/2/1 327/2/1 328/2/1
f 334/2/1 331/2/1 330/2/1
f 335/2/1 331/2/1 334/2/1
f 336/2/1 333/2/1 332/2/1
f 337/2/1 333/2/1 336/2/1
f 340/2/1 339/2/1 338/2/1
f 341/2/1 339/2/1 340/2/1
f 345/1/1 343/1/1 342/1/1
f 346/1/1 343/1/1 345/1/1
f 347/1/1 343/1/1 346/1/1
f 348/1/1 343/1/1 347/1/1
f 350/1/1 345/1/1 344/1/1
f 350/1/1 346/1/1 345/1/1
f 351/1/1 346/1/1 350/1/1
f 352/1/1 349/1/1 348/1/1
f 352/1/1 348/1/1 347/1/1
f 353/1/1 349/1/1 352/1/1
f 354/1/1 350/1/1 344/1/1
f 355/1/1 350/1/1 354/1/1
f 356/1/1 349/1/1 353/1/1
f 357/1/1 349/1/1 356/1/1
f 358/1/1 354/1/1 344/1/1
f 361/1/1 349/1/1 357/1/1
f 362/1/1 359/1/1 358/1/1
f 365/1/1 361/1/1 360/1/1
f 366/1/1 363/1/1 362/1/1
f 366/1/1 358/1/1 344/1/1
f 366/1/1 362/1/1 358/1/1
f 367/1/1 363/1/1 366/1/1
f 368/1/1 363/1/1 367/1/1
f 369/1/1 365/1/1 364/1/1
f 370/1/1 361/1/1 365/1/1
f 370/1/1 349/1/1 361/1/1
f 370/1/1 365/1/1 369/1/1
f 371/1/1 349/1/1 370/1/1
f 372/1/1 368/1/1 367/1/1
f 372/1/1 369/1/1 368/1/1
f 372/1/1 370/1/1 369/1/1
f 373/1/1 370/1/1 372/1/1
f 374/2/2 375/2/2 378/2/2
f 378/2/2 375/2/2 379/2/2
f 376/2/2 377/2/2 380/2/2
f 380/2/2 377/2/2 381/2/2
f 374/2/2 378/2/2 382/2/2
f 382/2/2 378/2/2 383/2/2
f 381/2/2 377/2/2 384/2/2
f 384/2/2 377/2/2 385/2/2
f 386/2/2 387/2/2 390/2/2
f 388/2/2 389/2/2 393/2/2
f 390/2/2 391/2/2 394/2/2
f 386/2/2 390/2/2 394/2/2
f 394/2/2 391/2/2 395/2/2
f 392/2/2 393/2/2 396/2/2
f 393/2/2 389/2/2 397/2/2
f 396/2/2 393/2/2 397/2/2
f 398/3/2 399/3/2 402/3/2
f 402/3/2 399/3/2 403/3/2
f 400/3/2 401/3/2 404/3/2
f 404/3/2 401/3/2 405/3/2
f 406/3/2 407/3/2 410/3/2
f 410/3/2 407/3/2 411/3/2
f 408/3/2 409/3/2 412/3/2
f 412/3/2 409/3/2 413/3/2
f 414/3/2 415/3/2 418/3/2
f 418/3/2 415/3/2 419/3/2
f 416/3/2 417/3/2 420/3/2
f 420/3/2 417/3/2 421/3/2
f 422/3/2 423/3/2 426/3/2
f 426/3/2 423/3/2 427/3/2
f 424/3/2 425/3/2 428/3/2
f 428/3/2 425/3/2 429/3/2
f 430/3/2 431/3/2 434/3/2
f 434/3/2 431/3/2 435/3/2
f 432/3/2 433/3/2 436/3/2
f 436/3/2 433/3/2 437/3/2
f 438/3/2 439/3/2 442/3/2
f 442/3/2 439/3/2 443/3/2
f 440/3/2 441/3/2 444/3/2
f 444/3/2 441/3/2 445/3/2
f 446/3/2 447/3/2 450/3/2
f 450/3/2 447/3/2 451/3/2
f 448/3/2 449/3/2 452/3/2
f 452/3/2 449/3/2 453/3/2
f 454/3/2 455/3/2 458/3/2
f 458/3/2 455/3/2 459/3/2
f 456/3/2 457/3/2 460/3/2
f 460/3/2 457/3/2 461/3/2
f 462/3/2 463/3/2 464/3/2
f 464/3/2 463/3/2 465/3/2
f 466/3/2 467/3/2 470/3/2
f 470/3/2 467/3/2 471/3/2
f 468/3/2 469/3/2 472/3/2
f 472/3/2 469/3/2 473/3/2
f 474/3/2 475/3/2 476/3/2
f 476/3/2 475/3/2 477/3/2
f 478/3/2 479/3/2 480/3/2
f 480/3/2 479/3/2 481/3/2
f 482/3/2 483/3/2 486/3/2
f 486/3/2 483/3/2 487/3/2
f 484/3/2 485/3/2 488/3/2
f 488/3/2 485/3/2 489/3/2
f 490/3/2 491/3/2 492/3/2
f 492/3/2 491/3/2 493/3/2
f 494/2/2 495/2/2 498/2/2
f 498/2/2 495/2/2 499/2/2
f 496/2/2 497/2/2 500/2/2
f 500/2/2 497/2/2 501/2/2
f 494/2/2 498/2/2 502/2/2
f 502/2/2 498/2/2 503/2/2
f 501/2/2 497/2/2 504/2/2
f 504/2/2 497/2/2 505/2/2
f 506/2/2 507/2/2 510/2/2
f 508/2/2 509/2/2 513/2/2
f 513/2/2 509/2/2 514/2/2
f 510/2/2 511/2/2 515/2/2
f 506/2/2 510/2/2 515/2/2
f 515/2/2 511/2/2 516/2/2
f 512/2/2 513/2/2 517/2/2
f 517/2/2 513/2/2 518/2/2
f 519/1/2 520/1/2 521/1/2
f 521/1/2 520/1/2 522/1/2
f 519/1/2 521/1/2 523/1/2
f 522/1/2 520/1/2 524/1/2
f 519/1/2 523/1/2 525/1/2
f 523/1/2 524/1/2 525/1/2
f 524/1/2 520/1/2 526/1/2
f 525/1/2 524/1/2 526/1/2
f 527/1/2 528/1/2 529/1/2
f 529/1/2 528/1/2 530/1/2
f 530/1/2 528/1/2 531/1/2
f 531/1/2 528/1/2 532/1/2
f 530/1/2 531/1/2 533/1/2
f 533/1/2 531/1/2 534/1/2
f 534/1/2 531/1/2 535/1/2
f 535/1/2 531/1/2 536/1/2
f 534/1/2 535/1/2 537/1/2
f 537/1/2 535/1/2 538/1/2
f 538/1/2 535/1/2 539/1/2
f 539/1/2 535/1/2 540/1/2
f 538/1/2 539/1/2 541/1/2
f 541/1/2 539/1/2 542/1/2
f 543/1/2 544/1/2 546/1/2
f 546/1/2 544/1/2 547/1/2
f 546/1/2 547/1/2 550/1/2
f 547/1/2 548/1/2 550/1/2
f 545/1/2 546/1/2 550/1/2
f 550/1/2 548/1/2 551/1/2
f 527/1/2 529/1/2 553/1/2
f 551/1/2 552/1/2 554/1/2
f 550/1/2 551/1/2 554/1/2
f 549/1/2 550/1/2 554/1/2
f 554/1/2 552/1/2 555/1/2
f 532/1/2 528/1/2 556/1/2
f 527/1/2 553/1/2 557/1/2
f 555/1/2 556/1/2 557/1/2
f 554/1/2 555/1/2 557/1/2
f 553/1/2 554/1/2 557/1/2
f 556/1/2 528/1/2 558/1/2
f 557/1/2 556/1/2 558/1/2
f 559/2/2 560/2/2 563/2/2
f 561/2/2 562/2/2 564/2/2
f 559/2/2 563/2/2 565/2/2
f 564/2/2 562/2/2 566/2/2
f 559/2/2 565/2/2 567/2/2
f 567/2/2 565/2/2 568/2/2
f 566/2/2 562/2/2 569/2/2
f 569/2/2 562/2/2 570/2/2
f 571/1/2 572/1/2 574/1/2
f 574/1/2 572/1/2 575/1/2
f 577/2/2 578/2/2 581/2/2
f 581/2/2 578/2/2 582/2/2
f 579/2/2 580/2/2 583/2/2
f 583/2/2 580/2/2 584/2/2
f 573/1/2 574/1/2 585/1/2
f 585/1/2 574/1/2 586/1/2
f 575/1/2 576/1/2 587/1/2
f 587/1/2 576/1/2 588/1/2
f 586/1/2 587/1/2 589/1/2
f 589/1/2 587/1/2 590/1/2
f 593/2/2 594/2/2 596/2/2
f 595/2/2 596/2/2 597/2/2
f 596/2/2 594/2/2 598/2/2
f 597/2/2 596/2/2 598/2/2
f 591/2/2 592/2/2 599/2/2
f 599/2/2 592/2/2 600/2/2
f 598/2/2 594/2/2 601/2/2
f 601/2/2 594/2/2 602/2/2
f 603/3/2 604/3/2 605/3/2
f 605/3/2 604/3/2 606/3/2
f 611/2/3 608/2/3 607/2/3
f 612/2/3 608/2/3 611/2/3
f 613/2/3 610/2/3 609/2/3
f 614/2/3 610/2/3 613/2/3
f 620/3/3 616/3/3 615/3/3
f 621/3/3 618/3/3 617/3/3
f 624/3/3 620/3/3 619/3/3
f 625/3/3 622/3/3 621/3/3
f 628/3/3 624/3/3 623/3/3
f 629/3/3 626/3/3 625/3/3
f 632/3/3 628/3/3 627/3/3
f 633/3/3 616/3/3 620/3/3
f 633/3/3 620/3/3 624/3/3
f 633/3/3 628/3/3 632/3/3
f 633/3/3 624/3/3 628/3/3
f 634/3/3 616/3/3 633/3/3
f 635/3/3 630/3/3 629/3/3
f 635/3/3 621/3/3 617/3/3
f 635/3/3 625/3/3 621/3/3
f 635/3/3 629/3/3 625/3/3
f 636/3/3 630/3/3 635/3/3
f 637/3/3 630/3/3 636/3/3
f 639/3/3 632/3/3 631/3/3
f 639/3/3 633/3/3 632/3/3
f 640/3/3 633/3/3 639/3/3
f 641/3/3 638/3/3 637/3/3
f 641/3/3 637/3/3 636/3/3
f 642/3/3 638/3/3 641/3/3
f 645/3/3 644/3/3 643/3/3
f 646/3/3 644/3/3 645/3/3
f 650/3/3 648/3/3 647/3/3
f 651/3/3 648/3/3 650/3/3
f 654/3/3 650/3/3 649/3/3
f 654/3/3 652/3/3 651/3/3
f 654/3/3 651/3/3 650/3/3
f 655/3/3 652/3/3 654/3/3
f 657/3/3 654/3/3 653/3/3
f 657/3/3 656/3/3 655/3/3
f 657/3/3 655/3/3 654/3/3
f 658/3/3 656/3/3 657/3/3
f 663/2/3 660/2/3 659/2/3
f 664/2/3 660/2/3 663/2/3
f 665/2/3 662/2/3 661/2/3
f 666/2/3 662/2/3 665/2/3
f 669/1/3 668/1/3 667/1/3
f 670/1/3 668/1/3 669/1/3
f 671/1/3 668/1/3 670/1/3
f 672/1/3 668/1/3 671/1/3
f 674/1/3 671/1/3 670/1/3
f 675/1/3 671/1/3 674/1/3
f 677/1/3 674/1/3 673/1/3
f 677/1/3 676/1/3 675/1/3
f 677/1/3 675/1/3 674/1/3
f 678/1/3 676/1/3 677/1/3
f 679/1/3 676/1/3 678/1/3
f 680/1/3 676/1/3 679/1/3
f 681/1/3 677/1/3 673/1/3
f 682/1/3 677/1/3 681/1/3
f 683/1/3 676/1/3 680/1/3
f 684/1/3 676/1/3 683/1/3
f 685/1/3 681/1/3 673/1/3
f 686/1/3 681/1/3 685/1/3
f 687/1/3 676/1/3 684/1/3
f 688/1/3 676/1/3 687/1/3
f 689/1/3 685/1/3 673/1/3
f 690/1/3 685/1/3 689/1/3
f 691/1/3 676/1/3 688/1/3
f 692/1/3 676/1/3 691/1/3
f 693/1/3 689/1/3 673/1/3
f 694/1/3 689/1/3 693/1/3
f 696/1/3 679/1/3 678/1/3
f 697/1/3 679/1/3 696/1/3
f 699/1/3 676/1/3 692/1/3
f 700/1/3 676/1/3 699/1/3
f 701/1/3 693/1/3 673/1/3
f 702/1/3 698/1/3 697/1/3
f 702/1/3 696/1/3 695/1/3
f 702/1/3 697/1/3 696/1/3
f 703/1/3 698/1/3 702/1/3
f 704/1/3 676/1/3 700/1/3
f 705/1/3 703/1/3 702/1/3
f 705/1/3 704/1/3 703/1/3
f 705/1/3 702/1/3 701/1/3
f 706/1/3 704/1/3 705/1/3
f 707/1/3 705/1/3 701/1/3
f 708/1/3 704/1/3 706/1/3
f 709/1/3 707/1/3 701/1/3
f 709/1/3 708/1/3 707/1/3
f 710/1/3 704/1/3 708/1/3
f 710/1/3 708/1/3 709/1/3
f 711/1/3 709/1/3 701/1/3
f 712/1/3 709/1/3 711/1/3
f 713/1/3 704/1/3 710/1/3
f 714/1/3 704/1/3 713/1/3
f 715/1/3 711/1/3 701/1/3
f 716/1/3 711/1/3 715/1/3
f 717/1/3 704/1/3 714/1/3
f 718/1/3 704/1/3 717/1/3
f 719/1/3 715/1/3 701/1/3
f 720/1/3 704/1/3 718/1/3
f 721/1/3 701/1/3 673/1/3
f 721/1/3 720/1/3 719/1/3
f 721/1/3 719/1/3 701/1/3
f 722/1/3 720/1/3 721/1/3
f 723/1/3 704/1/3 720/1/3
f 723/1/3 720/1/3 722/1/3
f 724/1/3 676/1/3 704/1/3
f 724/1/3 704/1/3 723/1/3
f 726/1/3 723/1/3 722/1/3
f 727/1/3 723/1/3 726/1/3
f 729/1/3 726/1/3 725/1/3
f 729/1/3 728/1/3 727/1/3
f 729/1/3 727/1/3 726/1/3
f 730/1/3 728/1/3 729/1/3
f 733/1/3 732/1/3 731/1/3
f 734/1/3 732/1/3 733/1/3
f 735/1/3 732/1/3 734/1/3
f 736/1/3 732/1/3 735/1/3
f 737/1/3 733/1/3 731/1/3
f 737/3/3 734/3/3 733/3/3
f 738/1/3 735/1/3 734/1/3
f 738/3/3 734/3/3 737/3/3
f 739/3/3 736/3/3 735/3/3
f 739/1/3 735/1/3 738/1/3
f 740/1/3 732/1/3 736/1/3
f 740/3/3 736/3/3 739/3/3
f 741/1/3 739/1/3 738/1/3
f 741/1/3 738/1/3 737/1/3
f 741/1/3 740/1/3 739/1/3
f 741/1/3 737/1/3 731/1/3
f 742/1/3 732/1/3 740/1/3
f 742/1/3 740/1/3 741/1/3
f 747/3/3 744/3/3 743/3/3
f 748/3/3 744/3/3 747/3/3
f 749/3/3 746/3/3 745/3/3
f 750/3/3 746/3/3 749/3/3
f 755/3/3 752/3/3 751/3/3
f 756/3/3 752/3/3 755/3/3
f 757/3/3 754/3/3 753/3/3
f 758/3/3 754/3/3 757/3/3
f 763/2/3 760/2/3 759/2/3
f 764/2/3 760/2/3 763/2/3
f 767/1/3 762/1/3 761/1/3
f 768/1/3 762/1/3 767/1/3
f 769/1/3 766/1/3 765/1/3
f 770/1/3 766/1/3 769/1/3
f 775/3/3 772/3/3 771/3/3
f 776/3/3 772/3/3 775/3/3
f 777/3/3 774/3/3 773/3/3
f 778/3/3 774/3/3 777/3/3
f 781/2/3 780/2/3 779/2/3
f 782/2/3 780/2/3 781/2/3
f 787/3/3 784/3/3 783/3/3
f 788/3/3 784/3/3 787/3/3
f 789/3/3 786/3/3 785/3/3
f 790/3/3 786/3/3 789/3/3
f 795/3/3 792/3/3 791/3/3
f 796/3/3 792/3/3 795/3/3
f 797/3/3 794/3/3 793/3/3
f 798/3/3 794/3/3 797/3/3
f 801/2/3 800/2/3 799/2/3
f 802/2/3 800/2/3 801/2/3
f 803/2/3 801/2/3 799/2/3
f 804/2/3 801/2/3 803/2/3
f 805/2/3 800/2/3 802/2/3
f 806/2/3 800/2/3 805/2/3
f 809/2/3 808/2/3 807/2/3
f 810/2/3 808/2/3 809/2/3
f 815/3/3 812/3/3 811/3/3
f 816/3/3 812/3/3 815/3/3
f 817/3/3 814/3/3 813/3/3
f 818/3/3 814/3/3 817/3/3
f 823/3/3 820/3/3 819/3/3
f 824/3/3 820/3/3 823/3/3
f 825/3/3 822/3/3 821/3/3
f 826/3/3 822/3/3 825/3/3
f 831/3/3 828/3/3 827/3/3
f 832/3/3 828/3/3 831/3/3
f 833/3/3 830/3/3 829/3/3
f 834/3/3 830/3/3 833/3/3
f 840/2/3 836/2/3 835/2/3
f 841/2/3 838/2/3 837/2/3
f 843/2/3 840/2/3 839/2/3
f 844/2/3 836/2/3 840/2/3
f 844/2/3 840/2/3 843/2/3
f 845/2/3 842/2/3 841/2/3
f 845/2/3 841/2/3 837/2/3
f 846/2/3 842/2/3 845/2/3
f 851/3/3 848/3/3 847/3/3
f 852/3/3 848/3/3 851/3/3
f 853/3/3 850/3/3 849/3/3
f 854/3/3 850/3/3 853/3/3
f 857/3/3 856/3/3 855/3/3
f 858/3/3 856/3/3 857/3/3
f 863/3/3 860/3/3 859/3/3
f 864/3/3 860/3/3 863/3/3
f 865/3/3 862/3/3 861/3/3
f 866/3/3 862/3/3 865/3/3
f 871/2/3 868/2/3 867/2/3
f 872/2/3 868/2/3 871/2/3
f 873/2/3 870/2/3 869/2/3
f 874/2/3 870/2/3 873/2/3
f 879/3/3 876/3/3 875/3/3
f 880/3/3 876/3/3 879/3/3
f 881/3/3 878/3/3 877/3/3
f 882/3/3 878/3/3 881/3/3
f 887/2/3 884/2/3 883/2/3
f 888/2/3 886/2/3 885/2/3
f 889/2/3 887/2/3 883/2/3
f 889/2/3 888/2/3 887/2/3
f 890/2/3 886/2/3 888/2/3
f 890/2/3 888/2/3 889/2/3
f 891/2/3 889/2/3 883/2/3
f 892/2/3 889/2/3 891/2/3
f 898/2/3 896/2/3 895/2/3
f 899/2/3 894/2/3 893/2/3
f 900/2/3 894/2/3 899/2/3
f 901/2/3 898/2/3 897/2/3
f 902/2/3 896/2/3 898/2/3
f 902/2/3 898/2/3 901/2/3
f 905/2/3 904/2/3 903/2/3
f 906/2/3 904/2/3 905/2/3
f 911/2/3 908/2/3 907/2/3
f 912/2/3 908/2/3 911/2/3
f 913/2/3 910/2/3 909/2/3
f 914/2/3 910/2/3 913/2/3
f 917/1/3 916/1/3 915/1/3
f 918/1/3 916/1/3 917/1/3
f 921/2/3 920/2/3 919/2/3
f 922/2/3 920/2/3 921/2/3
f 923/2/4 924/2/4 925/2/4
f 925/2/4 924/2/4 926/2/4
f 927/2/4 928/2/4 931/2/4
f 931/2/4 928/2/4 932/2/4
f 929/2/4 930/2/4 933/2/4
f 933/2/4 930/2/4 934/2/4
f 935/2/4 936/2/4 937/2/4
f 937/2/4 936/2/4 938/2/4
f 939/1/4 940/1/4 941/1/4
f 941/1/4 940/1/4 942/1/4
f 943/2/4 944/2/4 947/2/4
f 945/2/4 946/2/4 948/2/4
f 943/2/4 947/2/4 949/2/4
f 947/2/4 948/2/4 949/2/4
f 948/2/4 946/2/4 950/2/4
f 949/2/4 948/2/4 950/2/4
f 951/3/4 952/3/4 955/3/4
f 955/3/4 952/3/4 956/3/4
f 953/3/4 954/3/4 957/3/4
f 957/3/4 954/3/4 958/3/4
f 959/2/4 960/2/4 963/2/4
f 961/2/4 962/2/4 964/2/4
f 959/2/4 963/2/4 965/2/4
f 963/2/4 964/2/4 965/2/4
f 964/2/4 962/2/4 966/2/4
f 965/2/4 964/2/4 966/2/4
f 967/3/4 968/3/4 971/3/4
f 971/3/4 968/3/4 972/3/4
f 969/3/4 970/3/4 973/3/4
f 973/3/4 970/3/4 974/3/4
f 975/2/4 976/2/4 979/2/4
f 979/2/4 976/2/4 980/2/4
f 977/2/4 978/2/4 981/2/4
f 981/2/4 978/2/4 982/2/4
f 983/3/4 984/3/4 987/3/4
f 987/3/4 984/3/4 988/3/4
f 985/3/4 986/3/4 989/3/4
f 989/3/4 986/3/4 990/3/4
f 991/3/4 992/3/4 993/3/4
f 993/3/4 992/3/4 994/3/4
f 995/3/4 996/3/4 999/3/4
f 999/3/4 996/3/4 1000/3/4
f 997/3/4 998/3/4 1001/3/4
f 1001/3/4 998/3/4 1002/3/4
f 1003/2/4 1004/2/4 1008/2/4
f 1005/2/4 1006/2/4 1009/2/4
f 1007/2/4 1008/2/4 1011/2/4
f 1008/2/4 1004/2/4 1012/2/4
f 1011/2/4 1008/2/4 1012/2/4
f 1009/2/4 1010/2/4 1013/2/4
f 1005/2/4 1009/2/4 1013/2/4
f 1013/2/4 1010/2/4 1014/2/4
f 1015/3/4 1016/3/4 1019/3/4
f 1019/3/4 1016/3/4 1020/3/4
f 1017/3/4 1018/3/4 1021/3/4
f 1021/3/4 1018/3/4 1022/3/4
f 1023/3/4 1024/3/4 1027/3/4
f 1027/3/4 1024/3/4 1028/3/4
f 1025/3/4 1026/3/4 1029/3/4
f 1029/3/4 1026/3/4 1030/3/4
f 1031/3/4 1032/3/4 1035/3/4
f 1035/3/4 1032/3/4 1036/3/4
f 1033/3/4 1034/3/4 1037/3/4
f 1037/3/4 1034/3/4 1038/3/4
f 1039/3/4 1040/3/4 1043/3/4
f 1043/3/4 1040/3/4 1044/3/4
f 1041/3/4 1042/3/4 1045/3/4
f 1045/3/4 1042/3/4 1046/3/4
f 1047/2/4 1048/2/4 1049/2/4
f 1049/2/4 1048/2/4 1050/2/4
f 1047/2/4 1049/2/4 1051/2/4
f 1051/2/4 1049/2/4 1052/2/4
f 1050/2/4 1048/2/4 1053/2/4
f 1053/2/4 1048/2/4 1054/2/4
f 1055/2/4 1056/2/4 1057/2/4
f 1057/2/4 1056/2/4 1058/2/4
f 1059/3/4 1060/3/4 1063/3/4
f 1063/3/4 1060/3/4 1064/3/4
f 1061/3/4 1062/3/4 1065/3/4
f 1065/3/4 1062/3/4 1066/3/4
f 1067/2/4 1068/2/4 1069/2/4
f 1069/2/4 1068/2/4 1070/2/4
f 1071/3/4 1072/3/4 1075/3/4
f 1075/3/4 1072/3/4 1076/3/4
f 1073/3/4 1074/3/4 1077/3/4
f 1077/3/4 1074/3/4 1078/3/4
f 1079/2/4 1080/2/4 1083/2/4
f 1083/2/4 1080/2/4 1084/2/4
f 1081/1/4 1082/1/4 1087/1/4
f 1087/1/4 1082/1/4 1088/1/4
f 1085/1/4 1086/1/4 1089/1/4
f 1089/1/4 1086/1/4 1090/1/4
f 1091/3/4 1092/3/4 1095/3/4
f 1095/3/4 1092/3/4 1096/3/4
f 1093/3/4 1094/3/4 1097/3/4
f 1097/3/4 1094/3/4 1098/3/4
f 1099/1/4 1100/1/4 1101/1/4
f 1101/1/4 1100/1/4 1102/1/4
f 1102/1/4 1100/1/4 1103/1/4
f 1103/1/4 1100/1/4 1104/1/4
f 1102/1/4 1103/1/4 1106/1/4
f 1106/1/4 1103/1/4 1107/1/4
f 1105/1/4 1106/1/4 1109/1/4
f 1107/1/4 1108/1/4 1109/1/4
f 1106/1/4 1107/1/4 1109/1/4
f 1109/1/4 1108/1/4 1110/1/4
f 1110/1/4 1108/1/4 1111/1/4
f 1111/1/4 1108/1/4 1112/1/4
f 1105/1/4 1109/1/4 1113/1/4
f 1113/1/4 1109/1/4 1114/1/4
f 1112/1/4 1108/1/4 1115/1/4
f 1115/1/4 1108/1/4 1116/1/4
f 1105/1/4 1113/1/4 1117/1/4
f 1117/1/4 1113/1/4 1118/1/4
f 1116/1/4 1108/1/4 1119/1/4
f 1119/1/4 1108/1/4 1120/1/4
f 1105/1/4 1117/1/4 1121/1/4
f 1121/1/4 1117/1/4 1122/1/4
f 1120/1/4 1108/1/4 1123/1/4
f 1123/1/4 1108/1/4 1124/1/4
f 1105/1/4 1121/1/4 1125/1/4
f 1125/1/4 1121/1/4 1126/1/4
f 1110/1/4 1111/1/4 1128/1/4
f 1128/1/4 1111/1/4 1129/1/4
f 1124/1/4 1108/1/4 1131/1/4
f 1131/1/4 1108/1/4 1132/1/4
f 1105/1/4 1125/1/4 1133/1/4
f 1129/1/4 1130/1/4 1134/1/4
f 1127/1/4 1128/1/4 1134/1/4
f 1128/1/4 1129/1/4 1134/1/4
f 1134/1/4 1130/1/4 1135/1/4
f 1132/1/4 1108/1/4 1136/1/4
f 1134/1/4 1135/1/4 1137/1/4
f 1135/1/4 1136/1/4 1137/1/4
f 1133/1/4 1134/1/4 1137/1/4
f 1137/1/4 1136/1/4 1138/1/4
f 1133/1/4 1137/1/4 1139/1/4
f 1138/1/4 1136/1/4 1140/1/4
f 1133/1/4 1139/1/4 1141/1/4
f 1139/1/4 1140/1/4 1141/1/4
f 1140/1/4 1136/1/4 1142/1/4
f 1141/1/4 1140/1/4 1142/1/4
f 1133/1/4 1141/1/4 1143/1/4
f 1143/1/4 1141/1/4 1144/1/4
f 1142/1/4 1136/1/4 1145/1/4
f 1145/1/4 1136/1/4 1146/1/4
f 1133/1/4 1143/1/4 1147/1/4
f 1147/1/4 1143/1/4 1148/1/4
f 1146/1/4 1136/1/4 1149/1/4
f 1149/1/4 1136/1/4 1150/1/4
f 1133/1/4 1147/1/4 1151/1/4
f 1150/1/4 1136/1/4 1152/1/4
f 1105/1/4 1133/1/4 1153/1/4
f 1151/1/4 1152/1/4 1153/1/4
f 1133/1/4 1151/1/4 1153/1/4
f 1153/1/4 1152/1/4 1154/1/4
f 1152/1/4 1136/1/4 1155/1/4
f 1154/1/4 1152/1/4 1155/1/4
f 1136/1/4 1108/1/4 1156/1/4
f 1155/1/4 1136/1/4 1156/1/4
f 1154/1/4 1155/1/4 1159/1/4
f 1159/1/4 1155/1/4 1160/1/4
f 1156/2/4 1157/2/4 1161/2/4
f 1161/2/4 1157/2/4 1162/2/4
f 1159/1/4 1160/1/4 1163/1/4
f 1158/1/4 1159/1/4 1163/1/4
f 1160/1/4 1161/1/4 1163/1/4
f 1163/1/4 1161/1/4 1164/1/4
f 1165/1/4 1166/1/4 1167/1/4
f 1167/1/4 1166/1/4 1168/1/4
f 1168/1/4 1166/1/4 1169/1/4
f 1169/1/4 1166/1/4 1170/1/4
f 1165/1/4 1167/1/4 1171/1/4
f 1167/3/4 1168/3/4 1171/3/4
f 1168/1/4 1169/1/4 1172/1/4
f 1171/3/4 1168/3/4 1172/3/4
f 1169/3/4 1170/3/4 1173/3/4
f 1172/1/4 1169/1/4 1173/1/4
f 1170/1/4 1166/1/4 1174/1/4
f 1173/3/4 1170/3/4 1174/3/4
f 1172/1/4 1173/1/4 1175/1/4
f 1171/1/4 1172/1/4 1175/1/4
f 1173/1/4 1174/1/4 1175/1/4
f 1165/1/4 1171/1/4 1175/1/4
f 1174/1/4 1166/1/4 1176/1/4
f 1175/1/4 1174/1/4 1176/1/4
f 1177/2/4 1178/2/4 1181/2/4
f 1181/2/4 1178/2/4 1182/2/4
f 1179/2/4 1180/2/4 1183/2/4
f 1183/2/4 1180/2/4 1184/2/4
f 1185/3/4 1186/3/4 1190/3/4
f 1187/3/4 1188/3/4 1191/3/4
f 1189/3/4 1190/3/4 1194/3/4
f 1191/3/4 1192/3/4 1195/3/4
f 1193/3/4 1194/3/4 1198/3/4
f 1195/3/4 1196/3/4 1199/3/4
f 1197/3/4 1198/3/4 1202/3/4
f 1190/3/4 1186/3/4 1203/3/4
f 1194/3/4 1190/3/4 1203/3/4
f 1202/3/4 1198/3/4 1203/3/4
f 1198/3/4 1194/3/4 1203/3/4
f 1203/3/4 1186/3/4 1204/3/4
f 1199/3/4 1200/3/4 1205/3/4
f 1187/3/4 1191/3/4 1205/3/4
f 1191/3/4 1195/3/4 1205/3/4
f 1195/3/4 1199/3/4 1205/3/4
f 1205/3/4 1200/3/4 1206/3/4
f 1206/3/4 1200/3/4 1207/3/4
f 1201/3/4 1202/3/4 1209/3/4
f 1202/3/4 1203/3/4 1209/3/4
f 1209/3/4 1203/3/4 1210/3/4
f 1207/3/4 1208/3/4 1211/3/4
f 1206/3/4 1207/3/4 1211/3/4
f 1211/3/4 1208/3/4 1212/3/4
f 1213/3/4 1214/3/4 1215/3/4
f 1215/3/4 1214/3/4 1216/3/4
f 1217/3/4 1218/3/4 1220/3/4
f 1220/3/4 1218/3/4 1221/3/4
f 1219/3/4 1220/3/4 1224/3/4
f 1221/3/4 1222/3/4 1224/3/4
f 1220/3/4 1221/3/4 1224/3/4
f 1224/3/4 1222/3/4 1225/3/4
f 1223/3/4 1224/3/4 1227/3/4
f 1225/3/4 1226/3/4 1227/3/4
f 1224/3/4 1225/3/4 1227/3/4
f 1227/3/4 1226/3/4 1228/3/4
f 1229/2/4 1230/2/4 1233/2/4
f 1233/2/4 1230/2/4 1234/2/4
f 1231/2/4 1232/2/4 1235/2/4
f 1235/2/4 1232/2/4 1236/2/4
f 1243/2/5 1240/2/5 1239/2/5
f 1244/2/5 1240/2/5 1243/2/5
f 1245/2/5 1238/2/5 1237/2/5
f 1246/2/5 1238/2/5 1245/2/5
f 1248/3/5 1242/3/5 1241/3/5
f 1250/3/5 1248/3/5 1247/3/5
f 1252/3/5 1250/3/5 1249/3/5
f 1256/3/5 1252/3/5 1251/3/5
f 1258/3/5 1254/3/5 1253/3/5
f 1259/3/5 1242/3/5 1248/3/5
f 1259/3/5 1248/3/5 1250/3/5
f 1259/3/5 1250/3/5 1252/3/5
f 1259/3/5 1256/3/5 1255/3/5
f 1259/3/5 1252/3/5 1256/3/5
f 1260/3/5 1242/3/5 1259/3/5
f 1262/3/5 1258/3/5 1257/3/5
f 1263/3/5 1259/3/5 1255/3/5
f 1264/3/5 1259/3/5 1263/3/5
f 1269/3/5 1266/3/5 1265/3/5
f 1270/3/5 1266/3/5 1269/3/5
f 1271/3/5 1268/3/5 1267/3/5
f 1273/3/5 1262/3/5 1261/3/5
f 1274/3/5 1258/3/5 1262/3/5
f 1274/3/5 1262/3/5 1273/3/5
f 1275/3/5 1272/3/5 1271/3/5
f 1275/3/5 1271/3/5 1267/3/5
f 1276/3/5 1272/3/5 1275/3/5
f 1277/3/5 1258/3/5 1274/3/5
f 1278/3/5 1254/3/5 1258/3/5
f 1278/3/5 1258/3/5 1277/3/5
f 1279/3/5 1272/3/5 1276/3/5
f 1280/3/5 1272/3/5 1279/3/5
f 1281/3/5 1254/3/5 1278/3/5
f 1282/3/5 1254/3/5 1281/3/5
f 1283/3/5 1272/3/5 1280/3/5
f 1284/3/5 1272/3/5 1283/3/5
f 1285/3/5 1272/3/5 1284/3/5
f 1286/3/5 1272/3/5 1285/3/5
f 1291/3/5 1272/3/5 1286/3/5
f 1292/3/5 1272/3/5 1291/3/5
f 1293/2/5 1290/2/5 1289/2/5
f 1294/2/5 1290/2/5 1293/2/5
f 1295/2/5 1288/2/5 1287/2/5
f 1296/2/5 1288/2/5 1295/2/5
f 1303/1/5 1300/1/5 1299/1/5
f 1304/1/5 1300/1/5 1303/1/5
f 1305/1/5 1300/1/5 1304/1/5
f 1306/1/5 1302/1/5 1301/1/5
f 1307/1/5 1298/1/5 1297/1/5
f 1308/1/5 1303/1/5 1299/1/5
f 1309/1/5 1303/1/5 1308/1/5
f 1310/1/5 1303/1/5 1309/1/5
f 1313/1/5 1308/1/5 1307/1/5
f 1313/1/5 1309/1/5 1308/1/5
f 1314/1/5 1309/1/5 1313/1/5
f 1315/1/5 1312/1/5 1311/1/5
f 1316/1/5 1312/1/5 1315/1/5
f 1317/1/5 1313/1/5 1307/1/5
f 1318/1/5 1313/1/5 1317/1/5
f 1319/1/5 1306/1/5 1305/1/5
f 1319/1/5 1305/1/5 1304/1/5
f 1320/1/5 1306/1/5 1319/1/5
f 1321/1/5 1317/1/5 1307/1/5
f 1322/1/5 1317/1/5 1321/1/5
f 1323/1/5 1319/1/5 1304/1/5
f 1324/1/5 1319/1/5 1323/1/5
f 1326/1/5 1323/1/5 1304/1/5
f 1327/1/5 1323/1/5 1326/1/5
f 1328/1/5 1323/1/5 1327/1/5
f 1329/1/5 1321/1/5 1307/1/5
f 1330/1/5 1326/1/5 1325/1/5
f 1330/1/5 1327/1/5 1326/1/5
f 1331/1/5 1327/1/5 1330/1/5
f 1332/1/5 1327/1/5 1331/1/5
f 1333/3/5 1316/3/5 1315/3/5
f 1333/1/5 1315/1/5 1311/1/5
f 1334/1/5 1312/1/5 1316/1/5
f 1334/3/5 1316/3/5 1333/3/5
f 1335/1/5 1331/1/5 1330/1/5
f 1335/1/5 1330/1/5 1329/1/5
f 1335/1/5 1329/1/5 1307/1/5
f 1336/1/5 1331/1/5 1335/1/5
f 1337/1/5 1331/1/5 1336/1/5
f 1338/1/5 1327/1/5 1332/1/5
f 1339/1/5 1333/1/5 1311/1/5
f 1339/1/5 1334/1/5 1333/1/5
f 1340/1/5 1312/1/5 1334/1/5
f 1340/1/5 1334/1/5 1339/1/5
f 1341/1/5 1337/1/5 1336/1/5
f 1341/1/5 1338/1/5 1337/1/5
f 1342/1/5 1338/1/5 1341/1/5
f 1343/1/5 1327/1/5 1338/1/5
f 1343/1/5 1338/1/5 1342/1/5
f 1345/1/5 1335/1/5 1307/1/5
f 1347/1/5 1344/1/5 1343/1/5
f 1347/1/5 1343/1/5 1342/1/5
f 1349/1/5 1346/1/5 1345/1/5
f 1351/1/5 1348/1/5 1347/1/5
f 1352/1/5 1306/1/5 1320/1/5
f 1353/1/5 1350/1/5 1349/1/5
f 1355/3/5 1340/3/5 1339/3/5
f 1355/1/5 1339/1/5 1311/1/5
f 1356/1/5 1312/1/5 1340/1/5
f 1356/3/5 1340/3/5 1355/3/5
f 1357/1/5 1354/1/5 1353/1/5
f 1359/1/5 1352/1/5 1351/1/5
f 1359/1/5 1306/1/5 1352/1/5
f 1360/1/5 1302/1/5 1306/1/5
f 1360/1/5 1306/1/5 1359/1/5
f 1361/1/5 1355/1/5 1311/1/5
f 1361/1/5 1356/1/5 1355/1/5
f 1362/1/5 1312/1/5 1356/1/5
f 1362/1/5 1356/1/5 1361/1/5
f 1363/1/5 1307/1/5 1297/1/5
f 1363/1/5 1353/1/5 1349/1/5
f 1363/1/5 1357/1/5 1353/1/5
f 1363/1/5 1358/1/5 1357/1/5
f 1363/1/5 1349/1/5 1345/1/5
f 1363/1/5 1345/1/5 1307/1/5
f 1364/1/5 1358/1/5 1363/1/5
f 1365/1/5 1358/1/5 1364/1/5
f 1366/1/5 1351/1/5 1347/1/5
f 1366/1/5 1359/1/5 1351/1/5
f 1366/1/5 1347/1/5 1342/1/5
f 1367/1/5 1363/1/5 1297/1/5
f 1368/1/5 1363/1/5 1367/1/5
f 1369/1/5 1365/1/5 1364/1/5
f 1369/1/5 1366/1/5 1365/1/5
f 1370/1/5 1359/1/5 1366/1/5
f 1370/1/5 1366/1/5 1369/1/5
f 1371/1/5 1302/1/5 1360/1/5
f 1372/1/5 1302/1/5 1371/1/5
f 1375/3/5 1374/3/5 1373/3/5
f 1376/3/5 1374/3/5 1375/3/5
f 1379/3/5 1378/3/5 1377/3/5
f 1380/3/5 1378/3/5 1379/3/5
f 1383/3/5 1382/3/5 1381/3/5
f 1384/3/5 1382/3/5 1383/3/5
f 1387/1/5 1386/1/5 1385/1/5
f 1388/1/5 1386/1/5 1387/1/5
f 1391/2/5 1390/2/5 1389/2/5
f 1392/2/5 1390/2/5 1391/2/5
f 1397/1/5 1394/1/5 1393/1/5
f 1398/1/5 1394/1/5 1397/1/5
f 1399/3/5 1396/3/5 1395/3/5
f 1400/3/5 1396/3/5 1399/3/5
f 1403/3/5 1402/3/5 1401/3/5
f 1404/3/5 1402/3/5 1403/3/5
f 1407/2/5 1406/2/5 1405/2/5
f 1408/2/5 1406/2/5 1407/2/5
f 1411/3/5 1410/3/5 1409/3/5
f 1412/3/5 1410/3/5 1411/3/5
f 1417/3/5 1414/3/5 1413/3/5
f 1418/3/5 1414/3/5 1417/3/5
f 1419/3/5 1416/3/5 1415/3/5
f 1420/3/5 1416/3/5 1419/3/5
f 1425/2/5 1424/2/5 1423/2/5
f 1426/2/5 1424/2/5 1425/2/5
f 1427/2/5 1422/2/5 1421/2/5
f 1428/2/5 1422/2/5 1427/2/5
f 1429/2/5 1427/2/5 1421/2/5
f 1433/2/5 1430/2/5 1429/2/5
f 1433/2/5 1429/2/5 1421/2/5
f 1434/2/5 1430/2/5 1433/2/5
f 1435/2/5 1432/2/5 1431/2/5
f 1436/2/5 1432/2/5 1435/2/5
f 1441/3/5 1438/3/5 1437/3/5
f 1442/3/5 1438/3/5 1441/3/5
f 1443/3/5 1440/3/5 1439/3/5
f 1444/3/5 1440/3/5 1443/3/5
f 1449/3/5 1446/3/5 1445/3/5
f 1450/3/5 1446/3/5 1449/3/5
f 1451/3/5 1448/3/5 1447/3/5
f 1452/3/5 1448/3/5 1451/3/5
f 1455/2/5 1454/2/5 1453/2/5
f 1456/2/5 1454/2/5 1455/2/5
f 1459/2/5 1458/2/5 1457/2/5
f 1460/2/5 1458/2/5 1459/2/5
f 1465/3/5 1462/3/5 1461/3/5
f 1466/3/5 1462/3/5 1465/3/5
f 1467/3/5 1464/3/5 1463/3/5
f 1468/3/5 1464/3/5 1467/3/5
f 1471/3/5 1470/3/5 1469/3/5
f 1472/3/5 1470/3/5 1471/3/5
f 1476/2/5 1474/2/5 1473/2/5
f 1477/2/5 1476/2/5 1475/2/5
f 1478/2/5 1474/2/5 1476/2/5
f 1478/2/5 1476/2/5 1477/2/5
f 1481/2/5 1480/2/5 1479/2/5
f 1482/2/5 1480/2/5 1481/2/5
f 1485/2/5 1484/2/5 1483/2/5
f 1486/2/5 1484/2/5 1485/2/5
f 1489/2/5 1488/2/5 1487/2/5
f 1490/2/5 1488/2/5 1489/2/5
f 1491/2/5 1488/2/5 1490/2/5
f 1492/2/5 1488/2/5 1491/2/5
f 1495/3/5 1494/3/5 1493/3/5
f 1496/3/5 1494/3/5 1495/3/5
f 1499/3/5 1498/3/5 1497/3/5
f 1500/3/5 1498/3/5 1499/3/5
f 1504/3/5 1502/3/5 1501/3/5
f 1504/3/5 1503/3/5 1502/3/5
f 1505/3/5 1503/3/5 1504/3/5
f 1506/3/5 1503/3/5 1505/3/5
f 1509/3/5 1508/3/5 1507/3/5
f 1510/3/5 1508/3/5 1509/3/5
f 1513/3/5 1512/3/5 1511/3/5
f 1514/3/5 1512/3/5 1513/3/5
f 1517/3/5 1516/3/5 1515/3/5
f 1518/3/5 1516/3/5 1517/3/5
f 1521/3/5 1520/3/5 1519/3/5
f 1522/3/5 1520/3/5 1521/3/5
f 1525/3/5 1524/3/5 1523/3/5
f 1526/3/5 1524/3/5 1525/3/5
f 1531/2/5 1528/2/5 1527/2/5
f 1532/2/5 1528/2/5 1531/2/5
f 1533/2/5 1530/2/5 1529/2/5
f 1534/2/5 1530/2/5 1533/2/5
f 1537/1/5 1536/1/5 1535/1/5
f 1538/1/5 1536/1/5 1537/1/5
f 1543/2/5 1540/2/5 1539/2/5
f 1544/2/5 1540/2/5 1543/2/5
f 1545/2/5 1542/2/5 1541/2/5
f 1546/2/5 1542/2/5 1545/2/5
f 1547/2/6 1548/2/6 1551/2/6
f 1551/2/6 1548/2/6 1552/2/6
f 1549/2/6 1550/2/6 1553/2/6
f 1553/2/6 1550/2/6 1554/2/6
f 1555/1/6 1556/1/6 1557/1/6
f 1557/1/6 1556/1/6 1558/1/6
f 1559/2/6 1560/2/6 1563/2/6
f 1563/2/6 1560/2/6 1564/2/6
f 1561/2/6 1562/2/6 1565/2/6
f 1565/2/6 1562/2/6 1566/2/6
f 1567/3/6 1568/3/6 1569/3/6
f 1569/3/6 1568/3/6 1570/3/6
f 1571/2/6 1572/2/6 1573/2/6
f 1573/2/6 1572/2/6 1574/2/6
f 1575/3/6 1576/3/6 1577/3/6
f 1577/3/6 1576/3/6 1578/3/6
f 1579/3/6 1580/3/6 1581/3/6
f 1581/3/6 1580/3/6 1582/3/6
f 1583/3/6 1584/3/6 1585/3/6
f 1585/3/6 1584/3/6 1586/3/6
f 1587/3/6 1588/3/6 1589/3/6
f 1589/3/6 1588/3/6 1590/3/6
f 1591/3/6 1592/3/6 1594/3/6
f 1592/3/6 1593/3/6 1594/3/6
f 1594/3/6 1593/3/6 1595/3/6
f 1595/3/6 1593/3/6 1596/3/6
f 1597/3/6 1598/3/6 1599/3/6
f 1599/3/6 1598/3/6 1600/3/6
f 1601/3/6 1602/3/6 1603/3/6
f 1603/3/6 1602/3/6 1604/3/6
f 1605/2/6 1606/2/6 1608/2/6
f 1607/2/6 1608/2/6 1609/2/6
f 1608/2/6 1606/2/6 1610/2/6
f 1609/2/6 1608/2/6 1610/2/6
f 1611/2/6 1612/2/6 1613/2/6
f 1613/2/6 1612/2/6 1614/2/6
f 1615/2/6 1616/2/6 1617/2/6
f 1617/2/6 1616/2/6 1618/2/6
f 1619/2/6 1620/2/6 1621/2/6
f 1621/2/6 1620/2/6 1622/2/6
f 1622/2/6 1620/2/6 1623/2/6
f 1623/2/6 1620/2/6 1624/2/6
f 1625/3/6 1626/3/6 1627/3/6
f 1627/3/6 1626/3/6 1628/3/6
f 1629/3/6 1630/3/6 1633/3/6
f 1633/3/6 1630/3/6 1634/3/6
f 1631/3/6 1632/3/6 1635/3/6
f 1635/3/6 1632/3/6 1636/3/6
f 1637/2/6 1638/2/6 1639/2/6
f 1639/2/6 1638/2/6 1640/2/6
f 1641/2/6 1642/2/6 1643/2/6
f 1643/2/6 1642/2/6 1644/2/6
f 1645/3/6 1646/3/6 1649/3/6
f 1649/3/6 1646/3/6 1650/3/6
f 1647/3/6 1648/3/6 1651/3/6
f 1651/3/6 1648/3/6 1652/3/6
f 1653/3/6 1654/3/6 1657/3/6
f 1657/3/6 1654/3/6 1658/3/6
f 1655/3/6 1656/3/6 1659/3/6
f 1659/3/6 1656/3/6 1660/3/6
f 1663/2/6 1664/2/6 1665/2/6
f 1665/2/6 1664/2/6 1666/2/6
f 1661/2/6 1662/2/6 1667/2/6
f 1667/2/6 1662/2/6 1668/2/6
f 1661/2/6 1667/2/6 1669/2/6
f 1669/2/6 1670/2/6 1673/2/6
f 1661/2/6 1669/2/6 1673/2/6
f 1673/2/6 1670/2/6 1674/2/6
f 1671/2/6 1672/2/6 1675/2/6
f 1675/2/6 1672/2/6 1676/2/6
f 1677/3/6 1678/3/6 1681/3/6
f 1681/3/6 1678/3/6 1682/3/6
f 1679/3/6 1680/3/6 1683/3/6
f 1683/3/6 1680/3/6 1684/3/6
f 1685/3/6 1686/3/6 1687/3/6
f 1687/3/6 1686/3/6 1688/3/6
f 1689/2/6 1690/2/6 1691/2/6
f 1691/2/6 1690/2/6 1692/2/6
f 1693/3/6 1694/3/6 1695/3/6
f 1695/3/6 1694/3/6 1696/3/6
f 1697/3/6 1698/3/6 1699/3/6
f 1699/3/6 1698/3/6 1700/3/6
f 1701/1/6 1702/1/6 1703/1/6
f 1703/1/6 1702/1/6 1704/1/6
f 1705/2/6 1706/2/6 1707/2/6
f 1707/2/6 1706/2/6 1708/2/6
f 1709/1/6 1710/1/6 1713/1/6
f 1713/1/6 1710/1/6 1714/1/6
f 1711/3/6 1712/3/6 1715/3/6
f 1715/3/6 1712/3/6 1716/3/6
f 1717/3/6 1718/3/6 1719/3/6
f 1719/3/6 1718/3/6 1720/3/6
f 1721/3/6 1722/3/6 1723/3/6
f 1723/3/6 1722/3/6 1724/3/6
f 1727/1/6 1728/1/6 1731/1/6
f 1731/1/6 1728/1/6 1732/1/6
f 1725/1/6 1726/1/6 1733/1/6
f 1727/1/6 1731/1/6 1734/1/6
f 1734/1/6 1731/1/6 1735/1/6
f 1735/1/6 1731/1/6 1736/1/6
f 1732/1/6 1728/1/6 1737/1/6
f 1729/1/6 1730/1/6 1738/1/6
f 1733/1/6 1734/1/6 1741/1/6
f 1734/1/6 1735/1/6 1741/1/6
f 1741/1/6 1735/1/6 1742/1/6
f 1733/1/6 1741/1/6 1743/1/6
f 1743/1/6 1741/1/6 1744/1/6
f 1732/1/6 1737/1/6 1745/1/6
f 1737/1/6 1738/1/6 1745/1/6
f 1745/1/6 1738/1/6 1746/1/6
f 1739/1/6 1740/1/6 1747/1/6
f 1747/1/6 1740/1/6 1748/1/6
f 1733/1/6 1743/1/6 1749/1/6
f 1749/1/6 1743/1/6 1750/1/6
f 1732/1/6 1745/1/6 1751/1/6
f 1751/1/6 1745/1/6 1752/1/6
f 1732/1/6 1751/1/6 1754/1/6
f 1754/1/6 1751/1/6 1755/1/6
f 1755/1/6 1751/1/6 1756/1/6
f 1733/1/6 1749/1/6 1757/1/6
f 1753/1/6 1754/1/6 1758/1/6
f 1754/1/6 1755/1/6 1758/1/6
f 1758/1/6 1755/1/6 1759/1/6
f 1759/1/6 1755/1/6 1760/1/6
f 1747/3/6 1748/3/6 1761/3/6
f 1739/1/6 1747/1/6 1761/1/6
f 1748/1/6 1740/1/6 1762/1/6
f 1761/3/6 1748/3/6 1762/3/6
f 1758/1/6 1759/1/6 1763/1/6
f 1757/1/6 1758/1/6 1763/1/6
f 1733/1/6 1757/1/6 1763/1/6
f 1763/1/6 1759/1/6 1764/1/6
f 1764/1/6 1759/1/6 1765/1/6
f 1760/1/6 1755/1/6 1766/1/6
f 1739/1/6 1761/1/6 1767/1/6
f 1761/1/6 1762/1/6 1767/1/6
f 1762/1/6 1740/1/6 1768/1/6
f 1767/1/6 1762/1/6 1768/1/6
f 1765/1/6 1766/1/6 1769/1/6
f 1764/1/6 1765/1/6 1769/1/6
f 1769/1/6 1766/1/6 1770/1/6
f 1766/1/6 1755/1/6 1771/1/6
f 1770/1/6 1766/1/6 1771/1/6
f 1733/1/6 1763/1/6 1773/1/6
f 1771/1/6 1772/1/6 1775/1/6
f 1770/1/6 1771/1/6 1775/1/6
f 1773/1/6 1774/1/6 1777/1/6
f 1775/1/6 1776/1/6 1779/1/6
f 1746/1/6 1738/1/6 1780/1/6
f 1767/3/6 1768/3/6 1781/3/6
f 1739/1/6 1767/1/6 1781/1/6
f 1768/1/6 1740/1/6 1782/1/6
f 1781/3/6 1768/3/6 1782/3/6
f 1777/1/6 1778/1/6 1783/1/6
f 1725/1/6 1733/1/6 1785/1/6
f 1783/1/6 1784/1/6 1785/1/6
f 1777/1/6 1783/1/6 1785/1/6
f 1733/1/6 1773/1/6 1785/1/6
f 1773/1/6 1777/1/6 1785/1/6
f 1785/1/6 1784/1/6 1786/1/6
f 1786/1/6 1784/1/6 1787/1/6
f 1779/1/6 1780/1/6 1789/1/6
f 1780/1/6 1738/1/6 1789/1/6
f 1738/1/6 1730/1/6 1790/1/6
f 1789/1/6 1738/1/6 1790/1/6
f 1739/1/6 1781/1/6 1791/1/6
f 1781/1/6 1782/1/6 1791/1/6
f 1782/1/6 1740/1/6 1792/1/6
f 1791/1/6 1782/1/6 1792/1/6
f 1787/1/6 1788/1/6 1793/1/6
f 1786/1/6 1787/1/6 1793/1/6
f 1775/1/6 1779/1/6 1794/1/6
f 1779/1/6 1789/1/6 1794/1/6
f 1770/1/6 1775/1/6 1794/1/6
f 1725/1/6 1785/1/6 1795/1/6
f 1795/1/6 1785/1/6 1796/1/6
f 1786/1/6 1793/1/6 1797/1/6
f 1793/1/6 1794/1/6 1797/1/6
f 1794/1/6 1789/1/6 1798/1/6
f 1797/1/6 1794/1/6 1798/1/6
f 1790/1/6 1730/1/6 1799/1/6
f 1799/1/6 1730/1/6 1800/1/6
f 1798/2/6 1799/2/6 1801/2/6
f 1801/2/6 1799/2/6 1802/2/6
f 1803/2/6 1804/2/6 1809/2/6
f 1809/2/6 1804/2/6 1810/2/6
f 1807/3/6 1808/3/6 1812/3/6
f 1805/2/6 1806/2/6 1813/2/6
f 1813/2/6 1806/2/6 1814/2/6
f 1811/3/6 1812/3/6 1816/3/6
f 1815/3/6 1816/3/6 1818/3/6
f 1817/3/6 1818/3/6 1822/3/6
f 1819/3/6 1820/3/6 1824/3/6
f 1812/3/6 1808/3/6 1825/3/6
f 1816/3/6 1812/3/6 1825/3/6
f 1818/3/6 1816/3/6 1825/3/6
f 1821/3/6 1822/3/6 1825/3/6
f 1822/3/6 1818/3/6 1825/3/6
f 1825/3/6 1808/3/6 1826/3/6
f 1823/3/6 1824/3/6 1828/3/6
f 1821/3/6 1825/3/6 1829/3/6
f 1829/3/6 1825/3/6 1830/3/6
f 1831/3/6 1832/3/6 1835/3/6
f 1835/3/6 1832/3/6 1836/3/6
f 1833/3/6 1834/3/6 1837/3/6
f 1827/3/6 1828/3/6 1839/3/6
f 1828/3/6 1824/3/6 1840/3/6
f 1839/3/6 1828/3/6 1840/3/6
f 1837/3/6 1838/3/6 1841/3/6
f 1833/3/6 1837/3/6 1841/3/6
f 1841/3/6 1838/3/6 1842/3/6
f 1840/3/6 1824/3/6 1843/3/6
f 1824/3/6 1820/3/6 1844/3/6
f 1843/3/6 1824/3/6 1844/3/6
f 1842/3/6 1838/3/6 1845/3/6
f 1845/3/6 1838/3/6 1846/3/6
f 1844/3/6 1820/3/6 1847/3/6
f 1847/3/6 1820/3/6 1848/3/6
f 1846/3/6 1838/3/6 1849/3/6
f 1849/3/6 1838/3/6 1850/3/6
f 1850/3/6 1838/3/6 1853/3/6
f 1853/3/6 1838/3/6 1854/3/6
f 1854/3/6 1838/3/6 1857/3/6
f 1857/3/6 1838/3/6 1858/3/6
f 1855/2/6 1856/2/6 1859/2/6
f 1859/2/6 1856/2/6 1860/2/6
f 1851/2/6 1852/2/6 1861/2/6
f 1861/2/6 1852/2/6 1862/2/6
